mtllib frame.mtl
o cube
v -1.189062 1.625000 -2.875000
v -1.189062 1.625000 -4.500000
v -1.189062 1.437500 -2.875000
v -1.189062 1.437500 -4.500000
v -1.314062 1.625000 -2.875000
v -1.314062 1.625000 -4.500000
v -1.314062 1.437500 -2.875000
v -1.314062 1.437500 -4.500000
v 1.314062 1.625000 -2.875000
v 1.314062 1.625000 -4.500000
v 1.314062 1.437500 -2.875000
v 1.314062 1.437500 -4.500000
v 1.189062 1.625000 -2.875000
v 1.189062 1.625000 -4.500000
v 1.189062 1.437500 -2.875000
v 1.189062 1.437500 -4.500000
v 0.756250 1.443750 -0.806250
v 0.756250 1.443750 -1.443750
v 0.756250 0.681250 -0.806250
v 0.756250 0.681250 -1.443750
v 0.431250 1.443750 -0.806250
v 0.431250 1.443750 -1.443750
v 0.431250 0.681250 -0.806250
v 0.431250 0.681250 -1.443750
v -0.431250 1.443750 -0.806250
v -0.431250 1.443750 -1.443750
v -0.431250 0.681250 -0.806250
v -0.431250 0.681250 -1.443750
v -0.756250 1.443750 -0.806250
v -0.756250 1.443750 -1.443750
v -0.756250 0.681250 -0.806250
v -0.756250 0.681250 -1.443750
v 0.756250 1.443750 1.443750
v 0.756250 1.443750 0.806250
v 0.756250 0.681250 1.443750
v 0.756250 0.681250 0.806250
v 0.431250 1.443750 1.443750
v 0.431250 1.443750 0.806250
v 0.431250 0.681250 1.443750
v 0.431250 0.681250 0.806250
v -0.431250 1.443750 1.443750
v -0.431250 1.443750 0.806250
v -0.431250 0.681250 1.443750
v -0.431250 0.681250 0.806250
v -0.756250 1.443750 1.443750
v -0.756250 1.443750 0.806250
v -0.756250 0.681250 1.443750
v -0.756250 0.681250 0.806250
v 0.312500 1.062500 0.500000
v 0.312500 1.062500 -0.500000
v 0.312500 0.437500 0.500000
v 0.312500 0.437500 -0.500000
v -0.312500 1.062500 0.500000
v -0.312500 1.062500 -0.500000
v -0.312500 0.437500 0.500000
v -0.312500 0.437500 -0.500000
v 0.437500 1.250000 -0.687500
v 0.437500 1.250000 -1.562500
v 0.437500 0.750000 -0.687500
v 0.437500 0.750000 -1.562500
v -0.437500 1.250000 -0.687500
v -0.437500 1.250000 -1.562500
v -0.437500 0.750000 -0.687500
v -0.437500 0.750000 -1.562500
v 0.312500 1.062500 -0.562500
v 0.312500 1.062500 -1.687500
v 0.312500 0.437500 -0.562500
v 0.312500 0.437500 -1.687500
v -0.312500 1.062500 -0.562500
v -0.312500 1.062500 -1.687500
v -0.312500 0.437500 -0.562500
v -0.312500 0.437500 -1.687500
v 0.437500 1.250000 0.375000
v 0.437500 1.250000 -0.375000
v 0.437500 0.750000 0.375000
v 0.437500 0.750000 -0.375000
v -0.437500 1.250000 0.375000
v -0.437500 1.250000 -0.375000
v -0.437500 0.750000 0.375000
v -0.437500 0.750000 -0.375000
v 0.437500 1.250000 1.562500
v 0.437500 1.250000 0.687500
v 0.437500 0.750000 1.562500
v 0.437500 0.750000 0.687500
v -0.437500 1.250000 1.562500
v -0.437500 1.250000 0.687500
v -0.437500 0.750000 1.562500
v -0.437500 0.750000 0.687500
v 0.312500 1.062500 1.687500
v 0.312500 1.062500 0.562500
v 0.312500 0.437500 1.687500
v 0.312500 0.437500 0.562500
v -0.312500 1.062500 1.687500
v -0.312500 1.062500 0.562500
v -0.312500 0.437500 1.687500
v -0.312500 0.437500 0.562500
v 0.250000 1.500000 0.250000
v 0.250000 1.500000 -0.250000
v 0.250000 1.250000 0.250000
v 0.250000 1.250000 -0.250000
v -0.250000 1.500000 0.250000
v -0.250000 1.500000 -0.250000
v -0.250000 1.250000 0.250000
v -0.250000 1.250000 -0.250000
v 0.312500 1.062500 -1.812500
v 0.312500 1.062500 -2.437500
v 0.312500 0.437500 -1.812500
v 0.312500 0.437500 -2.437500
v -0.312500 1.062500 -1.812500
v -0.312500 1.062500 -2.437500
v -0.312500 0.437500 -1.812500
v -0.312500 0.437500 -2.437500
v 0.750000 1.000000 -1.875000
v 0.750000 1.000000 -2.375000
v 0.750000 0.500000 -1.875000
v 0.750000 0.500000 -2.375000
v 0.437500 1.000000 -1.875000
v 0.437500 1.000000 -2.375000
v 0.437500 0.500000 -1.875000
v 0.437500 0.500000 -2.375000
v 0.093750 1.250000 -2.031250
v 0.093750 1.250000 -2.218750
v 0.093750 1.062500 -2.031250
v 0.093750 1.062500 -2.218750
v -0.093750 1.250000 -2.031250
v -0.093750 1.250000 -2.218750
v -0.093750 1.062500 -2.031250
v -0.093750 1.062500 -2.218750
v 0.750000 1.000000 2.375000
v 0.750000 1.000000 1.875000
v 0.750000 0.500000 2.375000
v 0.750000 0.500000 1.875000
v 0.437500 1.000000 2.375000
v 0.437500 1.000000 1.875000
v 0.437500 0.500000 2.375000
v 0.437500 0.500000 1.875000
v -0.437500 1.000000 2.375000
v -0.437500 1.000000 1.875000
v -0.437500 0.500000 2.375000
v -0.437500 0.500000 1.875000
v -0.750000 1.000000 2.375000
v -0.750000 1.000000 1.875000
v -0.750000 0.500000 2.375000
v -0.750000 0.500000 1.875000
v 0.312500 1.062500 2.437500
v 0.312500 1.062500 1.812500
v 0.312500 0.437500 2.437500
v 0.312500 0.437500 1.812500
v -0.312500 1.062500 2.437500
v -0.312500 1.062500 1.812500
v -0.312500 0.437500 2.437500
v -0.312500 0.437500 1.812500
v 0.093750 1.250000 2.218750
v 0.093750 1.250000 2.031250
v 0.093750 1.062500 2.218750
v 0.093750 1.062500 2.031250
v -0.093750 1.250000 2.218750
v -0.093750 1.250000 2.031250
v -0.093750 1.062500 2.218750
v -0.093750 1.062500 2.031250
v -0.437500 1.000000 -1.875000
v -0.437500 1.000000 -2.375000
v -0.437500 0.500000 -1.875000
v -0.437500 0.500000 -2.375000
v -0.750000 1.000000 -1.875000
v -0.750000 1.000000 -2.375000
v -0.750000 0.500000 -1.875000
v -0.750000 0.500000 -2.375000
v -0.224112 0.588388 1.437500
v -0.224112 0.588388 1.250000
v -0.312500 0.500000 1.437500
v -0.312500 0.500000 1.250000
v -0.445082 0.809359 1.437500
v -0.445082 0.809359 1.250000
v -0.533471 0.720971 1.437500
v -0.533471 0.720971 1.250000
v -0.224112 0.588388 1.000000
v -0.224112 0.588388 0.812500
v -0.312500 0.500000 1.000000
v -0.312500 0.500000 0.812500
v -0.445082 0.809359 1.000000
v -0.445082 0.809359 0.812500
v -0.533471 0.720971 1.000000
v -0.533471 0.720971 0.812500
v -0.224112 0.588388 -0.812500
v -0.224112 0.588388 -1.000000
v -0.312500 0.500000 -0.812500
v -0.312500 0.500000 -1.000000
v -0.445082 0.809359 -0.812500
v -0.445082 0.809359 -1.000000
v -0.533471 0.720971 -0.812500
v -0.533471 0.720971 -1.000000
v 0.445082 0.809359 1.000000
v 0.445082 0.809359 0.812500
v 0.533471 0.720971 1.000000
v 0.533471 0.720971 0.812500
v 0.224112 0.588388 1.000000
v 0.224112 0.588388 0.812500
v 0.312500 0.500000 1.000000
v 0.312500 0.500000 0.812500
v 0.445082 0.809359 1.437500
v 0.445082 0.809359 1.250000
v 0.533471 0.720971 1.437500
v 0.533471 0.720971 1.250000
v 0.224112 0.588388 1.437500
v 0.224112 0.588388 1.250000
v 0.312500 0.500000 1.437500
v 0.312500 0.500000 1.250000
v 0.445082 0.809359 -0.812500
v 0.445082 0.809359 -1.000000
v 0.533471 0.720971 -0.812500
v 0.533471 0.720971 -1.000000
v 0.224112 0.588388 -0.812500
v 0.224112 0.588388 -1.000000
v 0.312500 0.500000 -0.812500
v 0.312500 0.500000 -1.000000
v 0.445082 0.809359 -1.250000
v 0.445082 0.809359 -1.437500
v 0.533471 0.720971 -1.250000
v 0.533471 0.720971 -1.437500
v 0.224112 0.588388 -1.250000
v 0.224112 0.588388 -1.437500
v 0.312500 0.500000 -1.250000
v 0.312500 0.500000 -1.437500
v -0.224112 0.588388 -1.250000
v -0.224112 0.588388 -1.437500
v -0.312500 0.500000 -1.250000
v -0.312500 0.500000 -1.437500
v -0.445082 0.809359 -1.250000
v -0.445082 0.809359 -1.437500
v -0.533471 0.720971 -1.250000
v -0.533471 0.720971 -1.437500
v -1.187500 0.937500 -4.625000
v -1.187500 0.937500 -4.750000
v -1.187500 0.687500 -4.625000
v -1.187500 0.687500 -4.750000
v -1.312500 0.937500 -4.625000
v -1.312500 0.937500 -4.750000
v -1.312500 0.687500 -4.625000
v -1.312500 0.687500 -4.750000
v -1.187500 0.687500 -4.625000
v -1.187500 0.687500 -6.062500
v -1.187500 0.562500 -4.625000
v -1.187500 0.562500 -6.062500
v -1.312500 0.687500 -4.625000
v -1.312500 0.687500 -6.062500
v -1.312500 0.562500 -4.625000
v -1.312500 0.562500 -6.062500
v -1.187500 0.812500 -5.250000
v -1.187500 0.812500 -6.062500
v -1.187500 0.687500 -5.250000
v -1.187500 0.687500 -6.062500
v -1.312500 0.812500 -5.250000
v -1.312500 0.812500 -6.062500
v -1.312500 0.687500 -5.250000
v -1.312500 0.687500 -6.062500
v -1.187500 0.937500 -5.250000
v -1.187500 0.937500 -5.375000
v -1.187500 0.812500 -5.250000
v -1.187500 0.812500 -5.375000
v -1.312500 0.937500 -5.250000
v -1.312500 0.937500 -5.375000
v -1.312500 0.812500 -5.250000
v -1.312500 0.812500 -5.375000
v 1.312500 0.937500 -4.625000
v 1.312500 0.937500 -4.750000
v 1.312500 0.687500 -4.625000
v 1.312500 0.687500 -4.750000
v 1.187500 0.937500 -4.625000
v 1.187500 0.937500 -4.750000
v 1.187500 0.687500 -4.625000
v 1.187500 0.687500 -4.750000
v 1.312500 0.687500 -4.625000
v 1.312500 0.687500 -6.062500
v 1.312500 0.562500 -4.625000
v 1.312500 0.562500 -6.062500
v 1.187500 0.687500 -4.625000
v 1.187500 0.687500 -6.062500
v 1.187500 0.562500 -4.625000
v 1.187500 0.562500 -6.062500
v 1.312500 0.937500 -5.250000
v 1.312500 0.937500 -5.375000
v 1.312500 0.812500 -5.250000
v 1.312500 0.812500 -5.375000
v 1.187500 0.937500 -5.250000
v 1.187500 0.937500 -5.375000
v 1.187500 0.812500 -5.250000
v 1.187500 0.812500 -5.375000
v 1.312500 0.812500 -5.250000
v 1.312500 0.812500 -6.062500
v 1.312500 0.687500 -5.250000
v 1.312500 0.687500 -6.062500
v 1.187500 0.812500 -5.250000
v 1.187500 0.812500 -6.062500
v 1.187500 0.687500 -5.250000
v 1.187500 0.687500 -6.062500
v -1.000000 1.750000 -4.437500
v -1.000000 1.750000 -4.500000
v -1.000000 1.000000 -4.437500
v -1.000000 1.000000 -4.500000
v -1.500000 1.750000 -4.437500
v -1.500000 1.750000 -4.500000
v -1.500000 1.000000 -4.437500
v -1.500000 1.000000 -4.500000
v -0.937500 1.812500 -4.500000
v -0.937500 1.812500 -5.500000
v -0.937500 0.937500 -4.500000
v -0.937500 0.937500 -5.500000
v -1.562500 1.812500 -4.500000
v -1.562500 1.812500 -5.500000
v -1.562500 0.937500 -4.500000
v -1.562500 0.937500 -5.500000
v -1.000000 1.750000 -5.500000
v -1.000000 1.750000 -5.562500
v -1.000000 1.000000 -5.500000
v -1.000000 1.000000 -5.562500
v -1.500000 1.750000 -5.500000
v -1.500000 1.750000 -5.562500
v -1.500000 1.000000 -5.500000
v -1.500000 1.000000 -5.562500
v 1.500000 1.750000 -4.437500
v 1.500000 1.750000 -4.500000
v 1.500000 1.000000 -4.437500
v 1.500000 1.000000 -4.500000
v 1.000000 1.750000 -4.437500
v 1.000000 1.750000 -4.500000
v 1.000000 1.000000 -4.437500
v 1.000000 1.000000 -4.500000
v 1.562500 1.812500 -4.500000
v 1.562500 1.812500 -5.500000
v 1.562500 0.937500 -4.500000
v 1.562500 0.937500 -5.500000
v 0.937500 1.812500 -4.500000
v 0.937500 1.812500 -5.500000
v 0.937500 0.937500 -4.500000
v 0.937500 0.937500 -5.500000
v 1.500000 1.750000 -5.500000
v 1.500000 1.750000 -5.562500
v 1.500000 1.000000 -5.500000
v 1.500000 1.000000 -5.562500
v 1.000000 1.750000 -5.500000
v 1.000000 1.750000 -5.562500
v 1.000000 1.000000 -5.500000
v 1.000000 1.000000 -5.562500
vn 1.0000 -0.0000 -0.0000
vn -1.0000 -0.0000 -0.0000
vn -0.0000 1.0000 -0.0000
vn -0.0000 -1.0000 -0.0000
vn -0.0000 -0.0000 1.0000
vn -0.0000 -0.0000 -1.0000
vn 0.7071 -0.7071 -0.0000
vn -0.7071 0.7071 -0.0000
vn 0.7071 0.7071 -0.0000
vn -0.7071 -0.7071 -0.0000
vt 0.428571 0.607143
vt 0.428571 0.580357
vt 0.196429 0.580357
vt 0.196429 0.607143
vt 0.196429 0.616071
vt 0.428571 0.616071
vt 0.428571 0.598214
vt 0.196429 0.598214
vt 0.053571 0.392857
vt 0.026786 0.392857
vt 0.026786 0.375000
vt 0.053571 0.375000
vt 0.812500 0.656250
vt 0.812500 1.000000
vt 0.500000 1.000000
vt 0.500000 0.656250
vt 0.500000 0.500000
vt 0.812500 0.500000
vt 0.968750 0.656250
vt 0.968750 1.000000
vt 0.312500 0.500000
vt 0.000000 0.500000
vt 0.000000 0.000000
vt 0.312500 0.000000
vt 0.312500 0.812500
vt 0.000000 0.812500
vt 0.687500 1.000000
vt 0.437500 1.000000
vt 0.437500 0.562500
vt 0.687500 0.562500
vt 0.000000 0.562500
vt 0.000000 1.000000
vt 0.750000 0.312500
vt 0.750000 0.562500
vt 0.312500 0.562500
vt 0.312500 0.312500
vt 1.000000 0.687500
vt 1.000000 1.000000
vt 0.687500 0.687500
vt 0.562500 0.375000
vt 0.312500 0.375000
vt 0.562500 0.000000
vt 1.000000 0.250000
vt 1.000000 0.625000
vt 0.562500 0.625000
vt 0.562500 0.250000
vt 1.000000 0.000000
vt 0.291667 0.333333
vt 0.291667 0.416667
vt 0.125000 0.416667
vt 0.125000 0.333333
vt 0.625000 0.000000
vt 0.625000 0.312500
vt 0.937500 0.000000
vt 0.937500 0.312500
vt 0.500000 0.250000
vt 0.750000 0.500000
vt 0.750000 0.250000
vt 0.343750 0.031250
vt 0.343750 0.281250
vt 0.593750 0.281250
vt 0.593750 0.031250
vt 0.656250 0.250000
vt 0.656250 0.000000
vt 0.812500 0.000000
vt 0.812500 0.250000
vt 0.500000 0.000000
vt 0.718750 0.375000
vt 0.718750 0.468750
vt 0.625000 0.468750
vt 0.625000 0.375000
vt 0.812500 0.375000
vt 0.812500 0.468750
vt 0.687500 0.625000
vt 0.718750 0.687500
vt 0.718750 0.625000
vt 0.906250 0.375000
vt 0.812500 0.531250
vt 0.906250 0.531250
vt 0.750000 0.375000
vt 0.750000 0.531250
vt 0.000000 0.062500
vt 0.000000 0.187500
vt 0.062500 0.187500
vt 0.062500 0.062500
vt 0.718750 0.062500
vt 0.718750 0.000000
vt 0.187500 0.062500
vt 0.187500 0.125000
vt 0.250000 0.125000
vt 0.250000 0.062500
vt 0.125000 0.062500
vt 0.125000 0.125000
vt 0.718750 0.125000
vt 0.312500 0.062500
vt 0.312500 0.125000
vt 0.312500 0.187500
vt 0.375000 0.187500
vt 0.375000 0.125000
vt 0.428571 0.017857
vt 0.428571 0.125000
vt 0.419643 0.125000
vt 0.419643 0.017857
vt 0.366071 0.017857
vt 0.366071 0.125000
vt 0.357143 0.125000
vt 0.357143 0.017857
vt 0.428571 0.116071
vt 0.357143 0.116071
vt 0.428571 0.026786
vt 0.357143 0.026786
vt 0.357143 0.062500
vt 0.357143 0.187500
vt 0.214286 0.187500
vt 0.214286 0.062500
vt 0.357143 0.473214
vt 0.214286 0.473214
vt 0.214286 0.562500
vt 0.357143 0.562500
vt 0.482143 0.473214
vt 0.482143 0.562500
vt 0.571429 0.312500
vt 0.571429 0.419643
vt 0.562500 0.419643
vt 0.562500 0.312500
vt 0.633929 0.312500
vt 0.633929 0.419643
vt 0.625000 0.419643
vt 0.562500 0.410714
vt 0.633929 0.410714
vt 0.562500 0.321429
vt 0.633929 0.321429
s 1
usemtl xl_textures
f 4/1/1 2/2/1 1/3/1 3/4/1
f 7/3/2 5/4/2 6/1/2 8/2/2
f 1/5/3 2/6/3 6/7/3 5/8/3
f 4/7/4 3/8/4 7/5/4 8/6/4
f 3/9/5 1/10/5 5/11/5 7/12/5
f 12/2/1 10/1/1 9/4/1 11/3/1
f 15/4/2 13/3/2 14/2/2 16/1/2
f 9/8/3 10/7/3 14/6/3 13/5/3
f 12/6/4 11/5/4 15/8/4 16/7/4
f 11/12/5 9/11/5 13/10/5 15/9/5
f 300/100/1 298/101/1 297/102/1 299/103/1
f 303/104/2 301/105/2 302/106/2 304/107/2
f 297/108/3 298/101/3 302/106/3 301/109/3
f 300/100/4 299/110/4 303/111/4 304/107/4
f 299/100/5 297/101/5 301/106/5 303/107/5
f 308/112/1 306/113/1 305/114/1 307/115/1
f 311/115/2 309/114/2 310/113/2 312/112/2
f 305/116/3 306/117/3 310/118/3 309/119/3
f 308/116/4 307/117/4 311/118/4 312/119/4
f 307/120/5 305/116/5 309/119/5 311/121/5
f 312/120/6 310/116/6 306/119/6 308/121/6
f 316/122/1 314/123/1 313/124/1 315/125/1
f 319/126/2 317/127/2 318/128/2 320/53/2
f 313/129/3 314/124/3 318/127/3 317/130/3
f 316/125/4 315/131/4 319/132/4 320/126/4
f 320/126/6 318/127/6 314/124/6 316/125/6
f 324/107/1 322/106/1 321/105/1 323/104/1
f 327/103/2 325/102/2 326/101/2 328/100/2
f 321/109/3 322/106/3 326/101/3 325/108/3
f 324/107/4 323/111/4 327/110/4 328/100/4
f 323/107/5 321/106/5 325/101/5 327/100/5
f 332/112/1 330/113/1 329/114/1 331/115/1
f 335/115/2 333/114/2 334/113/2 336/112/2
f 329/119/3 330/118/3 334/117/3 333/116/3
f 332/119/4 331/118/4 335/117/4 336/116/4
f 331/121/5 329/119/5 333/116/5 335/120/5
f 336/121/6 334/119/6 330/116/6 332/120/6
f 340/53/1 338/128/1 337/127/1 339/126/1
f 343/125/2 341/124/2 342/123/2 344/122/2
f 337/130/3 338/127/3 342/124/3 341/129/3
f 340/126/4 339/132/4 343/131/4 344/125/4
f 344/125/6 342/124/6 338/127/6 340/126/6
usemtl piston
f 20/13/1 18/14/1 17/15/1 19/16/1
f 23/13/2 21/14/2 22/15/2 24/16/2
f 17/13/3 18/16/3 22/17/3 21/18/3
f 20/13/4 19/16/4 23/17/4 24/18/4
f 19/19/5 17/20/5 21/14/5 23/13/5
f 24/19/6 22/20/6 18/14/6 20/13/6
f 28/13/1 26/14/1 25/15/1 27/16/1
f 31/13/2 29/14/2 30/15/2 32/16/2
f 25/13/3 26/16/3 30/17/3 29/18/3
f 28/13/4 27/16/4 31/17/4 32/18/4
f 27/19/5 25/20/5 29/14/5 31/13/5
f 32/19/6 30/20/6 26/14/6 28/13/6
f 36/13/1 34/14/1 33/15/1 35/16/1
f 39/13/2 37/14/2 38/15/2 40/16/2
f 33/13/3 34/16/3 38/17/3 37/18/3
f 36/13/4 35/16/4 39/17/4 40/18/4
f 35/19/5 33/20/5 37/14/5 39/13/5
f 40/19/6 38/20/6 34/14/6 36/13/6
f 44/13/1 42/14/1 41/15/1 43/16/1
f 47/13/2 45/14/2 46/15/2 48/16/2
f 41/13/3 42/16/3 46/17/3 45/18/3
f 44/13/4 43/16/4 47/17/4 48/18/4
f 43/19/5 41/20/5 45/14/5 47/13/5
f 48/19/6 46/20/6 42/14/6 44/13/6
f 116/56/1 114/17/1 113/57/1 115/58/1
f 113/63/3 114/64/3 118/65/3 117/66/3
f 116/67/4 115/56/4 119/63/4 120/64/4
f 115/64/5 113/63/5 117/66/5 119/65/5
f 120/64/6 118/63/6 114/56/6 116/67/6
f 132/56/1 130/17/1 129/57/1 131/58/1
f 129/64/3 130/63/3 134/66/3 133/65/3
f 132/67/4 131/56/4 135/63/4 136/64/4
f 131/64/5 129/63/5 133/56/5 135/67/5
f 136/64/6 134/63/6 130/66/6 132/65/6
f 143/56/2 141/17/2 142/57/2 144/58/2
f 137/64/3 138/63/3 142/66/3 141/65/3
f 140/67/4 139/56/4 143/63/4 144/64/4
f 139/64/5 137/63/5 141/56/5 143/67/5
f 144/64/6 142/63/6 138/66/6 140/65/6
f 167/56/2 165/17/2 166/57/2 168/58/2
f 161/63/3 162/64/3 166/65/3 165/66/3
f 164/67/4 163/56/4 167/63/4 168/64/4
f 163/64/5 161/63/5 165/66/5 167/65/5
f 168/64/6 166/63/6 162/56/6 164/67/6
usemtl small_frame
f 52/21/1 50/22/1 49/23/1 51/24/1
f 55/21/2 53/22/2 54/23/2 56/24/2
f 49/24/3 50/21/3 54/22/3 53/23/3
f 52/24/4 51/21/4 55/22/4 56/23/4
f 51/21/5 49/25/5 53/26/5 55/22/5
f 56/21/6 54/25/6 50/26/6 52/22/6
f 76/40/1 74/41/1 73/24/1 75/42/1
f 79/40/2 77/41/2 78/24/2 80/42/2
f 73/43/3 74/44/3 78/45/3 77/46/3
f 76/43/4 75/44/4 79/45/4 80/46/4
f 75/47/5 73/43/5 77/46/5 79/42/5
f 80/47/6 78/43/6 74/46/6 76/42/6
usemtl frame
f 60/27/1 58/28/1 57/29/1 59/30/1
f 63/27/2 61/28/2 62/29/2 64/30/2
f 57/31/3 58/32/3 62/28/3 61/29/3
f 60/31/4 59/32/4 63/28/4 64/29/4
f 59/33/5 57/34/5 61/35/5 63/36/5
f 64/33/6 62/34/6 58/35/6 60/36/6
f 68/35/1 66/31/1 65/23/1 67/24/1
f 71/35/2 69/31/2 70/23/2 72/24/2
f 65/24/3 66/35/3 70/31/3 69/23/3
f 68/24/4 67/35/4 71/31/4 72/23/4
f 67/37/5 65/38/5 69/27/5 71/39/5
f 72/37/6 70/38/6 66/27/6 68/39/6
f 84/27/1 82/28/1 81/29/1 83/30/1
f 87/27/2 85/28/2 86/29/2 88/30/2
f 81/31/3 82/32/3 86/28/3 85/29/3
f 84/31/4 83/32/4 87/28/4 88/29/4
f 83/33/5 81/34/5 85/35/5 87/36/5
f 88/33/6 86/34/6 82/35/6 84/36/6
f 92/35/1 90/31/1 89/23/1 91/24/1
f 95/35/2 93/31/2 94/23/2 96/24/2
f 89/24/3 90/35/3 94/31/3 93/23/3
f 92/24/4 91/35/4 95/31/4 96/23/4
f 91/37/5 89/38/5 93/27/5 95/39/5
f 96/37/6 94/38/6 90/27/6 92/39/6
f 108/52/1 106/53/1 105/36/1 107/24/1
f 111/52/2 109/53/2 110/36/2 112/24/2
f 105/54/3 106/55/3 110/53/3 109/52/3
f 108/54/4 107/55/4 111/53/4 112/52/4
f 107/52/5 105/53/5 109/36/5 111/24/5
f 112/54/6 110/55/6 106/53/6 108/52/6
f 119/59/2 117/60/2 118/61/2 120/62/2
f 135/59/2 133/60/2 134/61/2 136/62/2
f 140/59/1 138/60/1 137/61/1 139/62/1
f 148/52/1 146/53/1 145/36/1 147/24/1
f 151/52/2 149/53/2 150/36/2 152/24/2
f 145/54/3 146/55/3 150/53/3 149/52/3
f 148/54/4 147/55/4 151/53/4 152/52/4
f 147/54/5 145/55/5 149/53/5 151/52/5
f 152/52/6 150/53/6 146/36/6 148/24/6
f 164/59/1 162/60/1 161/61/1 163/62/1
f 172/74/7 170/39/7 169/75/7 171/76/7
f 175/74/8 173/39/8 174/75/8 176/76/8
f 169/77/9 170/72/9 174/78/9 173/79/9
f 172/77/10 171/72/10 175/78/10 176/79/10
f 171/72/5 169/80/5 173/81/5 175/78/5
f 176/72/6 174/80/6 170/81/6 172/78/6
f 180/74/7 178/39/7 177/75/7 179/76/7
f 183/74/8 181/39/8 182/75/8 184/76/8
f 177/77/9 178/72/9 182/78/9 181/79/9
f 180/77/10 179/72/10 183/78/10 184/79/10
f 179/72/5 177/80/5 181/81/5 183/78/5
f 184/72/6 182/80/6 178/81/6 180/78/6
f 188/74/7 186/39/7 185/75/7 187/76/7
f 191/74/8 189/39/8 190/75/8 192/76/8
f 185/77/9 186/72/9 190/78/9 189/79/9
f 188/77/10 187/72/10 191/78/10 192/79/10
f 187/72/5 185/80/5 189/81/5 191/78/5
f 192/72/6 190/80/6 186/81/6 188/78/6
f 196/76/9 194/75/9 193/39/9 195/74/9
f 199/76/10 197/75/10 198/39/10 200/74/10
f 193/79/8 194/78/8 198/72/8 197/77/8
f 196/79/7 195/78/7 199/72/7 200/77/7
f 195/78/5 193/81/5 197/80/5 199/72/5
f 200/78/6 198/81/6 194/80/6 196/72/6
f 204/76/9 202/75/9 201/39/9 203/74/9
f 207/76/10 205/75/10 206/39/10 208/74/10
f 201/79/8 202/78/8 206/72/8 205/77/8
f 204/79/7 203/78/7 207/72/7 208/77/7
f 203/78/5 201/81/5 205/80/5 207/72/5
f 208/78/6 206/81/6 202/80/6 204/72/6
f 212/76/9 210/75/9 209/39/9 211/74/9
f 215/76/10 213/75/10 214/39/10 216/74/10
f 209/79/8 210/78/8 214/72/8 213/77/8
f 212/79/7 211/78/7 215/72/7 216/77/7
f 211/78/5 209/81/5 213/80/5 215/72/5
f 216/78/6 214/81/6 210/80/6 212/72/6
f 220/76/9 218/75/9 217/39/9 219/74/9
f 223/76/10 221/75/10 222/39/10 224/74/10
f 217/79/8 218/78/8 222/72/8 221/77/8
f 220/79/7 219/78/7 223/72/7 224/77/7
f 219/78/5 217/81/5 221/80/5 223/72/5
f 224/78/6 222/81/6 218/80/6 220/72/6
f 228/74/7 226/39/7 225/75/7 227/76/7
f 231/74/8 229/39/8 230/75/8 232/76/8
f 225/77/9 226/72/9 230/78/9 229/79/9
f 228/77/10 227/72/10 231/78/10 232/79/10
f 227/72/5 225/80/5 229/81/5 231/78/5
f 232/72/6 230/80/6 226/81/6 228/78/6
usemtl trailing_bogey_base
f 100/48/1 98/49/1 97/50/1 99/51/1
f 103/48/2 101/49/2 102/50/2 104/51/2
f 99/48/5 97/49/5 101/50/5 103/51/5
f 104/48/6 102/49/6 98/50/6 100/51/6
usemtl wheels
f 124/68/1 122/69/1 121/70/1 123/71/1
f 127/68/2 125/69/2 126/70/2 128/71/2
f 121/72/3 122/73/3 126/69/3 125/68/3
f 123/68/5 121/69/5 125/70/5 127/71/5
f 128/68/6 126/69/6 122/70/6 124/71/6
f 156/68/1 154/69/1 153/70/1 155/71/1
f 159/68/2 157/69/2 158/70/2 160/71/2
f 153/72/3 154/73/3 158/69/3 157/68/3
f 155/68/5 153/69/5 157/70/5 159/71/5
f 160/68/6 158/69/6 154/70/6 156/71/6
usemtl extras
f 236/82/1 234/83/1 233/84/1 235/85/1
f 239/82/2 237/83/2 238/84/2 240/85/2
f 235/82/5 233/83/5 237/84/5 239/85/5
f 240/82/6 238/83/6 234/84/6 236/85/6
f 244/86/1 242/87/1 241/23/1 243/82/1
f 247/23/2 245/82/2 246/86/2 248/87/2
f 241/23/3 242/87/3 246/86/3 245/82/3
f 244/86/4 243/82/4 247/23/4 248/87/4
f 243/88/5 241/89/5 245/90/5 247/91/5
f 248/92/6 246/93/6 242/89/6 244/88/6
f 252/94/1 250/86/1 249/95/1 251/96/1
f 255/95/2 253/96/2 254/94/2 256/86/2
f 249/95/3 250/86/3 254/94/3 253/96/3
f 252/95/4 251/86/4 255/94/4 256/96/4
f 251/91/5 249/90/5 253/96/5 255/95/5
f 256/92/6 254/93/6 250/89/6 252/88/6
f 260/96/1 258/97/1 257/98/1 259/99/1
f 263/96/2 261/97/2 262/98/2 264/99/2
f 259/96/5 257/97/5 261/98/5 263/99/5
f 264/96/6 262/97/6 258/98/6 260/99/6
f 268/85/1 266/84/1 265/83/1 267/82/1
f 271/85/2 269/84/2 270/83/2 272/82/2
f 267/85/5 265/84/5 269/83/5 271/82/5
f 272/85/6 270/84/6 266/83/6 268/82/6
f 276/87/1 274/86/1 273/82/1 275/23/1
f 279/82/2 277/23/2 278/87/2 280/86/2
f 273/82/3 274/86/3 278/87/3 277/23/3
f 276/87/4 275/23/4 279/82/4 280/86/4
f 275/91/5 273/90/5 277/89/5 279/88/5
f 280/88/6 278/89/6 274/93/6 276/92/6
f 284/99/1 282/98/1 281/97/1 283/96/1
f 287/99/2 285/98/2 286/97/2 288/96/2
f 283/99/5 281/98/5 285/97/5 287/96/5
f 288/99/6 286/98/6 282/97/6 284/96/6
f 292/86/1 290/94/1 289/96/1 291/95/1
f 295/96/2 293/95/2 294/86/2 296/94/2
f 289/96/3 290/94/3 294/86/3 293/95/3
f 292/96/4 291/94/4 295/86/4 296/95/4
f 291/95/5 289/96/5 293/90/5 295/91/5
f 296/88/6 294/89/6 290/93/6 292/92/6
