# Made in Blockbench 5.0.3
mtllib wheels_b_single.mtl

o Cube.003
v -0.75 4.622231866529366e-33 -2.296212748401287e-17
v -0.7499999999999999 0.2588831249999999 0.6250000000000001
v -0.7499999999999999 -1.3877787807814457e-16 0.625
v -1.0625 -1.3877787807814457e-16 0.625
v -1.0625 -0.23299500000000012 0.5625
v -1.0625 -0.2588831250000001 0.6249999999999999
v -0.7499999999999999 -0.2588831250000001 0.6249999999999999
v -1.0625 0.2329949999999999 0.5625
v -1.0625 0.2588831249999999 0.6250000000000001
v -1.0625 -1.249000902703301e-16 0.5625
v -0.75 0.6249999999999999 0.2588837500000002
v -0.75 0.4419418749999999 0.4419418750000001
v -1.0625 0.4419418749999999 0.4419418750000001
v -1.0625 0.5625 0.23299500000000017
v -1.0625 0.6249999999999999 0.2588837500000002
v -1.0625 0.3977481249999999 0.3977481250000001
v -0.75 0.6250000000000001 -0.2588831249999999
v -0.75 0.625 1.158157505941317e-16
v -1.0625 0.625 1.5408596306748649e-16
v -1.0625 0.5625 -0.23299499999999984
v -1.0625 0.6250000000000001 -0.2588831249999999
v -1.0625 0.5625 1.4020817525967203e-16
v -0.7500000000000001 0.2588837500000002 -0.6249999999999999
v -0.75 0.4419418750000001 -0.4419418749999999
v -1.0625 0.4419418750000001 -0.4419418749999999
v -1.0625 0.23299500000000012 -0.5625
v -1.0625 0.2588837500000002 -0.6249999999999999
v -1.0625 0.3977481250000001 -0.3977468749999999
v -0.7500000000000001 -0.2588831249999999 -0.6250000000000001
v -0.7500000000000001 1.3877787807814457e-16 -0.625
v -1.0625 1.3877787807814457e-16 -0.625
v -1.0625 -0.2329949999999999 -0.5625
v -1.0625 -0.2588831249999999 -0.6250000000000001
v -1.0625 1.249000902703301e-16 -0.5625
v -0.75 -0.6249999999999999 -0.2588837500000002
v -0.75 -0.4419418749999999 -0.4419418750000001
v -1.0625 -0.4419418749999999 -0.4419418750000001
v -1.0625 -0.5625 -0.23299500000000012
v -1.0625 -0.6249999999999999 -0.2588837500000002
v -1.0625 -0.3977468749999999 -0.3977481250000001
v -0.75 -0.6250000000000001 0.2588831249999999
v -0.75 -0.625 -1.6174000556215743e-16
v -1.0625 -0.625 -1.2346979308880265e-16
v -1.0625 -0.5625 0.2329949999999999
v -1.0625 -0.6250000000000001 0.2588831249999999
v -1.0625 -0.5625 -1.0959200528098819e-16
v -0.7499999999999999 -0.2588837500000002 0.6249999999999999
v -0.75 -0.4419418750000001 0.4419418749999999
v -1.0625 -0.4419418750000001 0.4419418749999999
v -1.0625 -0.2588837500000002 0.6249999999999999
v -1.0625 -0.3977481250000001 0.3977468749999999
v -1.0625 0.23299500000000006 -0.23299499999999992
v -1.0625 0.23299499999999995 0.2329950000000001
v -1.0625 -0.23299499999999995 -0.23299500000000004
v -1.0625 -0.23299500000000006 0.23299499999999998
v -1.0625 5.173528272450767e-17 -0.23299499999999998
v -1.0625 -5.173528272450767e-17 0.23299500000000004
v -1.0625 0.232995 6.704336771384959e-17
v -1.0625 -3.0814879110195774e-33 1.5308084989341915e-17
v -1.0625 -0.232995 -3.6427197735165753e-17
v 0.75 -2.2962127484012868e-17 -5.09861652542584e-33
v 0.75 0.625 -0.258883125
v 0.75 0.625 7.654042494670957e-17
v 1.0625 0.625 7.654042494670957e-17
v 1.0625 0.5625 0.23299500000000006
v 1.0625 0.625 0.2588831250000001
v 0.75 0.625 0.25888312500000005
v 1.0625 0.5625 -0.23299499999999995
v 1.0625 0.625 -0.25888312499999994
v 1.0625 0.5625 6.888638245203862e-17
v 0.75 0.25888375000000013 -0.625
v 0.75 0.44194187500000004 -0.44194187499999993
v 1.0625 0.44194187500000004 -0.4419418749999999
v 1.0625 0.23299500000000006 -0.5625
v 1.0625 0.2588837500000001 -0.6249999999999999
v 1.0625 0.39774812500000006 -0.3977481249999999
v 0.75 -0.258883125 -0.6250000000000001
v 0.75 5.35782974626967e-17 -0.625
v 1.0625 9.18485099360515e-17 -0.625
v 1.0625 -0.23299499999999995 -0.5624999999999999
v 1.0625 -0.258883125 -0.625
v 1.0625 8.419446744138054e-17 -0.5625
v 0.75 -0.625 -0.25888375000000013
v 0.75 -0.44194187499999993 -0.4419418750000001
v 1.0625 -0.44194187499999993 -0.44194187500000004
v 1.0625 -0.5625 -0.23299500000000006
v 1.0625 -0.625 -0.2588837500000001
v 1.0625 -0.39774687499999994 -0.39774812500000006
v 0.75 -0.625 0.25888312499999994
v 0.75 -0.625 -7.654042494670957e-17
v 1.0625 -0.625 -7.654042494670952e-17
v 1.0625 -0.5625 0.23299499999999995
v 1.0625 -0.625 0.258883125
v 1.0625 -0.5625 -6.888638245203857e-17
v 0.75 -0.2588837500000001 0.6249999999999999
v 0.75 -0.44194187500000004 0.4419418749999999
v 1.0625 -0.44194187500000004 0.44194187499999993
v 1.0625 -0.23299500000000004 0.5625000000000001
v 1.0625 -0.25888375000000013 0.625
v 1.0625 -0.39774812500000006 0.39774687499999994
v 0.75 0.258883125 0.625
v 0.75 -9.950255243072246e-17 0.625
v 1.0625 -6.123233995736766e-17 0.625
v 1.0625 0.232995 0.5625
v 1.0625 0.258883125 0.6250000000000001
v 1.0625 -5.35782974626967e-17 0.5625
v 0.75 0.625 0.2588837500000001
v 0.75 0.44194187499999993 0.44194187500000004
v 1.0625 0.44194187499999993 0.4419418750000001
v 1.0625 0.625 0.25888375000000013
v 1.0625 0.39774687499999994 0.3977481250000001
v 1.0625 -0.23299499999999995 -0.23299500000000004
v 1.0625 0.23299500000000006 -0.23299499999999998
v 1.0625 -0.232995 0.23299499999999998
v 1.0625 0.232995 0.23299500000000004
v 1.0625 -0.23299499999999998 -2.853365809673374e-17
v 1.0625 0.23299500000000004 2.853365809673375e-17
v 1.0625 4.3841743086075675e-17 -0.232995
v 1.0625 1.5308084989341915e-17 3.399077683617229e-33
v 1.0625 -1.3225573107391845e-17 0.232995
vt 0.8125 0.53125
vt 0.9419959821428572 0.8438809821428571
vt 0.8125 0.8438809821428571
vt 0.8125 0.8438159821428571
vt 0.6959540178571428 0.8126180357142857
vt 0.6830040178571428 0.8438809821428571
vt 0.9419419642857143 1
vt 0.8125 0.8438159821428571
vt 0.8125 1
vt 0.8125 1
vt 0.6830580357142857 0.84375
vt 0.6830580357142857 1
vt 0.9290469642857142 0.8126180357142857
vt 0.8125 0.8438159821428571
vt 0.9419959821428572 0.8438809821428571
vt 0.6830040178571428 0.8438809821428571
vt 0.8125 0.53125
vt 0.8125 0.8438809821428571
vt 0.8125 0.8438159821428571
vt 0.8125 0.8126180357142857
vt 0.6959540178571428 0.8126180357142857
vt 0.9419419642857143 1
vt 0.9419419642857143 0.84375
vt 0.8125 0.8438159821428571
vt 0.8125 1
vt 0.8125 0.8438159821428571
vt 0.6830580357142857 0.84375
vt 0.9290469642857142 0.8126180357142857
vt 0.8125 0.8126180357142857
vt 0.8125 0.8438159821428571
vt 0.8125 0.53125
vt 0.9419959821428572 0.8438809821428571
vt 0.8125 0.8438809821428571
vt 0.8125 0.8438159821428571
vt 0.6959540178571428 0.8126180357142857
vt 0.6830040178571428 0.8438809821428571
vt 0.9419419642857143 1
vt 0.8125 0.8438159821428571
vt 0.8125 1
vt 0.8125 1
vt 0.6830580357142857 0.84375
vt 0.6830580357142857 1
vt 0.9290469642857142 0.8126180357142857
vt 0.8125 0.8438159821428571
vt 0.9419959821428572 0.8438809821428571
vt 0.6830040178571428 0.8438809821428571
vt 0.8125 0.53125
vt 0.8125 0.8438809821428571
vt 0.8125 0.8438159821428571
vt 0.8125 0.8126180357142857
vt 0.6959540178571428 0.8126180357142857
vt 0.9419419642857143 1
vt 0.9419419642857143 0.84375
vt 0.8125 0.8438159821428571
vt 0.8125 1
vt 0.8125 0.8438159821428571
vt 0.6830580357142857 0.84375
vt 0.9290469642857142 0.8126180357142857
vt 0.8125 0.8126180357142857
vt 0.8125 0.8438159821428571
vt 0.8125 0.53125
vt 0.9419959821428572 0.8438809821428571
vt 0.8125 0.8438809821428571
vt 0.8125 0.8438159821428571
vt 0.6959540178571428 0.8126180357142857
vt 0.6830040178571428 0.8438809821428571
vt 0.9419419642857143 1
vt 0.8125 0.8438159821428571
vt 0.8125 1
vt 0.8125 1
vt 0.6830580357142857 0.84375
vt 0.6830580357142857 1
vt 0.9290469642857142 0.8126180357142857
vt 0.8125 0.8438159821428571
vt 0.9419959821428572 0.8438809821428571
vt 0.6830040178571428 0.8438809821428571
vt 0.8125 0.53125
vt 0.8125 0.8438809821428571
vt 0.8125 0.8438159821428571
vt 0.8125 0.8126180357142857
vt 0.6959540178571428 0.8126180357142857
vt 0.9419419642857143 1
vt 0.9419419642857143 0.84375
vt 0.8125 0.8438159821428571
vt 0.8125 1
vt 0.8125 0.8438159821428571
vt 0.6830580357142857 0.84375
vt 0.9290469642857142 0.8126180357142857
vt 0.8125 0.8126180357142857
vt 0.8125 0.8438159821428571
vt 0.8125 0.53125
vt 0.9419959821428572 0.8438809821428571
vt 0.8125 0.8438809821428571
vt 0.8125 0.8438159821428571
vt 0.6959540178571428 0.8126180357142857
vt 0.6830040178571428 0.8438809821428571
vt 0.9419419642857143 1
vt 0.8125 0.8438159821428571
vt 0.8125 1
vt 0.8125 1
vt 0.6830580357142857 0.84375
vt 0.6830580357142857 1
vt 0.9290469642857142 0.8126180357142857
vt 0.8125 0.8438159821428571
vt 0.9419959821428572 0.8438809821428571
vt 0.6830040178571428 0.8438809821428571
vt 0.8125 0.53125
vt 0.8125 0.8438809821428571
vt 0.8125 0.8438159821428571
vt 0.8125 0.8126180357142857
vt 0.6959540178571428 0.8126180357142857
vt 0.9419419642857143 1
vt 0.9419419642857143 0.84375
vt 0.8125 0.8438159821428571
vt 0.8125 1
vt 0.8125 0.8438159821428571
vt 0.6830580357142857 0.84375
vt 0.9290469642857142 0.8126180357142857
vt 0.8125 0.8126180357142857
vt 0.8125 0.8438159821428571
vt 0.8125 0.53125
vt 0.9419959821428572 0.8438809821428571
vt 0.8125 0.8438809821428571
vt 0.8125 0.8438159821428571
vt 0.6959540178571428 0.8126180357142857
vt 0.6830040178571428 0.8438809821428571
vt 0.9419419642857143 1
vt 0.8125 0.8438159821428571
vt 0.8125 1
vt 0.8125 1
vt 0.6830580357142857 0.84375
vt 0.6830580357142857 1
vt 0.9290469642857142 0.8126180357142857
vt 0.8125 0.8438159821428571
vt 0.9419959821428572 0.8438809821428571
vt 0.6830040178571428 0.8438809821428571
vt 0.8125 0.53125
vt 0.8125 0.8438809821428571
vt 0.8125 0.8438159821428571
vt 0.8125 0.8126180357142857
vt 0.6959540178571428 0.8126180357142857
vt 0.9419419642857143 1
vt 0.9419419642857143 0.84375
vt 0.8125 0.8438159821428571
vt 0.8125 1
vt 0.8125 0.8438159821428571
vt 0.6830580357142857 0.84375
vt 0.9290469642857142 0.8126180357142857
vt 0.8125 0.8126180357142857
vt 0.8125 0.8438159821428571
vt 0.8125 0.53125
vt 0.9419959821428572 0.8438809821428571
vt 0.8125 0.8438809821428571
vt 0.8125 0.8438159821428571
vt 0.6959540178571428 0.8126180357142857
vt 0.6830040178571428 0.8438809821428571
vt 0.9419419642857143 1
vt 0.8125 0.8438159821428571
vt 0.8125 1
vt 0.8125 1
vt 0.6830580357142857 0.84375
vt 0.6830580357142857 1
vt 0.9290469642857142 0.8126180357142857
vt 0.8125 0.8438159821428571
vt 0.9419959821428572 0.8438809821428571
vt 0.6830040178571428 0.8438809821428571
vt 0.8125 0.53125
vt 0.8125 0.8438809821428571
vt 0.8125 0.8438159821428571
vt 0.8125 0.8126180357142857
vt 0.6959540178571428 0.8126180357142857
vt 0.9419419642857143 1
vt 0.9419419642857143 0.84375
vt 0.8125 0.8438159821428571
vt 0.8125 1
vt 0.8125 0.8438159821428571
vt 0.6830580357142857 0.84375
vt 0.9290469642857142 0.8126180357142857
vt 0.8125 0.8126180357142857
vt 0.8125 0.8438159821428571
vt 0.8125 0.53125
vt 0.9419959821428572 0.8438809821428571
vt 0.8125 0.8438809821428571
vt 0.8125 0.8438159821428571
vt 0.6959540178571428 0.8126180357142857
vt 0.6830040178571428 0.8438809821428571
vt 0.9419419642857143 1
vt 0.8125 0.8438159821428571
vt 0.8125 1
vt 0.8125 1
vt 0.6830580357142857 0.84375
vt 0.6830580357142857 1
vt 0.9290469642857142 0.8126180357142857
vt 0.8125 0.8438159821428571
vt 0.9419959821428572 0.8438809821428571
vt 0.6830040178571428 0.8438809821428571
vt 0.8125 0.53125
vt 0.8125 0.8438809821428571
vt 0.8125 0.8438159821428571
vt 0.8125 0.8126180357142857
vt 0.6959540178571428 0.8126180357142857
vt 0.9419419642857143 1
vt 0.9419419642857143 0.84375
vt 0.8125 0.8438159821428571
vt 0.8125 1
vt 0.8125 0.8438159821428571
vt 0.6830580357142857 0.84375
vt 0.9290469642857142 0.8126180357142857
vt 0.8125 0.8126180357142857
vt 0.8125 0.8438159821428571
vt 0.8125 0.53125
vt 0.9419959821428572 0.8438809821428571
vt 0.8125 0.8438809821428571
vt 0.8125 0.8438159821428571
vt 0.6959540178571428 0.8126180357142857
vt 0.6830040178571428 0.8438809821428571
vt 0.9419419642857143 1
vt 0.8125 0.8438159821428571
vt 0.8125 1
vt 0.8125 1
vt 0.6830580357142857 0.84375
vt 0.6830580357142857 1
vt 0.9290469642857142 0.8126180357142857
vt 0.8125 0.8438159821428571
vt 0.9419959821428572 0.8438809821428571
vt 0.6830040178571428 0.8438809821428571
vt 0.8125 0.53125
vt 0.8125 0.8438809821428571
vt 0.8125 0.8438159821428571
vt 0.8125 0.8126180357142857
vt 0.6959540178571428 0.8126180357142857
vt 0.9419419642857143 1
vt 0.9419419642857143 0.84375
vt 0.8125 0.8438159821428571
vt 0.8125 1
vt 0.8125 0.8438159821428571
vt 0.6830580357142857 0.84375
vt 0.9290469642857142 0.8126180357142857
vt 0.8125 0.8126180357142857
vt 0.8125 0.8438159821428571
vt 0.42899803571428574 0.5710019642857143
vt 0.5113740178571429 0.48862598214285713
vt 0.42899803571428574 0.40625
vt 0.42899803571428574 0.8039980357142857
vt 0.5113740178571429 0.8863740178571429
vt 0.59375 0.8039980357142857
vt 0.1960019642857143 0.5710019642857143
vt 0.11362598214285714 0.48862598214285713
vt 0.03125 0.5710019642857143
vt 0.11362598214285714 0.8863740178571429
vt 0.1960019642857143 0.8039980357142857
vt 0.03125 0.8039980357142857
vt 0.42899803571428574 0.5710019642857143
vt 0.3125 0.40625
vt 0.3125 0.5710019642857143
vt 0.42899803571428574 0.96875
vt 0.3125 0.8039980357142857
vt 0.3125 0.96875
vt 0.42899803571428574 0.6875
vt 0.3125 0.5710019642857143
vt 0.3125 0.6875
vt 0.1960019642857143 0.6875
vt 0.03125 0.5710019642857143
vt 0.03125 0.6875
vt 0.59375 0.6875
vt 0.42899803571428574 0.5710019642857143
vt 0.42899803571428574 0.6875
vt 0.42899803571428574 0.8039980357142857
vt 0.3125 0.6875
vt 0.3125 0.8039980357142857
vt 0.1960019642857143 0.8039980357142857
vt 0.03125 0.6875
vt 0.03125 0.8039980357142857
vt 0.59375 0.8039980357142857
vt 0.42899803571428574 0.6875
vt 0.42899803571428574 0.8039980357142857
vt 0.1960019642857143 0.8039980357142857
vt 0.3125 0.6875
vt 0.1960019642857143 0.6875
vt 0.3125 0.6875
vt 0.1960019642857143 0.5710019642857143
vt 0.1960019642857143 0.6875
vt 0.3125 0.5710019642857143
vt 0.1960019642857143 0.40625
vt 0.1960019642857143 0.5710019642857143
vt 0.1960019642857143 0.96875
vt 0.3125 0.8039980357142857
vt 0.1960019642857143 0.8039980357142857
vt 0.42899803571428574 0.5710019642857143
vt 0.42899803571428574 0.40625
vt 0.3125 0.40625
vt 0.42899803571428574 0.96875
vt 0.42899803571428574 0.8039980357142857
vt 0.3125 0.8039980357142857
vt 0.42899803571428574 0.6875
vt 0.42899803571428574 0.5710019642857143
vt 0.3125 0.5710019642857143
vt 0.1960019642857143 0.6875
vt 0.1960019642857143 0.5710019642857143
vt 0.03125 0.5710019642857143
vt 0.59375 0.6875
vt 0.59375 0.5710019642857143
vt 0.42899803571428574 0.5710019642857143
vt 0.42899803571428574 0.8039980357142857
vt 0.42899803571428574 0.6875
vt 0.3125 0.6875
vt 0.1960019642857143 0.8039980357142857
vt 0.1960019642857143 0.6875
vt 0.03125 0.6875
vt 0.59375 0.8039980357142857
vt 0.59375 0.6875
vt 0.42899803571428574 0.6875
vt 0.1960019642857143 0.8039980357142857
vt 0.3125 0.8039980357142857
vt 0.3125 0.6875
vt 0.3125 0.6875
vt 0.3125 0.5710019642857143
vt 0.1960019642857143 0.5710019642857143
vt 0.3125 0.5710019642857143
vt 0.3125 0.40625
vt 0.1960019642857143 0.40625
vt 0.1960019642857143 0.96875
vt 0.3125 0.96875
vt 0.3125 0.8039980357142857
vt 0.42899803571428574 0.5710019642857143
vt 0.59375 0.5710019642857143
vt 0.5113740178571429 0.48862598214285713
vt 0.42899803571428574 0.8039980357142857
vt 0.42899803571428574 0.96875
vt 0.5113740178571429 0.8863740178571429
vt 0.1960019642857143 0.5710019642857143
vt 0.1960019642857143 0.40625
vt 0.11362598214285714 0.48862598214285713
vt 0.11362598214285714 0.8863740178571429
vt 0.1960019642857143 0.96875
vt 0.1960019642857143 0.8039980357142857
vt 0.9419959821428572 0.8438809821428571
vt 0.8125 0.53125
vt 0.8125 0.8438809821428571
vt 0.6959540178571428 0.8126180357142857
vt 0.8125 0.8438159821428571
vt 0.6830040178571428 0.8438809821428571
vt 0.8125 0.8438159821428571
vt 0.9419419642857143 1
vt 0.8125 1
vt 0.6830580357142857 0.84375
vt 0.8125 1
vt 0.6830580357142857 1
vt 0.8125 0.8438159821428571
vt 0.9290469642857142 0.8126180357142857
vt 0.9419959821428572 0.8438809821428571
vt 0.8125 0.53125
vt 0.6830040178571428 0.8438809821428571
vt 0.8125 0.8438809821428571
vt 0.8125 0.8126180357142857
vt 0.8125 0.8438159821428571
vt 0.6959540178571428 0.8126180357142857
vt 0.9419419642857143 0.84375
vt 0.9419419642857143 1
vt 0.8125 0.8438159821428571
vt 0.8125 0.8438159821428571
vt 0.8125 1
vt 0.6830580357142857 0.84375
vt 0.8125 0.8126180357142857
vt 0.9290469642857142 0.8126180357142857
vt 0.8125 0.8438159821428571
vt 0.9419959821428572 0.8438809821428571
vt 0.8125 0.53125
vt 0.8125 0.8438809821428571
vt 0.6959540178571428 0.8126180357142857
vt 0.8125 0.8438159821428571
vt 0.6830040178571428 0.8438809821428571
vt 0.8125 0.8438159821428571
vt 0.9419419642857143 1
vt 0.8125 1
vt 0.6830580357142857 0.84375
vt 0.8125 1
vt 0.6830580357142857 1
vt 0.8125 0.8438159821428571
vt 0.9290469642857142 0.8126180357142857
vt 0.9419959821428572 0.8438809821428571
vt 0.8125 0.53125
vt 0.6830040178571428 0.8438809821428571
vt 0.8125 0.8438809821428571
vt 0.8125 0.8126180357142857
vt 0.8125 0.8438159821428571
vt 0.6959540178571428 0.8126180357142857
vt 0.9419419642857143 0.84375
vt 0.9419419642857143 1
vt 0.8125 0.8438159821428571
vt 0.8125 0.8438159821428571
vt 0.8125 1
vt 0.6830580357142857 0.84375
vt 0.8125 0.8126180357142857
vt 0.9290469642857142 0.8126180357142857
vt 0.8125 0.8438159821428571
vt 0.9419959821428572 0.8438809821428571
vt 0.8125 0.53125
vt 0.8125 0.8438809821428571
vt 0.6959540178571428 0.8126180357142857
vt 0.8125 0.8438159821428571
vt 0.6830040178571428 0.8438809821428571
vt 0.8125 0.8438159821428571
vt 0.9419419642857143 1
vt 0.8125 1
vt 0.6830580357142857 0.84375
vt 0.8125 1
vt 0.6830580357142857 1
vt 0.8125 0.8438159821428571
vt 0.9290469642857142 0.8126180357142857
vt 0.9419959821428572 0.8438809821428571
vt 0.8125 0.53125
vt 0.6830040178571428 0.8438809821428571
vt 0.8125 0.8438809821428571
vt 0.8125 0.8126180357142857
vt 0.8125 0.8438159821428571
vt 0.6959540178571428 0.8126180357142857
vt 0.9419419642857143 0.84375
vt 0.9419419642857143 1
vt 0.8125 0.8438159821428571
vt 0.8125 0.8438159821428571
vt 0.8125 1
vt 0.6830580357142857 0.84375
vt 0.8125 0.8126180357142857
vt 0.9290469642857142 0.8126180357142857
vt 0.8125 0.8438159821428571
vt 0.9419959821428572 0.8438809821428571
vt 0.8125 0.53125
vt 0.8125 0.8438809821428571
vt 0.6959540178571428 0.8126180357142857
vt 0.8125 0.8438159821428571
vt 0.6830040178571428 0.8438809821428571
vt 0.8125 0.8438159821428571
vt 0.9419419642857143 1
vt 0.8125 1
vt 0.6830580357142857 0.84375
vt 0.8125 1
vt 0.6830580357142857 1
vt 0.8125 0.8438159821428571
vt 0.9290469642857142 0.8126180357142857
vt 0.9419959821428572 0.8438809821428571
vt 0.8125 0.53125
vt 0.6830040178571428 0.8438809821428571
vt 0.8125 0.8438809821428571
vt 0.8125 0.8126180357142857
vt 0.8125 0.8438159821428571
vt 0.6959540178571428 0.8126180357142857
vt 0.9419419642857143 0.84375
vt 0.9419419642857143 1
vt 0.8125 0.8438159821428571
vt 0.8125 0.8438159821428571
vt 0.8125 1
vt 0.6830580357142857 0.84375
vt 0.8125 0.8126180357142857
vt 0.9290469642857142 0.8126180357142857
vt 0.8125 0.8438159821428571
vt 0.9419959821428572 0.8438809821428571
vt 0.8125 0.53125
vt 0.8125 0.8438809821428571
vt 0.6959540178571428 0.8126180357142857
vt 0.8125 0.8438159821428571
vt 0.6830040178571428 0.8438809821428571
vt 0.8125 0.8438159821428571
vt 0.9419419642857143 1
vt 0.8125 1
vt 0.6830580357142857 0.84375
vt 0.8125 1
vt 0.6830580357142857 1
vt 0.8125 0.8438159821428571
vt 0.9290469642857142 0.8126180357142857
vt 0.9419959821428572 0.8438809821428571
vt 0.8125 0.53125
vt 0.6830040178571428 0.8438809821428571
vt 0.8125 0.8438809821428571
vt 0.8125 0.8126180357142857
vt 0.8125 0.8438159821428571
vt 0.6959540178571428 0.8126180357142857
vt 0.9419419642857143 0.84375
vt 0.9419419642857143 1
vt 0.8125 0.8438159821428571
vt 0.8125 0.8438159821428571
vt 0.8125 1
vt 0.6830580357142857 0.84375
vt 0.8125 0.8126180357142857
vt 0.9290469642857142 0.8126180357142857
vt 0.8125 0.8438159821428571
vt 0.9419959821428572 0.8438809821428571
vt 0.8125 0.53125
vt 0.8125 0.8438809821428571
vt 0.6959540178571428 0.8126180357142857
vt 0.8125 0.8438159821428571
vt 0.6830040178571428 0.8438809821428571
vt 0.8125 0.8438159821428571
vt 0.9419419642857143 1
vt 0.8125 1
vt 0.6830580357142857 0.84375
vt 0.8125 1
vt 0.6830580357142857 1
vt 0.8125 0.8438159821428571
vt 0.9290469642857142 0.8126180357142857
vt 0.9419959821428572 0.8438809821428571
vt 0.8125 0.53125
vt 0.6830040178571428 0.8438809821428571
vt 0.8125 0.8438809821428571
vt 0.8125 0.8126180357142857
vt 0.8125 0.8438159821428571
vt 0.6959540178571428 0.8126180357142857
vt 0.9419419642857143 0.84375
vt 0.9419419642857143 1
vt 0.8125 0.8438159821428571
vt 0.8125 0.8438159821428571
vt 0.8125 1
vt 0.6830580357142857 0.84375
vt 0.8125 0.8126180357142857
vt 0.9290469642857142 0.8126180357142857
vt 0.8125 0.8438159821428571
vt 0.9419959821428572 0.8438809821428571
vt 0.8125 0.53125
vt 0.8125 0.8438809821428571
vt 0.6959540178571428 0.8126180357142857
vt 0.8125 0.8438159821428571
vt 0.6830040178571428 0.8438809821428571
vt 0.8125 0.8438159821428571
vt 0.9419419642857143 1
vt 0.8125 1
vt 0.6830580357142857 0.84375
vt 0.8125 1
vt 0.6830580357142857 1
vt 0.8125 0.8438159821428571
vt 0.9290469642857142 0.8126180357142857
vt 0.9419959821428572 0.8438809821428571
vt 0.8125 0.53125
vt 0.6830040178571428 0.8438809821428571
vt 0.8125 0.8438809821428571
vt 0.8125 0.8126180357142857
vt 0.8125 0.8438159821428571
vt 0.6959540178571428 0.8126180357142857
vt 0.9419419642857143 0.84375
vt 0.9419419642857143 1
vt 0.8125 0.8438159821428571
vt 0.8125 0.8438159821428571
vt 0.8125 1
vt 0.6830580357142857 0.84375
vt 0.8125 0.8126180357142857
vt 0.9290469642857142 0.8126180357142857
vt 0.8125 0.8438159821428571
vt 0.9419959821428572 0.8438809821428571
vt 0.8125 0.53125
vt 0.8125 0.8438809821428571
vt 0.6959540178571428 0.8126180357142857
vt 0.8125 0.8438159821428571
vt 0.6830040178571428 0.8438809821428571
vt 0.8125 0.8438159821428571
vt 0.9419419642857143 1
vt 0.8125 1
vt 0.6830580357142857 0.84375
vt 0.8125 1
vt 0.6830580357142857 1
vt 0.8125 0.8438159821428571
vt 0.9290469642857142 0.8126180357142857
vt 0.9419959821428572 0.8438809821428571
vt 0.8125 0.53125
vt 0.6830040178571428 0.8438809821428571
vt 0.8125 0.8438809821428571
vt 0.8125 0.8126180357142857
vt 0.8125 0.8438159821428571
vt 0.6959540178571428 0.8126180357142857
vt 0.9419419642857143 0.84375
vt 0.9419419642857143 1
vt 0.8125 0.8438159821428571
vt 0.8125 0.8438159821428571
vt 0.8125 1
vt 0.6830580357142857 0.84375
vt 0.8125 0.8126180357142857
vt 0.9290469642857142 0.8126180357142857
vt 0.8125 0.8438159821428571
vt 0.5113740178571429 0.48862598214285713
vt 0.42899803571428574 0.5710019642857143
vt 0.42899803571428574 0.40625
vt 0.5113740178571429 0.8863740178571429
vt 0.42899803571428574 0.8039980357142857
vt 0.59375 0.8039980357142857
vt 0.11362598214285714 0.48862598214285713
vt 0.1960019642857143 0.5710019642857143
vt 0.03125 0.5710019642857143
vt 0.1960019642857143 0.8039980357142857
vt 0.11362598214285714 0.8863740178571429
vt 0.03125 0.8039980357142857
vt 0.3125 0.40625
vt 0.42899803571428574 0.5710019642857143
vt 0.3125 0.5710019642857143
vt 0.3125 0.8039980357142857
vt 0.42899803571428574 0.96875
vt 0.3125 0.96875
vt 0.3125 0.5710019642857143
vt 0.42899803571428574 0.6875
vt 0.3125 0.6875
vt 0.03125 0.5710019642857143
vt 0.1960019642857143 0.6875
vt 0.03125 0.6875
vt 0.42899803571428574 0.5710019642857143
vt 0.59375 0.6875
vt 0.42899803571428574 0.6875
vt 0.3125 0.6875
vt 0.42899803571428574 0.8039980357142857
vt 0.3125 0.8039980357142857
vt 0.03125 0.6875
vt 0.1960019642857143 0.8039980357142857
vt 0.03125 0.8039980357142857
vt 0.42899803571428574 0.6875
vt 0.59375 0.8039980357142857
vt 0.42899803571428574 0.8039980357142857
vt 0.3125 0.6875
vt 0.1960019642857143 0.8039980357142857
vt 0.1960019642857143 0.6875
vt 0.1960019642857143 0.5710019642857143
vt 0.3125 0.6875
vt 0.1960019642857143 0.6875
vt 0.1960019642857143 0.40625
vt 0.3125 0.5710019642857143
vt 0.1960019642857143 0.5710019642857143
vt 0.3125 0.8039980357142857
vt 0.1960019642857143 0.96875
vt 0.1960019642857143 0.8039980357142857
vt 0.42899803571428574 0.40625
vt 0.42899803571428574 0.5710019642857143
vt 0.3125 0.40625
vt 0.42899803571428574 0.8039980357142857
vt 0.42899803571428574 0.96875
vt 0.3125 0.8039980357142857
vt 0.42899803571428574 0.5710019642857143
vt 0.42899803571428574 0.6875
vt 0.3125 0.5710019642857143
vt 0.1960019642857143 0.5710019642857143
vt 0.1960019642857143 0.6875
vt 0.03125 0.5710019642857143
vt 0.59375 0.5710019642857143
vt 0.59375 0.6875
vt 0.42899803571428574 0.5710019642857143
vt 0.42899803571428574 0.6875
vt 0.42899803571428574 0.8039980357142857
vt 0.3125 0.6875
vt 0.1960019642857143 0.6875
vt 0.1960019642857143 0.8039980357142857
vt 0.03125 0.6875
vt 0.59375 0.6875
vt 0.59375 0.8039980357142857
vt 0.42899803571428574 0.6875
vt 0.3125 0.8039980357142857
vt 0.1960019642857143 0.8039980357142857
vt 0.3125 0.6875
vt 0.3125 0.5710019642857143
vt 0.3125 0.6875
vt 0.1960019642857143 0.5710019642857143
vt 0.3125 0.40625
vt 0.3125 0.5710019642857143
vt 0.1960019642857143 0.40625
vt 0.3125 0.96875
vt 0.1960019642857143 0.96875
vt 0.3125 0.8039980357142857
vt 0.59375 0.5710019642857143
vt 0.42899803571428574 0.5710019642857143
vt 0.5113740178571429 0.48862598214285713
vt 0.42899803571428574 0.96875
vt 0.42899803571428574 0.8039980357142857
vt 0.5113740178571429 0.8863740178571429
vt 0.1960019642857143 0.40625
vt 0.1960019642857143 0.5710019642857143
vt 0.11362598214285714 0.48862598214285713
vt 0.1960019642857143 0.96875
vt 0.11362598214285714 0.8863740178571429
vt 0.1960019642857143 0.8039980357142857
vn 1 2.719262146893782e-32 -1.2246467991473532e-16
vn -1 -2.719262146893782e-32 1.2246467991473532e-16
vn 1.2246467991473532e-16 -2.220446049250313e-16 1
vn 1.2246467991473532e-16 -2.220446049250313e-16 1
vn -1 -2.719262146893782e-32 1.2246467991473532e-16
vn 1 2.719262146893782e-32 -1.2246467991473532e-16
vn -1 -2.719262146893782e-32 1.2246467991473532e-16
vn 1.2246467991473532e-16 -2.220446049250313e-16 1
vn 1.2246467991473532e-16 -2.220446049250313e-16 1
vn -1 -2.719262146893782e-32 1.2246467991473532e-16
vn 1 2.719262146893782e-32 -1.2246467991473532e-16
vn -1 -2.719262146893782e-32 1.2246467991473532e-16
vn 8.659560562354935e-17 0.7071067811865474 0.7071067811865478
vn 8.65957534512268e-17 0.7071055740798948 0.7071079882911395
vn -1 -2.719262146893782e-32 1.2246467991473532e-16
vn 1 2.719262146893782e-32 -1.2246467991473532e-16
vn -1 -2.719262146893782e-32 1.2246467991473532e-16
vn 8.659560562354935e-17 0.7071067811865474 0.7071067811865478
vn 8.65957534512268e-17 0.7071055740798948 0.7071079882911395
vn -1 -2.719262146893782e-32 1.2246467991473532e-16
vn 1 2.719262146893782e-32 -1.2246467991473532e-16
vn -1 -2.719262146893782e-32 1.2246467991473532e-16
vn 2.5407181807812022e-33 1 2.220446049250313e-16
vn 2.5407181807812022e-33 1 2.220446049250313e-16
vn -1 -2.719262146893782e-32 1.2246467991473532e-16
vn 1 2.719262146893782e-32 -1.2246467991473532e-16
vn -1 -2.719262146893782e-32 1.2246467991473532e-16
vn 2.5407181807812022e-33 1 2.220446049250313e-16
vn 2.5407181807812022e-33 1 2.220446049250313e-16
vn -1 -2.719262146893782e-32 1.2246467991473532e-16
vn 1 2.719262146893782e-32 -1.2246467991473532e-16
vn -1 -2.719262146893782e-32 1.2246467991473532e-16
vn -8.659560562354932e-17 0.7071067811865478 -0.7071067811865474
vn -8.65954577956195e-17 0.7071079882911395 -0.7071055740798948
vn -1 -2.719262146893782e-32 1.2246467991473532e-16
vn 1 2.719262146893782e-32 -1.2246467991473532e-16
vn -1 -2.719262146893782e-32 1.2246467991473532e-16
vn -8.659560562354932e-17 0.7071067811865478 -0.7071067811865474
vn -8.65954577956195e-17 0.7071079882911395 -0.7071055740798948
vn -1 -2.719262146893782e-32 1.2246467991473532e-16
vn 1 2.719262146893782e-32 -1.2246467991473532e-16
vn -1 -2.719262146893782e-32 1.2246467991473532e-16
vn -1.2246467991473532e-16 2.220446049250313e-16 -1
vn -1.2246467991473532e-16 2.220446049250313e-16 -1
vn -1 -2.719262146893782e-32 1.2246467991473532e-16
vn 1 2.719262146893782e-32 -1.2246467991473532e-16
vn -1 -2.719262146893782e-32 1.2246467991473532e-16
vn -1.2246467991473532e-16 2.220446049250313e-16 -1
vn -1.2246467991473532e-16 2.220446049250313e-16 -1
vn -1 -2.719262146893782e-32 1.2246467991473532e-16
vn 1 2.719262146893782e-32 -1.2246467991473532e-16
vn -1 -2.719262146893782e-32 1.2246467991473532e-16
vn -8.659560562354935e-17 -0.7071067811865474 -0.7071067811865478
vn -8.65957534512268e-17 -0.7071055740798948 -0.7071079882911395
vn -1 -2.719262146893782e-32 1.2246467991473532e-16
vn 1 2.719262146893782e-32 -1.2246467991473532e-16
vn -1 -2.719262146893782e-32 1.2246467991473532e-16
vn -8.659560562354935e-17 -0.7071067811865474 -0.7071067811865478
vn -8.65957534512268e-17 -0.7071055740798948 -0.7071079882911395
vn -1 -2.719262146893782e-32 1.2246467991473532e-16
vn 1 2.719262146893782e-32 -1.2246467991473532e-16
vn -1 -2.719262146893782e-32 1.2246467991473532e-16
vn -2.5407181807812022e-33 -1 -2.220446049250313e-16
vn -2.5407181807812022e-33 -1 -2.220446049250313e-16
vn -1 -2.719262146893782e-32 1.2246467991473532e-16
vn 1 2.719262146893782e-32 -1.2246467991473532e-16
vn -1 -2.719262146893782e-32 1.2246467991473532e-16
vn -2.5407181807812022e-33 -1 -2.220446049250313e-16
vn -2.5407181807812022e-33 -1 -2.220446049250313e-16
vn -1 -2.719262146893782e-32 1.2246467991473532e-16
vn 1 2.719262146893782e-32 -1.2246467991473532e-16
vn -1 -2.719262146893782e-32 1.2246467991473532e-16
vn 8.659560562354932e-17 -0.7071067811865478 0.7071067811865474
vn 8.65954577956195e-17 -0.7071079882911395 0.7071055740798948
vn -1 -2.719262146893782e-32 1.2246467991473532e-16
vn 1 2.719262146893782e-32 -1.2246467991473532e-16
vn -1 -2.719262146893782e-32 1.2246467991473532e-16
vn 8.659560562354932e-17 -0.7071067811865478 0.7071067811865474
vn 8.65954577956195e-17 -0.7071079882911395 0.7071055740798948
vn -1 -2.719262146893782e-32 1.2246467991473532e-16
vn -1 -2.719262146893782e-32 1.2246467991473532e-16
vn -1 -2.719262146893782e-32 1.2246467991473532e-16
vn -1 -2.719262146893782e-32 1.2246467991473532e-16
vn -1 -2.719262146893782e-32 1.2246467991473532e-16
vn -1 -2.719262146893782e-32 1.2246467991473532e-16
vn -1 -2.719262146893782e-32 1.2246467991473532e-16
vn -1 -2.719262146893782e-32 1.2246467991473532e-16
vn -1 -2.719262146893782e-32 1.2246467991473532e-16
vn -1 -2.719262146893782e-32 1.2246467991473532e-16
vn -1 -2.719262146893782e-32 1.2246467991473532e-16
vn -1 -2.719262146893782e-32 1.2246467991473532e-16
vn -1 -2.719262146893782e-32 1.2246467991473532e-16
vn -1 -2.719262146893782e-32 1.2246467991473532e-16
vn -1 -2.719262146893782e-32 1.2246467991473532e-16
vn -1 -2.719262146893782e-32 1.2246467991473532e-16
vn -1 -2.719262146893782e-32 1.2246467991473532e-16
vn -1 -2.719262146893782e-32 1.2246467991473532e-16
vn -1 -2.719262146893782e-32 1.2246467991473532e-16
vn -1 -2.719262146893782e-32 1.2246467991473532e-16
vn -1 -2.719262146893782e-32 1.2246467991473532e-16
vn -1 -2.719262146893782e-32 1.2246467991473532e-16
vn -1 -2.719262146893782e-32 1.2246467991473532e-16
vn -1 -2.719262146893782e-32 1.2246467991473532e-16
vn -1 -2.719262146893782e-32 1.2246467991473532e-16
vn -1 -2.719262146893782e-32 1.2246467991473532e-16
vn -1 -2.719262146893782e-32 1.2246467991473532e-16
vn -1 -2.719262146893782e-32 1.2246467991473532e-16
vn -1 -2.719262146893782e-32 1.2246467991473532e-16
vn -1 -2.719262146893782e-32 1.2246467991473532e-16
vn -1 -2.719262146893782e-32 1.2246467991473532e-16
vn -1 -2.719262146893782e-32 1.2246467991473532e-16
vn -1 -2.719262146893782e-32 1.2246467991473532e-16
vn -1 -2.719262146893782e-32 1.2246467991473532e-16
vn 1 2.719262146893782e-32 -1.2246467991473532e-16
vn 2.5407181807811912e-33 1 -2.0680645465065812e-16
vn 2.6200861714881324e-32 1 -2.0680645465065817e-16
vn 1 2.719262146893782e-32 -1.2246467991473532e-16
vn -1 -2.719262146893782e-32 1.2246467991473532e-16
vn 1 2.719262146893782e-32 -1.2246467991473532e-16
vn 2.6200861714881324e-32 1 -2.0680645465065812e-16
vn 2.5407181807811912e-33 1 -2.0680645465065812e-16
vn 1 2.719262146893782e-32 -1.2246467991473532e-16
vn -1 -2.719262146893782e-32 1.2246467991473532e-16
vn 1 2.719262146893782e-32 -1.2246467991473532e-16
vn 3.9011791071152675e-17 0.7071067811865479 -0.7071067811865472
vn 3.901172447386668e-17 0.7071079882911396 -0.7071055740798947
vn 1 2.719262146893782e-32 -1.2246467991473532e-16
vn -1 -2.719262146893782e-32 1.2246467991473532e-16
vn 1 2.719262146893782e-32 -1.2246467991473532e-16
vn 1.646191877658547e-16 0.7071067811865478 -0.7071067811865474
vn 3.901172447386669e-17 0.7071079882911396 -0.7071055740798948
vn 1 2.719262146893782e-32 -1.2246467991473532e-16
vn -1 -2.719262146893782e-32 1.2246467991473532e-16
vn 1 2.719262146893782e-32 -1.2246467991473532e-16
vn -1.2246467991473532e-16 2.220446049250313e-16 -1
vn 2.3280668796531477e-16 -2.0680541931370757e-16 -1
vn 1 2.719262146893782e-32 -1.2246467991473532e-16
vn -1 -2.719262146893782e-32 1.2246467991473532e-16
vn 1 2.719262146893782e-32 -1.2246467991473532e-16
vn 2.3280668796531477e-16 -2.0680645465065803e-16 -1
vn -1.2246467991473532e-16 2.220446049250313e-16 -1
vn 1 2.719262146893782e-32 -1.2246467991473532e-16
vn -1 -2.719262146893782e-32 1.2246467991473532e-16
vn 1 2.719262146893782e-32 -1.2246467991473532e-16
vn 3.9011791071152675e-17 -0.7071067811865474 -0.7071067811865478
vn 1.6461946878787676e-16 -0.7071055740798949 -0.7071079882911395
vn 1 2.719262146893782e-32 -1.2246467991473532e-16
vn -1 -2.719262146893782e-32 1.2246467991473532e-16
vn 1 2.719262146893782e-32 -1.2246467991473532e-16
vn 3.9011791071152675e-17 -0.7071067811865474 -0.7071067811865478
vn 3.901185766832499e-17 -0.7071055740798948 -0.7071079882911396
vn 1 2.719262146893782e-32 -1.2246467991473532e-16
vn -1 -2.719262146893782e-32 1.2246467991473532e-16
vn 1 2.719262146893782e-32 -1.2246467991473532e-16
vn -2.540718180781257e-33 -1 2.0680645465065817e-16
vn -2.6200804594302273e-32 -1 2.0680541931370771e-16
vn 1 2.719262146893782e-32 -1.2246467991473532e-16
vn -1 -2.719262146893782e-32 1.2246467991473532e-16
vn 1 2.719262146893782e-32 -1.2246467991473532e-16
vn -2.6200861714881324e-32 -1 2.0680645465065812e-16
vn -2.540718180781268e-33 -1 2.0680541931370767e-16
vn 1 2.719262146893782e-32 -1.2246467991473532e-16
vn -1 -2.719262146893782e-32 1.2246467991473532e-16
vn 1 2.719262146893782e-32 -1.2246467991473532e-16
vn -3.901179107115269e-17 -0.7071067811865478 0.7071067811865474
vn -3.9011724473866694e-17 -0.7071079882911396 0.7071055740798948
vn 1 2.719262146893782e-32 -1.2246467991473532e-16
vn -1 -2.719262146893782e-32 1.2246467991473532e-16
vn 1 2.719262146893782e-32 -1.2246467991473532e-16
vn -1.6461918776585465e-16 -0.7071067811865479 0.7071067811865472
vn -3.901172447386669e-17 -0.7071079882911396 0.7071055740798948
vn 1 2.719262146893782e-32 -1.2246467991473532e-16
vn -1 -2.719262146893782e-32 1.2246467991473532e-16
vn 1 2.719262146893782e-32 -1.2246467991473532e-16
vn 1.2246467991473527e-16 2.0680645465065798e-16 1
vn -2.3280668796531477e-16 -2.220446049250313e-16 1
vn 1 2.719262146893782e-32 -1.2246467991473532e-16
vn -1 -2.719262146893782e-32 1.2246467991473532e-16
vn 1 2.719262146893782e-32 -1.2246467991473532e-16
vn -2.3280668796531477e-16 -2.220446049250313e-16 1
vn 1.2246467991473527e-16 2.0680541931370767e-16 1
vn 1 2.719262146893782e-32 -1.2246467991473532e-16
vn -1 -2.719262146893782e-32 1.2246467991473532e-16
vn 1 2.719262146893782e-32 -1.2246467991473532e-16
vn -3.9011791071152675e-17 0.7071067811865474 0.7071067811865478
vn -1.6461946878787678e-16 0.7071055740798948 0.7071079882911396
vn 1 2.719262146893782e-32 -1.2246467991473532e-16
vn -1 -2.719262146893782e-32 1.2246467991473532e-16
vn 1 2.719262146893782e-32 -1.2246467991473532e-16
vn -3.9011791071152675e-17 0.7071067811865474 0.7071067811865478
vn -3.9011857668324973e-17 0.7071055740798949 0.7071079882911394
vn 1 2.719262146893782e-32 -1.2246467991473532e-16
vn 1 2.719262146893782e-32 -1.2246467991473532e-16
vn 1 2.719262146893782e-32 -1.2246467991473532e-16
vn 1 2.719262146893782e-32 -1.2246467991473532e-16
vn 1 2.719262146893782e-32 -1.2246467991473532e-16
vn 1 2.719262146893782e-32 -1.2246467991473532e-16
vn 1 2.719262146893782e-32 -1.2246467991473532e-16
vn 1 2.719262146893782e-32 -1.2246467991473532e-16
vn 1 2.719262146893782e-32 -1.2246467991473532e-16
vn 1 2.719262146893782e-32 -1.2246467991473532e-16
vn 1 2.719262146893782e-32 -1.2246467991473532e-16
vn 1 2.719262146893782e-32 -1.2246467991473532e-16
vn 1 2.719262146893782e-32 -1.2246467991473532e-16
vn 1 2.719262146893782e-32 -1.2246467991473532e-16
vn 1 2.719262146893782e-32 -1.2246467991473532e-16
vn 1 2.719262146893782e-32 -1.2246467991473532e-16
vn 1 2.719262146893782e-32 -1.2246467991473532e-16
vn 1 2.719262146893782e-32 -1.2246467991473532e-16
vn 1 2.719262146893782e-32 -1.2246467991473532e-16
vn 1 2.719262146893782e-32 -1.2246467991473532e-16
vn 1 2.719262146893782e-32 -1.2246467991473532e-16
vn 1 2.719262146893782e-32 -1.2246467991473532e-16
vn 1 2.719262146893782e-32 -1.2246467991473532e-16
vn 1 2.719262146893782e-32 -1.2246467991473532e-16
vn 1 2.719262146893782e-32 -1.2246467991473532e-16
vn 1 2.719262146893782e-32 -1.2246467991473532e-16
vn 1 2.719262146893782e-32 -1.2246467991473532e-16
vn 1 2.719262146893782e-32 -1.2246467991473532e-16
vn 1 2.719262146893782e-32 -1.2246467991473532e-16
vn 1 2.719262146893782e-32 -1.2246467991473532e-16
vn 1 2.719262146893782e-32 -1.2246467991473532e-16
vn 1 2.719262146893782e-32 -1.2246467991473532e-16
vn 1 2.719262146893782e-32 -1.2246467991473532e-16
usemtl wheels
f 1/1/1 2/2/1 3/3/1
f 4/4/2 5/5/2 6/6/2
f 2/7/3 4/8/3 3/9/3
f 3/10/4 6/11/4 7/12/4
f 8/13/5 4/14/5 9/15/5
f 7/16/6 1/17/6 3/18/6
f 4/19/7 10/20/7 5/21/7
f 2/22/8 9/23/8 4/24/8
f 3/25/9 4/26/9 6/27/9
f 8/28/10 10/29/10 4/30/10
f 1/31/11 11/32/11 12/33/11
f 13/34/12 8/35/12 9/36/12
f 11/37/13 13/38/13 12/39/13
f 12/40/14 9/41/14 2/42/14
f 14/43/15 13/44/15 15/45/15
f 2/46/16 1/47/16 12/48/16
f 13/49/17 16/50/17 8/51/17
f 11/52/18 15/53/18 13/54/18
f 12/55/19 13/56/19 9/57/19
f 14/58/20 16/59/20 13/60/20
f 1/61/21 17/62/21 18/63/21
f 19/64/22 14/65/22 15/66/22
f 17/67/23 19/68/23 18/69/23
f 18/70/24 15/71/24 11/72/24
f 20/73/25 19/74/25 21/75/25
f 11/76/26 1/77/26 18/78/26
f 19/79/27 22/80/27 14/81/27
f 17/82/28 21/83/28 19/84/28
f 18/85/29 19/86/29 15/87/29
f 20/88/30 22/89/30 19/90/30
f 1/91/31 23/92/31 24/93/31
f 25/94/32 20/95/32 21/96/32
f 23/97/33 25/98/33 24/99/33
f 24/100/34 21/101/34 17/102/34
f 26/103/35 25/104/35 27/105/35
f 17/106/36 1/107/36 24/108/36
f 25/109/37 28/110/37 20/111/37
f 23/112/38 27/113/38 25/114/38
f 24/115/39 25/116/39 21/117/39
f 26/118/40 28/119/40 25/120/40
f 1/121/41 29/122/41 30/123/41
f 31/124/42 26/125/42 27/126/42
f 29/127/43 31/128/43 30/129/43
f 30/130/44 27/131/44 23/132/44
f 32/133/45 31/134/45 33/135/45
f 23/136/46 1/137/46 30/138/46
f 31/139/47 34/140/47 26/141/47
f 29/142/48 33/143/48 31/144/48
f 30/145/49 31/146/49 27/147/49
f 32/148/50 34/149/50 31/150/50
f 1/151/51 35/152/51 36/153/51
f 37/154/52 32/155/52 33/156/52
f 35/157/53 37/158/53 36/159/53
f 36/160/54 33/161/54 29/162/54
f 38/163/55 37/164/55 39/165/55
f 29/166/56 1/167/56 36/168/56
f 37/169/57 40/170/57 32/171/57
f 35/172/58 39/173/58 37/174/58
f 36/175/59 37/176/59 33/177/59
f 38/178/60 40/179/60 37/180/60
f 1/181/61 41/182/61 42/183/61
f 43/184/62 38/185/62 39/186/62
f 41/187/63 43/188/63 42/189/63
f 42/190/64 39/191/64 35/192/64
f 44/193/65 43/194/65 45/195/65
f 35/196/66 1/197/66 42/198/66
f 43/199/67 46/200/67 38/201/67
f 41/202/68 45/203/68 43/204/68
f 42/205/69 43/206/69 39/207/69
f 44/208/70 46/209/70 43/210/70
f 1/211/71 47/212/71 48/213/71
f 49/214/72 44/215/72 45/216/72
f 47/217/73 49/218/73 48/219/73
f 48/220/74 45/221/74 41/222/74
f 5/223/75 49/224/75 50/225/75
f 41/226/76 1/227/76 48/228/76
f 49/229/77 51/230/77 44/231/77
f 47/232/78 50/233/78 49/234/78
f 48/235/79 49/236/79 45/237/79
f 5/238/80 51/239/80 49/240/80
f 52/241/81 28/242/81 26/243/81
f 53/244/82 16/245/82 14/246/82
f 54/247/83 40/248/83 38/249/83
f 51/250/84 55/251/84 44/252/84
f 52/253/85 34/254/85 56/255/85
f 8/256/86 57/257/86 10/258/86
f 58/259/87 56/260/87 59/261/87
f 60/262/88 38/263/88 46/264/88
f 22/265/89 52/266/89 58/267/89
f 53/268/90 59/269/90 57/270/90
f 55/271/91 46/272/91 44/273/91
f 14/274/92 58/275/92 53/276/92
f 55/277/93 59/278/93 60/279/93
f 59/280/94 54/281/94 60/282/94
f 56/283/95 32/284/95 54/285/95
f 5/286/96 57/287/96 55/288/96
f 52/289/97 26/290/97 34/291/97
f 8/292/98 53/293/98 57/294/98
f 58/295/99 52/296/99 56/297/99
f 60/298/100 54/299/100 38/300/100
f 22/301/101 20/302/101 52/303/101
f 53/304/102 58/305/102 59/306/102
f 55/307/103 60/308/103 46/309/103
f 14/310/104 22/311/104 58/312/104
f 55/313/105 57/314/105 59/315/105
f 59/316/106 56/317/106 54/318/106
f 56/319/107 34/320/107 32/321/107
f 5/322/108 10/323/108 57/324/108
f 52/325/109 20/326/109 28/327/109
f 53/328/110 8/329/110 16/330/110
f 54/331/111 32/332/111 40/333/111
f 51/334/112 5/335/112 55/336/112
f 62/337/113 61/338/113 63/339/113
f 65/340/114 64/341/114 66/342/114
f 64/343/115 62/344/115 63/345/115
f 66/346/116 63/347/116 67/348/116
f 64/349/117 68/350/117 69/351/117
f 61/352/118 67/353/118 63/354/118
f 70/355/119 64/356/119 65/357/119
f 69/358/120 62/359/120 64/360/120
f 64/361/121 63/362/121 66/363/121
f 70/364/122 68/365/122 64/366/122
f 71/367/123 61/368/123 72/369/123
f 68/370/124 73/371/124 69/372/124
f 73/373/125 71/374/125 72/375/125
f 69/376/126 72/377/126 62/378/126
f 73/379/127 74/380/127 75/381/127
f 61/382/128 62/383/128 72/384/128
f 76/385/129 73/386/129 68/387/129
f 75/388/130 71/389/130 73/390/130
f 73/391/131 72/392/131 69/393/131
f 76/394/132 74/395/132 73/396/132
f 77/397/133 61/398/133 78/399/133
f 74/400/134 79/401/134 75/402/134
f 79/403/135 77/404/135 78/405/135
f 75/406/136 78/407/136 71/408/136
f 79/409/137 80/410/137 81/411/137
f 61/412/138 71/413/138 78/414/138
f 82/415/139 79/416/139 74/417/139
f 81/418/140 77/419/140 79/420/140
f 79/421/141 78/422/141 75/423/141
f 82/424/142 80/425/142 79/426/142
f 83/427/143 61/428/143 84/429/143
f 80/430/144 85/431/144 81/432/144
f 85/433/145 83/434/145 84/435/145
f 81/436/146 84/437/146 77/438/146
f 85/439/147 86/440/147 87/441/147
f 61/442/148 77/443/148 84/444/148
f 88/445/149 85/446/149 80/447/149
f 87/448/150 83/449/150 85/450/150
f 85/451/151 84/452/151 81/453/151
f 88/454/152 86/455/152 85/456/152
f 89/457/153 61/458/153 90/459/153
f 86/460/154 91/461/154 87/462/154
f 91/463/155 89/464/155 90/465/155
f 87/466/156 90/467/156 83/468/156
f 91/469/157 92/470/157 93/471/157
f 61/472/158 83/473/158 90/474/158
f 94/475/159 91/476/159 86/477/159
f 93/478/160 89/479/160 91/480/160
f 91/481/161 90/482/161 87/483/161
f 94/484/162 92/485/162 91/486/162
f 95/487/163 61/488/163 96/489/163
f 92/490/164 97/491/164 93/492/164
f 97/493/165 95/494/165 96/495/165
f 93/496/166 96/497/166 89/498/166
f 97/499/167 98/500/167 99/501/167
f 61/502/168 89/503/168 96/504/168
f 100/505/169 97/506/169 92/507/169
f 99/508/170 95/509/170 97/510/170
f 97/511/171 96/512/171 93/513/171
f 100/514/172 98/515/172 97/516/172
f 101/517/173 61/518/173 102/519/173
f 98/520/174 103/521/174 99/522/174
f 103/523/175 101/524/175 102/525/175
f 99/526/176 102/527/176 95/528/176
f 103/529/177 104/530/177 105/531/177
f 61/532/178 95/533/178 102/534/178
f 106/535/179 103/536/179 98/537/179
f 105/538/180 101/539/180 103/540/180
f 103/541/181 102/542/181 99/543/181
f 106/544/182 104/545/182 103/546/182
f 107/547/183 61/548/183 108/549/183
f 104/550/184 109/551/184 105/552/184
f 109/553/185 107/554/185 108/555/185
f 105/556/186 108/557/186 101/558/186
f 109/559/187 65/560/187 110/561/187
f 61/562/188 101/563/188 108/564/188
f 111/565/189 109/566/189 104/567/189
f 110/568/190 107/569/190 109/570/190
f 109/571/191 108/572/191 105/573/191
f 111/574/192 65/575/192 109/576/192
f 88/577/193 112/578/193 86/579/193
f 76/580/194 113/581/194 74/582/194
f 100/583/195 114/584/195 98/585/195
f 115/586/196 111/587/196 104/588/196
f 94/589/197 112/590/197 116/591/197
f 117/592/198 68/593/198 70/594/198
f 116/595/199 118/596/199 119/597/199
f 98/598/200 120/599/200 106/600/200
f 112/601/201 82/602/201 118/603/201
f 119/604/202 113/605/202 117/606/202
f 106/607/203 115/608/203 104/609/203
f 118/610/204 74/611/204 113/612/204
f 119/613/205 115/614/205 120/615/205
f 114/616/206 119/617/206 120/618/206
f 92/619/207 116/620/207 114/621/207
f 117/622/208 65/623/208 115/624/208
f 86/625/209 112/626/209 94/627/209
f 113/628/210 68/629/210 117/630/210
f 112/631/211 118/632/211 116/633/211
f 114/634/212 120/635/212 98/636/212
f 80/637/213 82/638/213 112/639/213
f 118/640/214 113/641/214 119/642/214
f 120/643/215 115/644/215 106/645/215
f 82/646/216 74/647/216 118/648/216
f 117/649/217 115/650/217 119/651/217
f 116/652/218 119/653/218 114/654/218
f 94/655/219 116/656/219 92/657/219
f 70/658/220 65/659/220 117/660/220
f 80/661/221 112/662/221 88/663/221
f 68/664/222 113/665/222 76/666/222
f 92/667/223 114/668/223 100/669/223
f 65/670/224 111/671/224 115/672/224