# Made in Blockbench 4.12.6
mtllib frame.mtl

o cube
v 0.43125 0.68125 -2.00625
v 0.75 1 -2.4375
v 0.75 1 -2.9375
v 0.75 0.5 -2.4375
v 0.75 0.5 -2.9375
v 0.4375 1 -2.4375
v 0.4375 1 -2.9375
v 0.4375 0.5 -2.4375
v 0.4375 0.5 -2.9375
v 0.3125 1.0625 -2.375
v 0.3125 1.0625 -3
v 0.3125 0.4375 -2.375
v 0.3125 0.4375 -3
v -0.3125 1.0625 -2.375
v -0.3125 1.0625 -3
v -0.3125 0.4375 -2.375
v -0.3125 0.4375 -3
v 0.09375 1.25 -2.59375
v 0.09375 1.25 -2.78125
v 0.09375 1.0625 -2.59375
v 0.09375 1.0625 -2.78125
v -0.09375 1.25 -2.59375
v -0.09375 1.25 -2.78125
v -0.09375 1.0625 -2.59375
v -0.09375 1.0625 -2.78125
v -0.4375 1 -2.4375
v -0.4375 1 -2.9375
v -0.4375 0.5 -2.4375
v -0.4375 0.5 -2.9375
v -0.75 1 -2.4375
v -0.75 1 -2.9375
v -0.75 0.5 -2.4375
v -0.75 0.5 -2.9375
v -0.4375 1 3.625
v -0.4375 1 3.125
v -0.4375 0.5 3.625
v -0.4375 0.5 3.125
v -0.75 1 3.625
v -0.75 1 3.125
v -0.75 0.5 3.625
v -0.75 0.5 3.125
v 0.3125 1.0625 3.6875
v 0.3125 1.0625 3.0625
v 0.3125 0.4375 3.6875
v 0.3125 0.4375 3.0625
v -0.3125 1.0625 3.6875
v -0.3125 1.0625 3.0625
v -0.3125 0.4375 3.6875
v -0.3125 0.4375 3.0625
v 0.75 1 3.625
v 0.75 1 3.125
v 0.75 0.5 3.625
v 0.75 0.5 3.125
v 0.4375 1 3.625
v 0.4375 1 3.125
v 0.4375 0.5 3.625
v 0.4375 0.5 3.125
v 0.3125 1.0625 -1.125
v 0.3125 1.0625 -2.25
v 0.3125 0.4375 -1.125
v 0.3125 0.4375 -2.25
v -0.3125 1.0625 -1.125
v -0.3125 1.0625 -2.25
v -0.3125 0.4375 -1.125
v -0.3125 0.4375 -2.25
v 0.4375 1.25 -1.25
v 0.4375 1.25 -2.125
v 0.4375 0.75 -1.25
v 0.4375 0.75 -2.125
v -0.4375 1.25 -1.25
v -0.4375 1.25 -2.125
v -0.4375 0.75 -1.25
v -0.4375 0.75 -2.125
v 0.7562500000000001 1.38125 -1.36875
v 0.7562500000000001 1.38125 -2.00625
v 0.7562500000000001 0.68125 -1.36875
v 0.7562500000000001 0.68125 -2.00625
v 0.43125 1.38125 -1.36875
v 0.43125 1.38125 -2.00625
v 0.43125 0.68125 -1.36875
v -0.43125 1.38125 -1.36875
v -0.43125 1.38125 -2.00625
v -0.43125 0.68125 -1.36875
v -0.43125 0.68125 -2.00625
v -0.75625 1.38125 -1.36875
v -0.75625 1.38125 -2.00625
v -0.75625 0.68125 -1.36875
v -0.75625 0.68125 -2.00625
v 0.44508250000000005 0.809359375 -1.8125
v 0.44508250000000005 0.809359375 -2
v 0.5334706250000001 0.720970625 -1.8125
v 0.5334706250000001 0.720970625 -2
v 0.22411187499999996 0.588388125 -1.8125
v 0.22411187499999996 0.588388125 -2
v 0.3125 0.5 -1.8125
v 0.3125 0.5 -2
v 0.44508250000000005 0.809359375 -1.375
v 0.44508250000000005 0.809359375 -1.5625
v 0.5334706250000001 0.720970625 -1.375
v 0.5334706250000001 0.720970625 -1.5625
v 0.22411187499999996 0.588388125 -1.375
v 0.22411187499999996 0.588388125 -1.5625
v 0.3125 0.5 -1.375
v 0.3125 0.5 -1.5625
v -0.22411187500000002 0.588388125 -1.8125
v -0.22411187500000002 0.588388125 -2
v -0.3125 0.5 -1.8125
v -0.3125 0.5 -2
v -0.4450825 0.809359375 -1.8125
v -0.4450825 0.809359375 -2
v -0.533470625 0.720970625 -1.8125
v -0.533470625 0.720970625 -2
v -0.22411187500000002 0.588388125 -1.375
v -0.22411187500000002 0.588388125 -1.5625
v -0.3125 0.5 -1.375
v -0.3125 0.5 -1.5625
v -0.4450825 0.809359375 -1.375
v -0.4450825 0.809359375 -1.5625
v -0.533470625 0.720970625 -1.375
v -0.533470625 0.720970625 -1.5625
v 0.3125 1.0625 0.5625
v 0.3125 1.0625 -0.5625
v 0.3125 0.4375 0.5625
v 0.3125 0.4375 -0.5625
v -0.3125 1.0625 0.5625
v -0.3125 1.0625 -0.5625
v -0.3125 0.4375 0.5625
v -0.3125 0.4375 -0.5625
v 0.4375 1.25 0.4375
v 0.4375 1.25 -0.4375
v 0.4375 0.75 0.4375
v 0.4375 0.75 -0.4375
v -0.4375 1.25 0.4375
v -0.4375 1.25 -0.4375
v -0.4375 0.75 0.4375
v -0.4375 0.75 -0.4375
v -0.43125 1.38125 0.31875
v -0.43125 1.38125 -0.31875
v -0.43125 0.68125 0.31875
v -0.43125 0.68125 -0.31875
v -0.75625 1.38125 0.31875
v -0.75625 1.38125 -0.31875
v -0.75625 0.68125 0.31875
v -0.75625 0.68125 -0.31875
v 0.7562500000000001 1.38125 0.31875
v 0.7562500000000001 1.38125 -0.31875
v 0.7562500000000001 0.68125 0.31875
v 0.7562500000000001 0.68125 -0.31875
v 0.43125 1.38125 0.31875
v 0.43125 1.38125 -0.31875
v 0.43125 0.68125 0.31875
v 0.43125 0.68125 -0.31875
v 0.44508250000000005 0.809359375 0.3125
v 0.44508250000000005 0.809359375 0.125
v 0.5334706250000001 0.720970625 0.3125
v 0.5334706250000001 0.720970625 0.125
v 0.22411187499999996 0.588388125 0.3125
v 0.22411187499999996 0.588388125 0.125
v 0.3125 0.5 0.3125
v 0.3125 0.5 0.125
v 0.44508250000000005 0.809359375 -0.125
v 0.44508250000000005 0.809359375 -0.3125
v 0.5334706250000001 0.720970625 -0.125
v 0.5334706250000001 0.720970625 -0.3125
v 0.22411187499999996 0.588388125 -0.125
v 0.22411187499999996 0.588388125 -0.3125
v 0.3125 0.5 -0.125
v 0.3125 0.5 -0.3125
v -0.22411187500000002 0.588388125 -0.125
v -0.22411187500000002 0.588388125 -0.3125
v -0.3125 0.5 -0.125
v -0.3125 0.5 -0.3125
v -0.4450825 0.809359375 -0.125
v -0.4450825 0.809359375 -0.3125
v -0.533470625 0.720970625 -0.125
v -0.533470625 0.720970625 -0.3125
v -0.22411187500000002 0.588388125 0.3125
v -0.22411187500000002 0.588388125 0.125
v -0.3125 0.5 0.3125
v -0.3125 0.5 0.125
v -0.4450825 0.809359375 0.3125
v -0.4450825 0.809359375 0.125
v -0.533470625 0.720970625 0.3125
v -0.533470625 0.720970625 0.125
v 0.4375 1.25 2.8125
v 0.4375 1.25 1.9375
v 0.4375 0.75 2.8125
v 0.4375 0.75 1.9375
v -0.4375 1.25 2.8125
v -0.4375 1.25 1.9375
v -0.4375 0.75 2.8125
v -0.4375 0.75 1.9375
v 0.3125 1.0625 1.75
v 0.3125 1.0625 0.625
v 0.3125 0.4375 1.75
v 0.3125 0.4375 0.625
v -0.3125 1.0625 1.75
v -0.3125 1.0625 0.625
v -0.3125 0.4375 1.75
v -0.3125 0.4375 0.625
v 0.4375 1.25 1.625
v 0.4375 1.25 0.75
v 0.4375 0.75 1.625
v 0.4375 0.75 0.75
v -0.4375 1.25 1.625
v -0.4375 1.25 0.75
v -0.4375 0.75 1.625
v -0.4375 0.75 0.75
v 0.3125 1.0625 2.9375
v 0.3125 1.0625 1.8125
v 0.3125 0.4375 2.9375
v 0.3125 0.4375 1.8125
v -0.3125 1.0625 2.9375
v -0.3125 1.0625 1.8125
v -0.3125 0.4375 2.9375
v -0.3125 0.4375 1.8125
v -0.43125 1.38125 2.69375
v -0.43125 1.38125 2.05625
v -0.43125 0.68125 2.69375
v -0.43125 0.68125 2.05625
v -0.75625 1.38125 2.69375
v -0.75625 1.38125 2.05625
v -0.75625 0.68125 2.69375
v -0.75625 0.68125 2.05625
v 0.7562500000000001 1.38125 2.69375
v 0.7562500000000001 1.38125 2.05625
v 0.7562500000000001 0.68125 2.69375
v 0.7562500000000001 0.68125 2.05625
v 0.43125 1.38125 2.69375
v 0.43125 1.38125 2.05625
v 0.43125 0.68125 2.69375
v 0.43125 0.68125 2.05625
v 0.44508250000000005 0.809359375 2.6875
v 0.44508250000000005 0.809359375 2.5
v 0.5334706250000001 0.720970625 2.6875
v 0.5334706250000001 0.720970625 2.5
v 0.22411187499999996 0.588388125 2.6875
v 0.22411187499999996 0.588388125 2.5
v 0.3125 0.5 2.6875
v 0.3125 0.5 2.5
v 0.44508250000000005 0.809359375 2.25
v 0.44508250000000005 0.809359375 2.0625
v 0.5334706250000001 0.720970625 2.25
v 0.5334706250000001 0.720970625 2.0625
v 0.22411187499999996 0.588388125 2.25
v 0.22411187499999996 0.588388125 2.0625
v 0.3125 0.5 2.25
v 0.3125 0.5 2.0625
v -0.22411187500000002 0.588388125 2.25
v -0.22411187500000002 0.588388125 2.0625
v -0.3125 0.5 2.25
v -0.3125 0.5 2.0625
v -0.4450825 0.809359375 2.25
v -0.4450825 0.809359375 2.0625
v -0.533470625 0.720970625 2.25
v -0.533470625 0.720970625 2.0625
v -0.22411187500000002 0.588388125 2.6875
v -0.22411187500000002 0.588388125 2.5
v -0.3125 0.5 2.6875
v -0.3125 0.5 2.5
v -0.4450825 0.809359375 2.6875
v -0.4450825 0.809359375 2.5
v -0.533470625 0.720970625 2.6875
v -0.533470625 0.720970625 2.5
v 1.3125 0.6875 -2.625
v 1.3125 0.6875 -2.75
v 1.3125 0.4375 -2.625
v 1.3125 0.4375 -2.75
v 1.1875 0.6875 -2.625
v 1.1875 0.6875 -2.75
v 1.1875 0.4375 -2.625
v 1.1875 0.4375 -2.75
v 1.3125 0.4375 -2.625
v 1.3125 0.4375 -3.8125
v 1.3125 0.3125 -2.625
v 1.3125 0.3125 -3.8125
v 1.1875 0.4375 -2.625
v 1.1875 0.4375 -3.8125
v 1.1875 0.3125 -2.625
v 1.1875 0.3125 -3.8125
v 1.3125 0.5625 -3.25
v 1.3125 0.5625 -3.8125
v 1.3125 0.4375 -3.25
v 1.3125 0.4375 -3.8125
v 1.1875 0.5625 -3.25
v 1.1875 0.5625 -3.8125
v 1.1875 0.4375 -3.25
v 1.1875 0.4375 -3.8125
v -1.1875 0.6875 -2.625
v -1.1875 0.6875 -2.75
v -1.1875 0.4375 -2.625
v -1.1875 0.4375 -2.75
v -1.3125 0.6875 -2.625
v -1.3125 0.6875 -2.75
v -1.3125 0.4375 -2.625
v -1.3125 0.4375 -2.75
v -1.1875 0.4375 -2.625
v -1.1875 0.4375 -3.8125
v -1.1875 0.3125 -2.625
v -1.1875 0.3125 -3.8125
v -1.3125 0.4375 -2.625
v -1.3125 0.4375 -3.8125
v -1.3125 0.3125 -2.625
v -1.3125 0.3125 -3.8125
v -1.1875 0.5625 -3.25
v -1.1875 0.5625 -3.8125
v -1.1875 0.4375 -3.25
v -1.1875 0.4375 -3.8125
v -1.3125 0.5625 -3.25
v -1.3125 0.5625 -3.8125
v -1.3125 0.4375 -3.25
v -1.3125 0.4375 -3.8125
v 0.25 1.5 0.25
v 0.25 1.5 -0.25
v 0.25 1.25 0.25
v 0.25 1.25 -0.25
v -0.25 1.5 0.25
v -0.25 1.5 -0.25
v -0.25 1.25 0.25
v -0.25 1.25 -0.25
v -1 1.375 -2.4375
v -1 1.375 -2.5
v -1 0.625 -2.4375
v -1 0.625 -2.5
v -1.5 1.375 -2.4375
v -1.5 1.375 -2.5
v -1.5 0.625 -2.4375
v -1.5 0.625 -2.5
v -0.9375 1.4375 -2.5
v -0.9375 1.4375 -3.5
v -0.9375 0.5625 -2.5
v -0.9375 0.5625 -3.5
v -1.5625 1.4375 -2.5
v -1.5625 1.4375 -3.5
v -1.5625 0.5625 -2.5
v -1.5625 0.5625 -3.5
v -1 1.375 -3.5
v -1 1.375 -3.5625
v -1 0.625 -3.5
v -1 0.625 -3.5625
v -1.5 1.375 -3.5
v -1.5 1.375 -3.5625
v -1.5 0.625 -3.5
v -1.5 0.625 -3.5625
v 1.5 1.375 -2.4375
v 1.5 1.375 -2.5
v 1.5 0.625 -2.4375
v 1.5 0.625 -2.5
v 1 1.375 -2.4375
v 1 1.375 -2.5
v 1 0.625 -2.4375
v 1 0.625 -2.5
v 1.5625 1.4375 -2.5
v 1.5625 1.4375 -3.5
v 1.5625 0.5625 -2.5
v 1.5625 0.5625 -3.5
v 0.9375 1.4375 -2.5
v 0.9375 1.4375 -3.5
v 0.9375 0.5625 -2.5
v 0.9375 0.5625 -3.5
v 1.5 1.375 -3.5
v 1.5 1.375 -3.5625
v 1.5 0.625 -3.5
v 1.5 0.625 -3.5625
v 1 1.375 -3.5
v 1 1.375 -3.5625
v 1 0.625 -3.5
v 1 0.625 -3.5625
v -1.1859375 0.8125 -1.1875
v -1.1859375 0.8125 -2.5
v -1.1859375 0.6875 -1.1875
v -1.1859375 0.6875 -2.5
v -1.3109375 0.8125 -1.1875
v -1.3109375 0.8125 -2.5
v -1.3109375 0.6875 -1.1875
v -1.3109375 0.6875 -2.5
v -1.1859375 1.3125 -1.1875
v -1.1859375 1.3125 -2.5
v -1.1859375 1.1875 -1.1875
v -1.1859375 1.1875 -2.5
v -1.3109375 1.3125 -1.1875
v -1.3109375 1.3125 -2.5
v -1.3109375 1.1875 -1.1875
v -1.3109375 1.1875 -2.5
v 1.3109375 0.8125 -1.1875
v 1.3109375 0.8125 -2.5
v 1.3109375 0.6875 -1.1875
v 1.3109375 0.6875 -2.5
v 1.1859375 0.8125 -1.1875
v 1.1859375 0.8125 -2.5
v 1.1859375 0.6875 -1.1875
v 1.1859375 0.6875 -2.5
v 1.3109375 1.3125 -1.1875
v 1.3109375 1.3125 -2.5
v 1.3109375 1.1875 -1.1875
v 1.3109375 1.1875 -2.5
v 1.1859375 1.3125 -1.1875
v 1.1859375 1.3125 -2.5
v 1.1859375 1.1875 -1.1875
v 1.1859375 1.1875 -2.5
vt 0.5 0.25
vt 0.5 0.5
vt 0.75 0.5
vt 0.75 0.25
vt 0.34375 0.03125
vt 0.34375 0.28125
vt 0.59375 0.28125
vt 0.59375 0.03125
vt 0.65625 0.25
vt 0.65625 0
vt 0.8125 0
vt 0.8125 0.25
vt 0.5 0
vt 0.5 0.25
vt 0.65625 0.25
vt 0.65625 0
vt 0.65625 0
vt 0.65625 0.25
vt 0.8125 0.25
vt 0.8125 0
vt 0.65625 0
vt 0.65625 0.25
vt 0.5 0.25
vt 0.5 0
vt 0.625 0
vt 0.625 0.3125
vt 0.3125 0.3125
vt 0.3125 0
vt 0.625 0
vt 0.625 0.3125
vt 0.3125 0.3125
vt 0.3125 0
vt 0.9375 0.3125
vt 0.9375 0
vt 0.625 0
vt 0.625 0.3125
vt 0.9375 0.3125
vt 0.9375 0
vt 0.625 0
vt 0.625 0.3125
vt 0.625 0
vt 0.625 0.3125
vt 0.3125 0.3125
vt 0.3125 0
vt 0.625 0
vt 0.625 0.3125
vt 0.9375 0.3125
vt 0.9375 0
vt 0.71875 0.375
vt 0.71875 0.46875
vt 0.625 0.46875
vt 0.625 0.375
vt 0.71875 0.375
vt 0.71875 0.46875
vt 0.625 0.46875
vt 0.625 0.375
vt 0.8125 0.375
vt 0.8125 0.46875
vt 0.71875 0.46875
vt 0.71875 0.375
vt 0.71875 0.375
vt 0.71875 0.46875
vt 0.625 0.46875
vt 0.625 0.375
vt 0.71875 0.375
vt 0.71875 0.46875
vt 0.625 0.46875
vt 0.625 0.375
vt 0.59375 0.03125
vt 0.59375 0.28125
vt 0.34375 0.28125
vt 0.34375 0.03125
vt 0.75 0.25
vt 0.75 0.5
vt 0.5 0.5
vt 0.5 0.25
vt 0.8125 0.25
vt 0.8125 0
vt 0.65625 0
vt 0.65625 0.25
vt 0.65625 0
vt 0.65625 0.25
vt 0.5 0.25
vt 0.5 0
vt 0.8125 0
vt 0.8125 0.25
vt 0.65625 0.25
vt 0.65625 0
vt 0.5 0
vt 0.5 0.25
vt 0.65625 0.25
vt 0.65625 0
vt 0.59375 0.03125
vt 0.59375 0.28125
vt 0.34375 0.28125
vt 0.34375 0.03125
vt 0.75 0.25
vt 0.75 0.5
vt 0.5 0.5
vt 0.5 0.25
vt 0.8125 0
vt 0.8125 0.25
vt 0.65625 0.25
vt 0.65625 0
vt 0.65625 0
vt 0.65625 0.25
vt 0.5 0.25
vt 0.5 0
vt 0.65625 0
vt 0.65625 0.25
vt 0.5 0.25
vt 0.5 0
vt 0.65625 0
vt 0.65625 0.25
vt 0.8125 0.25
vt 0.8125 0
vt 0.625 0
vt 0.625 0.3125
vt 0.3125 0.3125
vt 0.3125 0
vt 0.625 0
vt 0.625 0.3125
vt 0.3125 0.3125
vt 0.3125 0
vt 0.9375 0.3125
vt 0.9375 0
vt 0.625 0
vt 0.625 0.3125
vt 0.9375 0.3125
vt 0.9375 0
vt 0.625 0
vt 0.625 0.3125
vt 0.9375 0
vt 0.9375 0.3125
vt 0.625 0.3125
vt 0.625 0
vt 0.3125 0
vt 0.3125 0.3125
vt 0.625 0.3125
vt 0.625 0
vt 0.5 0.25
vt 0.5 0.5
vt 0.75 0.5
vt 0.75 0.25
vt 0.34375 0.03125
vt 0.34375 0.28125
vt 0.59375 0.28125
vt 0.59375 0.03125
vt 0.65625 0
vt 0.65625 0.25
vt 0.8125 0.25
vt 0.8125 0
vt 0.5 0
vt 0.5 0.25
vt 0.65625 0.25
vt 0.65625 0
vt 0.5 0
vt 0.5 0.25
vt 0.65625 0.25
vt 0.65625 0
vt 0.8125 0
vt 0.8125 0.25
vt 0.65625 0.25
vt 0.65625 0
vt 0.3125 0.5625
vt 0 0.5625
vt 0 0
vt 0.3125 0
vt 0.3125 0.5625
vt 0 0.5625
vt 0 0
vt 0.3125 0
vt 0.3125 0
vt 0.3125 0.5625
vt 0 0.5625
vt 0 0
vt 0.3125 0
vt 0.3125 0.5625
vt 0 0.5625
vt 0 0
vt 1 0.6875
vt 1 1
vt 0.6875 1
vt 0.6875 0.6875
vt 1 0.6875
vt 1 1
vt 0.6875 1
vt 0.6875 0.6875
vt 0.6875 1
vt 0.4375 1
vt 0.4375 0.5625
vt 0.6875 0.5625
vt 0.6875 1
vt 0.4375 1
vt 0.4375 0.5625
vt 0.6875 0.5625
vt 0 0.5625
vt 0 1
vt 0.4375 1
vt 0.4375 0.5625
vt 0 0.5625
vt 0 1
vt 0.4375 1
vt 0.4375 0.5625
vt 0.75 0.3125
vt 0.75 0.5625
vt 0.3125 0.5625
vt 0.3125 0.3125
vt 0.75 0.3125
vt 0.75 0.5625
vt 0.3125 0.5625
vt 0.3125 0.3125
vt 0.5 0.65625
vt 0.5 1
vt 0.8125 1
vt 0.8125 0.65625
vt 0.5 0.65625
vt 0.5 1
vt 0.8125 1
vt 0.8125 0.65625
vt 0.8125 0.5
vt 0.5 0.5
vt 0.5 0.65625
vt 0.8125 0.65625
vt 0.8125 0.5
vt 0.5 0.5
vt 0.5 0.65625
vt 0.8125 0.65625
vt 0.8125 0.65625
vt 0.8125 1
vt 0.96875 1
vt 0.96875 0.65625
vt 0.8125 0.65625
vt 0.8125 1
vt 0.96875 1
vt 0.96875 0.65625
vt 0.8125 0.65625
vt 0.8125 1
vt 0.5 1
vt 0.5 0.65625
vt 0.8125 0.65625
vt 0.8125 1
vt 0.5 1
vt 0.5 0.65625
vt 0.8125 0.65625
vt 0.5 0.65625
vt 0.5 0.5
vt 0.8125 0.5
vt 0.8125 0.65625
vt 0.5 0.65625
vt 0.5 0.5
vt 0.8125 0.5
vt 0.96875 0.65625
vt 0.96875 1
vt 0.8125 1
vt 0.8125 0.65625
vt 0.96875 0.65625
vt 0.96875 1
vt 0.8125 1
vt 0.8125 0.65625
vt 0.71875 0.625
vt 0.71875 0.6875
vt 0.6875 0.6875
vt 0.6875 0.625
vt 0.71875 0.625
vt 0.71875 0.6875
vt 0.6875 0.6875
vt 0.6875 0.625
vt 0.90625 0.53125
vt 0.8125 0.53125
vt 0.8125 0.375
vt 0.90625 0.375
vt 0.90625 0.53125
vt 0.8125 0.53125
vt 0.8125 0.375
vt 0.90625 0.375
vt 0.8125 0.53125
vt 0.75 0.53125
vt 0.75 0.375
vt 0.8125 0.375
vt 0.8125 0.53125
vt 0.75 0.53125
vt 0.75 0.375
vt 0.8125 0.375
vt 0.71875 0.625
vt 0.71875 0.6875
vt 0.6875 0.6875
vt 0.6875 0.625
vt 0.71875 0.625
vt 0.71875 0.6875
vt 0.6875 0.6875
vt 0.6875 0.625
vt 0.90625 0.53125
vt 0.8125 0.53125
vt 0.8125 0.375
vt 0.90625 0.375
vt 0.90625 0.53125
vt 0.8125 0.53125
vt 0.8125 0.375
vt 0.90625 0.375
vt 0.8125 0.53125
vt 0.75 0.53125
vt 0.75 0.375
vt 0.8125 0.375
vt 0.8125 0.53125
vt 0.75 0.53125
vt 0.75 0.375
vt 0.8125 0.375
vt 0.6875 0.625
vt 0.6875 0.6875
vt 0.71875 0.6875
vt 0.71875 0.625
vt 0.6875 0.625
vt 0.6875 0.6875
vt 0.71875 0.6875
vt 0.71875 0.625
vt 0.90625 0.375
vt 0.8125 0.375
vt 0.8125 0.53125
vt 0.90625 0.53125
vt 0.90625 0.375
vt 0.8125 0.375
vt 0.8125 0.53125
vt 0.90625 0.53125
vt 0.8125 0.375
vt 0.75 0.375
vt 0.75 0.53125
vt 0.8125 0.53125
vt 0.8125 0.375
vt 0.75 0.375
vt 0.75 0.53125
vt 0.8125 0.53125
vt 0.6875 0.625
vt 0.6875 0.6875
vt 0.71875 0.6875
vt 0.71875 0.625
vt 0.6875 0.625
vt 0.6875 0.6875
vt 0.71875 0.6875
vt 0.71875 0.625
vt 0.90625 0.375
vt 0.8125 0.375
vt 0.8125 0.53125
vt 0.90625 0.53125
vt 0.90625 0.375
vt 0.8125 0.375
vt 0.8125 0.53125
vt 0.90625 0.53125
vt 0.8125 0.375
vt 0.75 0.375
vt 0.75 0.53125
vt 0.8125 0.53125
vt 0.8125 0.375
vt 0.75 0.375
vt 0.75 0.53125
vt 0.8125 0.53125
vt 0.3125 0.5625
vt 0 0.5625
vt 0 0
vt 0.3125 0
vt 0.3125 0.5625
vt 0 0.5625
vt 0 0
vt 0.3125 0
vt 0.3125 0
vt 0.3125 0.5625
vt 0 0.5625
vt 0 0
vt 0.3125 0
vt 0.3125 0.5625
vt 0 0.5625
vt 0 0
vt 1 0.6875
vt 1 1
vt 0.6875 1
vt 0.6875 0.6875
vt 1 0.6875
vt 1 1
vt 0.6875 1
vt 0.6875 0.6875
vt 0.6875 1
vt 0.4375 1
vt 0.4375 0.5625
vt 0.6875 0.5625
vt 0.6875 1
vt 0.4375 1
vt 0.4375 0.5625
vt 0.6875 0.5625
vt 0 0.5625
vt 0 1
vt 0.4375 1
vt 0.4375 0.5625
vt 0 0.5625
vt 0 1
vt 0.4375 1
vt 0.4375 0.5625
vt 0.75 0.3125
vt 0.75 0.5625
vt 0.3125 0.5625
vt 0.3125 0.3125
vt 0.75 0.3125
vt 0.75 0.5625
vt 0.3125 0.5625
vt 0.3125 0.3125
vt 0.8125 0.65625
vt 0.8125 1
vt 0.5 1
vt 0.5 0.65625
vt 0.8125 0.65625
vt 0.8125 1
vt 0.5 1
vt 0.5 0.65625
vt 0.8125 0.65625
vt 0.5 0.65625
vt 0.5 0.5
vt 0.8125 0.5
vt 0.8125 0.65625
vt 0.5 0.65625
vt 0.5 0.5
vt 0.8125 0.5
vt 0.96875 0.65625
vt 0.96875 1
vt 0.8125 1
vt 0.8125 0.65625
vt 0.96875 0.65625
vt 0.96875 1
vt 0.8125 1
vt 0.8125 0.65625
vt 0.5 0.65625
vt 0.5 1
vt 0.8125 1
vt 0.8125 0.65625
vt 0.5 0.65625
vt 0.5 1
vt 0.8125 1
vt 0.8125 0.65625
vt 0.8125 0.5
vt 0.5 0.5
vt 0.5 0.65625
vt 0.8125 0.65625
vt 0.8125 0.5
vt 0.5 0.5
vt 0.5 0.65625
vt 0.8125 0.65625
vt 0.8125 0.65625
vt 0.8125 1
vt 0.96875 1
vt 0.96875 0.65625
vt 0.8125 0.65625
vt 0.8125 1
vt 0.96875 1
vt 0.96875 0.65625
vt 0.71875 0.625
vt 0.71875 0.6875
vt 0.6875 0.6875
vt 0.6875 0.625
vt 0.71875 0.625
vt 0.71875 0.6875
vt 0.6875 0.6875
vt 0.6875 0.625
vt 0.90625 0.53125
vt 0.8125 0.53125
vt 0.8125 0.375
vt 0.90625 0.375
vt 0.90625 0.53125
vt 0.8125 0.53125
vt 0.8125 0.375
vt 0.90625 0.375
vt 0.8125 0.53125
vt 0.75 0.53125
vt 0.75 0.375
vt 0.8125 0.375
vt 0.8125 0.53125
vt 0.75 0.53125
vt 0.75 0.375
vt 0.8125 0.375
vt 0.71875 0.625
vt 0.71875 0.6875
vt 0.6875 0.6875
vt 0.6875 0.625
vt 0.71875 0.625
vt 0.71875 0.6875
vt 0.6875 0.6875
vt 0.6875 0.625
vt 0.90625 0.53125
vt 0.8125 0.53125
vt 0.8125 0.375
vt 0.90625 0.375
vt 0.90625 0.53125
vt 0.8125 0.53125
vt 0.8125 0.375
vt 0.90625 0.375
vt 0.8125 0.53125
vt 0.75 0.53125
vt 0.75 0.375
vt 0.8125 0.375
vt 0.8125 0.53125
vt 0.75 0.53125
vt 0.75 0.375
vt 0.8125 0.375
vt 0.6875 0.625
vt 0.6875 0.6875
vt 0.71875 0.6875
vt 0.71875 0.625
vt 0.6875 0.625
vt 0.6875 0.6875
vt 0.71875 0.6875
vt 0.71875 0.625
vt 0.90625 0.375
vt 0.8125 0.375
vt 0.8125 0.53125
vt 0.90625 0.53125
vt 0.90625 0.375
vt 0.8125 0.375
vt 0.8125 0.53125
vt 0.90625 0.53125
vt 0.8125 0.375
vt 0.75 0.375
vt 0.75 0.53125
vt 0.8125 0.53125
vt 0.8125 0.375
vt 0.75 0.375
vt 0.75 0.53125
vt 0.8125 0.53125
vt 0.6875 0.625
vt 0.6875 0.6875
vt 0.71875 0.6875
vt 0.71875 0.625
vt 0.6875 0.625
vt 0.6875 0.6875
vt 0.71875 0.6875
vt 0.71875 0.625
vt 0.90625 0.375
vt 0.8125 0.375
vt 0.8125 0.53125
vt 0.90625 0.53125
vt 0.90625 0.375
vt 0.8125 0.375
vt 0.8125 0.53125
vt 0.90625 0.53125
vt 0.8125 0.375
vt 0.75 0.375
vt 0.75 0.53125
vt 0.8125 0.53125
vt 0.8125 0.375
vt 0.75 0.375
vt 0.75 0.53125
vt 0.8125 0.53125
vt 0.6875 1
vt 0.4375 1
vt 0.4375 0.5625
vt 0.6875 0.5625
vt 0.6875 1
vt 0.4375 1
vt 0.4375 0.5625
vt 0.6875 0.5625
vt 0 0.5625
vt 0 1
vt 0.4375 1
vt 0.4375 0.5625
vt 0 0.5625
vt 0 1
vt 0.4375 1
vt 0.4375 0.5625
vt 0.75 0.3125
vt 0.75 0.5625
vt 0.3125 0.5625
vt 0.3125 0.3125
vt 0.75 0.3125
vt 0.75 0.5625
vt 0.3125 0.5625
vt 0.3125 0.3125
vt 0.3125 0.5625
vt 0 0.5625
vt 0 0
vt 0.3125 0
vt 0.3125 0.5625
vt 0 0.5625
vt 0 0
vt 0.3125 0
vt 0.3125 0
vt 0.3125 0.5625
vt 0 0.5625
vt 0 0
vt 0.3125 0
vt 0.3125 0.5625
vt 0 0.5625
vt 0 0
vt 1 0.6875
vt 1 1
vt 0.6875 1
vt 0.6875 0.6875
vt 1 0.6875
vt 1 1
vt 0.6875 1
vt 0.6875 0.6875
vt 0.6875 1
vt 0.4375 1
vt 0.4375 0.5625
vt 0.6875 0.5625
vt 0.6875 1
vt 0.4375 1
vt 0.4375 0.5625
vt 0.6875 0.5625
vt 0 0.5625
vt 0 1
vt 0.4375 1
vt 0.4375 0.5625
vt 0 0.5625
vt 0 1
vt 0.4375 1
vt 0.4375 0.5625
vt 0.75 0.3125
vt 0.75 0.5625
vt 0.3125 0.5625
vt 0.3125 0.3125
vt 0.75 0.3125
vt 0.75 0.5625
vt 0.3125 0.5625
vt 0.3125 0.3125
vt 0.3125 0.5625
vt 0 0.5625
vt 0 0
vt 0.3125 0
vt 0.3125 0.5625
vt 0 0.5625
vt 0 0
vt 0.3125 0
vt 0.3125 0
vt 0.3125 0.5625
vt 0 0.5625
vt 0 0
vt 0.3125 0
vt 0.3125 0.5625
vt 0 0.5625
vt 0 0
vt 1 0.6875
vt 1 1
vt 0.6875 1
vt 0.6875 0.6875
vt 1 0.6875
vt 1 1
vt 0.6875 1
vt 0.6875 0.6875
vt 0.8125 0.65625
vt 0.8125 1
vt 0.5 1
vt 0.5 0.65625
vt 0.8125 0.65625
vt 0.8125 1
vt 0.5 1
vt 0.5 0.65625
vt 0.8125 0.65625
vt 0.5 0.65625
vt 0.5 0.5
vt 0.8125 0.5
vt 0.8125 0.65625
vt 0.5 0.65625
vt 0.5 0.5
vt 0.8125 0.5
vt 0.96875 0.65625
vt 0.96875 1
vt 0.8125 1
vt 0.8125 0.65625
vt 0.96875 0.65625
vt 0.96875 1
vt 0.8125 1
vt 0.8125 0.65625
vt 0.5 0.65625
vt 0.5 1
vt 0.8125 1
vt 0.8125 0.65625
vt 0.5 0.65625
vt 0.5 1
vt 0.8125 1
vt 0.8125 0.65625
vt 0.8125 0.5
vt 0.5 0.5
vt 0.5 0.65625
vt 0.8125 0.65625
vt 0.8125 0.5
vt 0.5 0.5
vt 0.5 0.65625
vt 0.8125 0.65625
vt 0.8125 0.65625
vt 0.8125 1
vt 0.96875 1
vt 0.96875 0.65625
vt 0.8125 0.65625
vt 0.8125 1
vt 0.96875 1
vt 0.96875 0.65625
vt 0.71875 0.625
vt 0.71875 0.6875
vt 0.6875 0.6875
vt 0.6875 0.625
vt 0.71875 0.625
vt 0.71875 0.6875
vt 0.6875 0.6875
vt 0.6875 0.625
vt 0.90625 0.53125
vt 0.8125 0.53125
vt 0.8125 0.375
vt 0.90625 0.375
vt 0.90625 0.53125
vt 0.8125 0.53125
vt 0.8125 0.375
vt 0.90625 0.375
vt 0.8125 0.53125
vt 0.75 0.53125
vt 0.75 0.375
vt 0.8125 0.375
vt 0.8125 0.53125
vt 0.75 0.53125
vt 0.75 0.375
vt 0.8125 0.375
vt 0.71875 0.625
vt 0.71875 0.6875
vt 0.6875 0.6875
vt 0.6875 0.625
vt 0.71875 0.625
vt 0.71875 0.6875
vt 0.6875 0.6875
vt 0.6875 0.625
vt 0.90625 0.53125
vt 0.8125 0.53125
vt 0.8125 0.375
vt 0.90625 0.375
vt 0.90625 0.53125
vt 0.8125 0.53125
vt 0.8125 0.375
vt 0.90625 0.375
vt 0.8125 0.53125
vt 0.75 0.53125
vt 0.75 0.375
vt 0.8125 0.375
vt 0.8125 0.53125
vt 0.75 0.53125
vt 0.75 0.375
vt 0.8125 0.375
vt 0.6875 0.625
vt 0.6875 0.6875
vt 0.71875 0.6875
vt 0.71875 0.625
vt 0.6875 0.625
vt 0.6875 0.6875
vt 0.71875 0.6875
vt 0.71875 0.625
vt 0.90625 0.375
vt 0.8125 0.375
vt 0.8125 0.53125
vt 0.90625 0.53125
vt 0.90625 0.375
vt 0.8125 0.375
vt 0.8125 0.53125
vt 0.90625 0.53125
vt 0.8125 0.375
vt 0.75 0.375
vt 0.75 0.53125
vt 0.8125 0.53125
vt 0.8125 0.375
vt 0.75 0.375
vt 0.75 0.53125
vt 0.8125 0.53125
vt 0.6875 0.625
vt 0.6875 0.6875
vt 0.71875 0.6875
vt 0.71875 0.625
vt 0.6875 0.625
vt 0.6875 0.6875
vt 0.71875 0.6875
vt 0.71875 0.625
vt 0.90625 0.375
vt 0.8125 0.375
vt 0.8125 0.53125
vt 0.90625 0.53125
vt 0.90625 0.375
vt 0.8125 0.375
vt 0.8125 0.53125
vt 0.90625 0.53125
vt 0.8125 0.375
vt 0.75 0.375
vt 0.75 0.53125
vt 0.8125 0.53125
vt 0.8125 0.375
vt 0.75 0.375
vt 0.75 0.53125
vt 0.8125 0.53125
vt 0.0625 0.0625
vt 0.0625 0.1875
vt 0 0.1875
vt 0 0.0625
vt 0.0625 0.0625
vt 0.0625 0.1875
vt 0 0.1875
vt 0 0.0625
vt 0.0625 0.0625
vt 0.0625 0.1875
vt 0 0.1875
vt 0 0.0625
vt 0.0625 0.0625
vt 0.0625 0.1875
vt 0 0.1875
vt 0 0.0625
vt 0.59375 0
vt 0.59375 0.0625
vt 0 0.0625
vt 0 0
vt 0 0.0625
vt 0 0
vt 0.59375 0
vt 0.59375 0.0625
vt 0 0.0625
vt 0.59375 0.0625
vt 0.59375 0
vt 0 0
vt 0.59375 0
vt 0 0
vt 0 0.0625
vt 0.59375 0.0625
vt 0.25 0.0625
vt 0.25 0.125
vt 0.1875 0.125
vt 0.1875 0.0625
vt 0.1875 0.0625
vt 0.1875 0.125
vt 0.125 0.125
vt 0.125 0.0625
vt 0.59375 0.0625
vt 0.59375 0.125
vt 0.3125 0.125
vt 0.3125 0.0625
vt 0.3125 0.125
vt 0.3125 0.0625
vt 0.59375 0.0625
vt 0.59375 0.125
vt 0.3125 0.125
vt 0.59375 0.125
vt 0.59375 0.0625
vt 0.3125 0.0625
vt 0.3125 0.125
vt 0.59375 0.125
vt 0.59375 0.0625
vt 0.3125 0.0625
vt 0.3125 0.0625
vt 0.3125 0.125
vt 0.25 0.125
vt 0.25 0.0625
vt 0.1875 0.0625
vt 0.1875 0.125
vt 0.125 0.125
vt 0.125 0.0625
vt 0 0.0625
vt 0 0.1875
vt 0.0625 0.1875
vt 0.0625 0.0625
vt 0 0.0625
vt 0 0.1875
vt 0.0625 0.1875
vt 0.0625 0.0625
vt 0 0.0625
vt 0 0.1875
vt 0.0625 0.1875
vt 0.0625 0.0625
vt 0 0.0625
vt 0 0.1875
vt 0.0625 0.1875
vt 0.0625 0.0625
vt 0.59375 0.0625
vt 0.59375 0
vt 0 0
vt 0 0.0625
vt 0 0
vt 0 0.0625
vt 0.59375 0.0625
vt 0.59375 0
vt 0 0
vt 0.59375 0
vt 0.59375 0.0625
vt 0 0.0625
vt 0.59375 0.0625
vt 0 0.0625
vt 0 0
vt 0.59375 0
vt 0.1875 0.0625
vt 0.1875 0.125
vt 0.25 0.125
vt 0.25 0.0625
vt 0.125 0.0625
vt 0.125 0.125
vt 0.1875 0.125
vt 0.1875 0.0625
vt 0.59375 0.125
vt 0.59375 0.0625
vt 0.3125 0.0625
vt 0.3125 0.125
vt 0.3125 0.0625
vt 0.3125 0.125
vt 0.59375 0.125
vt 0.59375 0.0625
vt 0.3125 0.0625
vt 0.59375 0.0625
vt 0.59375 0.125
vt 0.3125 0.125
vt 0.3125 0.0625
vt 0.59375 0.0625
vt 0.59375 0.125
vt 0.3125 0.125
vt 0.25 0.0625
vt 0.25 0.125
vt 0.3125 0.125
vt 0.3125 0.0625
vt 0.125 0.0625
vt 0.125 0.125
vt 0.1875 0.125
vt 0.1875 0.0625
vt 0.29166669642857146 0.33333330357142865
vt 0.29166669642857146 0.41666669642857135
vt 0.125 0.41666669642857135
vt 0.125 0.33333330357142865
vt 0.29166669642857146 0.33333330357142865
vt 0.29166669642857146 0.41666669642857135
vt 0.125 0.41666669642857135
vt 0.125 0.33333330357142865
vt 0.29166669642857146 0.33333330357142865
vt 0.29166669642857146 0.41666669642857135
vt 0.125 0.41666669642857135
vt 0.125 0.33333330357142865
vt 0.29166669642857146 0.33333330357142865
vt 0.29166669642857146 0.41666669642857135
vt 0.125 0.41666669642857135
vt 0.125 0.33333330357142865
vt 0.5535714285714286 0.4553571428571429
vt 0.5535714285714286 0.5625
vt 0.5446428571428571 0.5625
vt 0.5446428571428571 0.4553571428571429
vt 0.49107142857142855 0.4553571428571429
vt 0.49107142857142855 0.5625
vt 0.48214285714285715 0.5625
vt 0.48214285714285715 0.4553571428571429
vt 0.5535714285714286 0.5535714285714286
vt 0.5535714285714286 0.5625
vt 0.48214285714285715 0.5625
vt 0.48214285714285715 0.5535714285714286
vt 0.5535714285714286 0.4553571428571429
vt 0.5535714285714286 0.4642857142857143
vt 0.48214285714285715 0.4642857142857143
vt 0.48214285714285715 0.4553571428571429
vt 0.5535714285714286 0.4553571428571429
vt 0.5535714285714286 0.5625
vt 0.48214285714285715 0.5625
vt 0.48214285714285715 0.4553571428571429
vt 0.35714285714285715 0.0625
vt 0.35714285714285715 0.1875
vt 0.21428571428571427 0.1875
vt 0.21428571428571427 0.0625
vt 0.21428571428571427 0.0625
vt 0.21428571428571427 0.1875
vt 0.35714285714285715 0.1875
vt 0.35714285714285715 0.0625
vt 0.35714285714285715 0.4732142857142857
vt 0.21428571428571427 0.4732142857142857
vt 0.21428571428571427 0.5625
vt 0.35714285714285715 0.5625
vt 0.35714285714285715 0.4732142857142857
vt 0.21428571428571427 0.4732142857142857
vt 0.21428571428571427 0.5625
vt 0.35714285714285715 0.5625
vt 0.48214285714285715 0.4732142857142857
vt 0.35714285714285715 0.4732142857142857
vt 0.35714285714285715 0.5625
vt 0.48214285714285715 0.5625
vt 0.48214285714285715 0.4732142857142857
vt 0.35714285714285715 0.4732142857142857
vt 0.35714285714285715 0.5625
vt 0.48214285714285715 0.5625
vt 0.5714285714285714 0.3125
vt 0.5714285714285714 0.4196428571428571
vt 0.5625 0.4196428571428571
vt 0.5625 0.3125
vt 0.6339285714285714 0.3125
vt 0.6339285714285714 0.4196428571428571
vt 0.625 0.4196428571428571
vt 0.625 0.3125
vt 0.5625 0.4107142857142857
vt 0.5625 0.4196428571428571
vt 0.6339285714285714 0.4196428571428571
vt 0.6339285714285714 0.4107142857142857
vt 0.5625 0.3125
vt 0.5625 0.3214285714285714
vt 0.6339285714285714 0.3214285714285714
vt 0.6339285714285714 0.3125
vt 0.6339285714285714 0.3125
vt 0.6339285714285714 0.4196428571428571
vt 0.5625 0.4196428571428571
vt 0.5625 0.3125
vt 0.48214285714285715 0.4553571428571429
vt 0.48214285714285715 0.5625
vt 0.49107142857142855 0.5625
vt 0.49107142857142855 0.4553571428571429
vt 0.5446428571428571 0.4553571428571429
vt 0.5446428571428571 0.5625
vt 0.5535714285714286 0.5625
vt 0.5535714285714286 0.4553571428571429
vt 0.48214285714285715 0.5535714285714286
vt 0.48214285714285715 0.5625
vt 0.5535714285714286 0.5625
vt 0.5535714285714286 0.5535714285714286
vt 0.48214285714285715 0.4553571428571429
vt 0.48214285714285715 0.4642857142857143
vt 0.5535714285714286 0.4642857142857143
vt 0.5535714285714286 0.4553571428571429
vt 0.48214285714285715 0.4553571428571429
vt 0.48214285714285715 0.5625
vt 0.5535714285714286 0.5625
vt 0.5535714285714286 0.4553571428571429
vt 0.35714285714285715 0.0625
vt 0.35714285714285715 0.1875
vt 0.21428571428571427 0.1875
vt 0.21428571428571427 0.0625
vt 0.21428571428571427 0.0625
vt 0.21428571428571427 0.1875
vt 0.35714285714285715 0.1875
vt 0.35714285714285715 0.0625
vt 0.35714285714285715 0.5625
vt 0.21428571428571427 0.5625
vt 0.21428571428571427 0.4732142857142857
vt 0.35714285714285715 0.4732142857142857
vt 0.35714285714285715 0.5625
vt 0.21428571428571427 0.5625
vt 0.21428571428571427 0.4732142857142857
vt 0.35714285714285715 0.4732142857142857
vt 0.48214285714285715 0.5625
vt 0.35714285714285715 0.5625
vt 0.35714285714285715 0.4732142857142857
vt 0.48214285714285715 0.4732142857142857
vt 0.48214285714285715 0.5625
vt 0.35714285714285715 0.5625
vt 0.35714285714285715 0.4732142857142857
vt 0.48214285714285715 0.4732142857142857
vt 0.625 0.3125
vt 0.625 0.4196428571428571
vt 0.6339285714285714 0.4196428571428571
vt 0.6339285714285714 0.3125
vt 0.5625 0.3125
vt 0.5625 0.4196428571428571
vt 0.5714285714285714 0.4196428571428571
vt 0.5714285714285714 0.3125
vt 0.6339285714285714 0.4107142857142857
vt 0.6339285714285714 0.4196428571428571
vt 0.5625 0.4196428571428571
vt 0.5625 0.4107142857142857
vt 0.6339285714285714 0.3125
vt 0.6339285714285714 0.3214285714285714
vt 0.5625 0.3214285714285714
vt 0.5625 0.3125
vt 0.5625 0.3125
vt 0.5625 0.4196428571428571
vt 0.6339285714285714 0.4196428571428571
vt 0.6339285714285714 0.3125
vt 0.008928571428571428 0.6785714285714286
vt 0.008928571428571428 0.6607142857142857
vt 0.19642857142857142 0.6607142857142857
vt 0.19642857142857142 0.6785714285714286
vt 0.19642857142857142 0.6607142857142857
vt 0.19642857142857142 0.6785714285714286
vt 0.008928571428571428 0.6785714285714286
vt 0.008928571428571428 0.6607142857142857
vt 0.19642857142857142 0.6607142857142857
vt 0.008928571428571428 0.6607142857142857
vt 0.008928571428571428 0.6785714285714286
vt 0.19642857142857142 0.6785714285714286
vt 0.008928571428571428 0.6785714285714286
vt 0.19642857142857142 0.6785714285714286
vt 0.19642857142857142 0.6607142857142857
vt 0.008928571428571428 0.6607142857142857
vt 0.05357142857142857 0.375
vt 0.07142857142857142 0.375
vt 0.07142857142857142 0.3928571428571429
vt 0.05357142857142857 0.3928571428571429
vt 0.16071428571428573 0.6785714285714286
vt 0.17857142857142858 0.6785714285714286
vt 0.17857142857142858 0.6607142857142857
vt 0.16071428571428573 0.6607142857142857
vt 0.008928571428571428 0.6785714285714286
vt 0.008928571428571428 0.6607142857142857
vt 0.19642857142857142 0.6607142857142857
vt 0.19642857142857142 0.6785714285714286
vt 0.19642857142857142 0.6607142857142857
vt 0.19642857142857142 0.6785714285714286
vt 0.008928571428571428 0.6785714285714286
vt 0.008928571428571428 0.6607142857142857
vt 0.19642857142857142 0.6607142857142857
vt 0.008928571428571428 0.6607142857142857
vt 0.008928571428571428 0.6785714285714286
vt 0.19642857142857142 0.6785714285714286
vt 0.008928571428571428 0.6785714285714286
vt 0.19642857142857142 0.6785714285714286
vt 0.19642857142857142 0.6607142857142857
vt 0.008928571428571428 0.6607142857142857
vt 0.05357142857142857 0.375
vt 0.07142857142857142 0.375
vt 0.07142857142857142 0.3928571428571429
vt 0.05357142857142857 0.3928571428571429
vt 0.16071428571428573 0.6785714285714286
vt 0.17857142857142858 0.6785714285714286
vt 0.17857142857142858 0.6607142857142857
vt 0.16071428571428573 0.6607142857142857
vt 0.008928571428571428 0.6607142857142857
vt 0.008928571428571428 0.6785714285714286
vt 0.19642857142857142 0.6785714285714286
vt 0.19642857142857142 0.6607142857142857
vt 0.19642857142857142 0.6785714285714286
vt 0.19642857142857142 0.6607142857142857
vt 0.008928571428571428 0.6607142857142857
vt 0.008928571428571428 0.6785714285714286
vt 0.19642857142857142 0.6785714285714286
vt 0.008928571428571428 0.6785714285714286
vt 0.008928571428571428 0.6607142857142857
vt 0.19642857142857142 0.6607142857142857
vt 0.008928571428571428 0.6607142857142857
vt 0.19642857142857142 0.6607142857142857
vt 0.19642857142857142 0.6785714285714286
vt 0.008928571428571428 0.6785714285714286
vt 0.05357142857142857 0.3928571428571429
vt 0.07142857142857142 0.3928571428571429
vt 0.07142857142857142 0.375
vt 0.05357142857142857 0.375
vt 0.16071428571428573 0.6607142857142857
vt 0.17857142857142858 0.6607142857142857
vt 0.17857142857142858 0.6785714285714286
vt 0.16071428571428573 0.6785714285714286
vt 0.008928571428571428 0.6607142857142857
vt 0.008928571428571428 0.6785714285714286
vt 0.19642857142857142 0.6785714285714286
vt 0.19642857142857142 0.6607142857142857
vt 0.19642857142857142 0.6785714285714286
vt 0.19642857142857142 0.6607142857142857
vt 0.008928571428571428 0.6607142857142857
vt 0.008928571428571428 0.6785714285714286
vt 0.19642857142857142 0.6785714285714286
vt 0.008928571428571428 0.6785714285714286
vt 0.008928571428571428 0.6607142857142857
vt 0.19642857142857142 0.6607142857142857
vt 0.008928571428571428 0.6607142857142857
vt 0.19642857142857142 0.6607142857142857
vt 0.19642857142857142 0.6785714285714286
vt 0.008928571428571428 0.6785714285714286
vt 0.05357142857142857 0.3928571428571429
vt 0.07142857142857142 0.3928571428571429
vt 0.07142857142857142 0.375
vt 0.05357142857142857 0.375
vt 0.16071428571428573 0.6607142857142857
vt 0.17857142857142858 0.6607142857142857
vt 0.17857142857142858 0.6785714285714286
vt 0.16071428571428573 0.6785714285714286
vn 1 0 0
vn -1 0 0
vn 0 1 0
vn 0 -1 0
vn 0 0 1
vn 0 0 -1
vn 1 0 0
vn -1 0 0
vn 0 1 0
vn 0 -1 0
vn 0 0 1
vn 0 0 -1
vn 1 0 0
vn -1 0 0
vn 0 1 0
vn 0 0 1
vn 0 0 -1
vn 1 0 0
vn -1 0 0
vn 0 1 0
vn 0 -1 0
vn 0 0 1
vn 0 0 -1
vn 1 0 0
vn -1 0 0
vn 0 1 0
vn 0 -1 0
vn 0 0 1
vn 0 0 -1
vn 1 0 0
vn -1 0 0
vn 0 1 0
vn 0 -1 0
vn 0 0 1
vn 0 0 -1
vn 1 0 0
vn -1 0 0
vn 0 1 0
vn 0 -1 0
vn 0 0 1
vn 0 0 -1
vn 1 0 0
vn -1 0 0
vn 0 1 0
vn 0 -1 0
vn 0 0 1
vn 0 0 -1
vn 1 0 0
vn -1 0 0
vn 0 1 0
vn 0 -1 0
vn 0 0 1
vn 0 0 -1
vn 1 0 0
vn -1 0 0
vn 0 1 0
vn 0 -1 0
vn 0 0 1
vn 0 0 -1
vn 1 0 0
vn -1 0 0
vn 0 1 0
vn 0 -1 0
vn 0 0 1
vn 0 0 -1
vn 0.7071092811795866 0.7071042811846696 0
vn -0.7071067811865474 -0.7071067811865478 0
vn -0.7071077811855309 0.7071057811861501 0
vn 0.7071067811865474 -0.7071067811865477 0
vn 0 0 1
vn 0 0 -1
vn 0.7071092811795866 0.7071042811846696 0
vn -0.7071067811865474 -0.7071067811865478 0
vn -0.7071077811855309 0.7071057811861501 0
vn 0.7071067811865474 -0.7071067811865477 0
vn 0 0 1
vn 0 0 -1
vn 0.7071067811865476 -0.7071067811865476 0
vn -0.7071092811795868 0.7071042811846695 0
vn 0.707107781185531 0.7071057811861499 0
vn -0.7071067811865475 -0.7071067811865477 0
vn 0 0 1
vn 0 0 -1
vn 0.7071067811865476 -0.7071067811865476 0
vn -0.7071092811795868 0.7071042811846695 0
vn 0.707107781185531 0.7071057811861499 0
vn -0.7071067811865475 -0.7071067811865477 0
vn 0 0 1
vn 0 0 -1
vn 1 0 0
vn -1 0 0
vn 0 1 0
vn 0 -1 0
vn 0 0 1
vn 0 0 -1
vn 1 0 0
vn -1 0 0
vn 0 1 0
vn 0 -1 0
vn 0 0 1
vn 0 0 -1
vn 1 0 0
vn -1 0 0
vn 0 1 0
vn 0 -1 0
vn 0 0 1
vn 0 0 -1
vn 1 0 0
vn -1 0 0
vn 0 1 0
vn 0 -1 0
vn 0 0 1
vn 0 0 -1
vn 0.7071092811795866 0.7071042811846696 0
vn -0.7071067811865474 -0.7071067811865478 0
vn -0.7071077811855309 0.7071057811861501 0
vn 0.7071067811865474 -0.7071067811865477 0
vn 0 0 1
vn 0 0 -1
vn 0.7071092811795866 0.7071042811846696 0
vn -0.7071067811865474 -0.7071067811865478 0
vn -0.7071077811855309 0.7071057811861501 0
vn 0.7071067811865474 -0.7071067811865477 0
vn 0 0 1
vn 0 0 -1
vn 0.7071067811865476 -0.7071067811865476 0
vn -0.7071092811795868 0.7071042811846695 0
vn 0.707107781185531 0.7071057811861499 0
vn -0.7071067811865475 -0.7071067811865477 0
vn 0 0 1
vn 0 0 -1
vn 0.7071067811865476 -0.7071067811865476 0
vn -0.7071092811795868 0.7071042811846695 0
vn 0.707107781185531 0.7071057811861499 0
vn -0.7071067811865475 -0.7071067811865477 0
vn 0 0 1
vn 0 0 -1
vn 1 0 0
vn -1 0 0
vn 0 1 0
vn 0 -1 0
vn 0 0 1
vn 0 0 -1
vn 1 0 0
vn -1 0 0
vn 0 1 0
vn 0 -1 0
vn 0 0 1
vn 0 0 -1
vn 1 0 0
vn -1 0 0
vn 0 1 0
vn 0 -1 0
vn 0 0 1
vn 0 0 -1
vn 1 0 0
vn -1 0 0
vn 0 1 0
vn 0 -1 0
vn 0 0 1
vn 0 0 -1
vn 1 0 0
vn -1 0 0
vn 0 1 0
vn 0 -1 0
vn 0 0 1
vn 0 0 -1
vn 1 0 0
vn -1 0 0
vn 0 1 0
vn 0 -1 0
vn 0 0 1
vn 0 0 -1
vn 0.7071092811795866 0.7071042811846696 0
vn -0.7071067811865474 -0.7071067811865478 0
vn -0.7071077811855309 0.7071057811861501 0
vn 0.7071067811865474 -0.7071067811865477 0
vn 0 0 1
vn 0 0 -1
vn 0.7071092811795866 0.7071042811846696 0
vn -0.7071067811865474 -0.7071067811865478 0
vn -0.7071077811855309 0.7071057811861501 0
vn 0.7071067811865474 -0.7071067811865477 0
vn 0 0 1
vn 0 0 -1
vn 0.7071067811865476 -0.7071067811865476 0
vn -0.7071092811795868 0.7071042811846695 0
vn 0.707107781185531 0.7071057811861499 0
vn -0.7071067811865475 -0.7071067811865477 0
vn 0 0 1
vn 0 0 -1
vn 0.7071067811865476 -0.7071067811865476 0
vn -0.7071092811795868 0.7071042811846695 0
vn 0.707107781185531 0.7071057811861499 0
vn -0.7071067811865475 -0.7071067811865477 0
vn 0 0 1
vn 0 0 -1
vn 1 0 0
vn -1 0 0
vn 0 0 1
vn 0 0 -1
vn 1 0 0
vn -1 0 0
vn 0 1 0
vn 0 -1 0
vn 0 0 1
vn 0 0 -1
vn 1 0 0
vn -1 0 0
vn 0 1 0
vn 0 -1 0
vn 0 0 1
vn 0 0 -1
vn 1 0 0
vn -1 0 0
vn 0 0 1
vn 0 0 -1
vn 1 0 0
vn -1 0 0
vn 0 1 0
vn 0 -1 0
vn 0 0 1
vn 0 0 -1
vn 1 0 0
vn -1 0 0
vn 0 1 0
vn 0 -1 0
vn 0 0 1
vn 0 0 -1
vn 1 0 0
vn -1 0 0
vn 0 0 1
vn 0 0 -1
vn 1 0 0
vn -1 0 0
vn 0 1 0
vn 0 -1 0
vn 0 0 1
vn 1 0 0
vn -1 0 0
vn 0 1 0
vn 0 -1 0
vn 0 0 1
vn 0 0 -1
vn 1 0 0
vn -1 0 0
vn 0 1 0
vn 0 -1 0
vn 0 0 -1
vn 1 0 0
vn -1 0 0
vn 0 1 0
vn 0 -1 0
vn 0 0 1
vn 1 0 0
vn -1 0 0
vn 0 1 0
vn 0 -1 0
vn 0 0 1
vn 0 0 -1
vn 1 0 0
vn -1 0 0
vn 0 1 0
vn 0 -1 0
vn 0 0 -1
vn 1 0 0
vn -1 0 0
vn 0 1 0
vn 0 -1 0
vn 0 0 1
vn 0 0 -1
vn 1 0 0
vn -1 0 0
vn 0 1 0
vn 0 -1 0
vn 0 0 1
vn 0 0 -1
vn 1 0 0
vn -1 0 0
vn 0 1 0
vn 0 -1 0
vn 0 0 1
vn 0 0 -1
vn 1 0 0
vn -1 0 0
vn 0 1 0
vn 0 -1 0
vn 0 0 1
vn 0 0 -1
usemtl piston
f 5/1/1 3/2/1 2/3/1 4/4/1
usemtl frame
f 8/5/2 6/6/2 7/7/2 9/8/2
usemtl piston
f 2/9/3 3/10/3 7/11/3 6/12/3
f 5/13/4 4/14/4 8/15/4 9/16/4
f 4/17/5 2/18/5 6/19/5 8/20/5
f 9/21/6 7/22/6 3/23/6 5/24/6
usemtl frame
f 13/25/7 11/26/7 10/27/7 12/28/7
f 16/29/8 14/30/8 15/31/8 17/32/8
f 10/33/9 11/34/9 15/35/9 14/36/9
f 13/37/10 12/38/10 16/39/10 17/40/10
f 12/41/11 10/42/11 14/43/11 16/44/11
f 17/45/12 15/46/12 11/47/12 13/48/12
usemtl wheels
f 21/49/13 19/50/13 18/51/13 20/52/13
f 24/53/14 22/54/14 23/55/14 25/56/14
f 18/57/15 19/58/15 23/59/15 22/60/15
f 20/61/16 18/62/16 22/63/16 24/64/16
f 25/65/17 23/66/17 19/67/17 21/68/17
usemtl frame
f 29/69/18 27/70/18 26/71/18 28/72/18
usemtl piston
f 32/73/19 30/74/19 31/75/19 33/76/19
f 26/77/20 27/78/20 31/79/20 30/80/20
f 29/81/21 28/82/21 32/83/21 33/84/21
f 28/85/22 26/86/22 30/87/22 32/88/22
f 33/89/23 31/90/23 27/91/23 29/92/23
usemtl frame
f 37/93/24 35/94/24 34/95/24 36/96/24
usemtl piston
f 40/97/25 38/98/25 39/99/25 41/100/25
f 34/101/26 35/102/26 39/103/26 38/104/26
f 37/105/27 36/106/27 40/107/27 41/108/27
f 36/109/28 34/110/28 38/111/28 40/112/28
f 41/113/29 39/114/29 35/115/29 37/116/29
usemtl frame
f 45/117/30 43/118/30 42/119/30 44/120/30
f 48/121/31 46/122/31 47/123/31 49/124/31
f 42/125/32 43/126/32 47/127/32 46/128/32
f 45/129/33 44/130/33 48/131/33 49/132/33
f 44/133/34 42/134/34 46/135/34 48/136/34
f 49/137/35 47/138/35 43/139/35 45/140/35
usemtl piston
f 53/141/36 51/142/36 50/143/36 52/144/36
usemtl frame
f 56/145/37 54/146/37 55/147/37 57/148/37
usemtl piston
f 50/149/38 51/150/38 55/151/38 54/152/38
f 53/153/39 52/154/39 56/155/39 57/156/39
f 52/157/40 50/158/40 54/159/40 56/160/40
f 57/161/41 55/162/41 51/163/41 53/164/41
usemtl frame
f 61/165/42 59/166/42 58/167/42 60/168/42
f 64/169/43 62/170/43 63/171/43 65/172/43
f 58/173/44 59/174/44 63/175/44 62/176/44
f 61/177/45 60/178/45 64/179/45 65/180/45
f 60/181/46 58/182/46 62/183/46 64/184/46
f 65/185/47 63/186/47 59/187/47 61/188/47
f 69/189/48 67/190/48 66/191/48 68/192/48
f 72/193/49 70/194/49 71/195/49 73/196/49
f 66/197/50 67/198/50 71/199/50 70/200/50
f 69/201/51 68/202/51 72/203/51 73/204/51
f 68/205/52 66/206/52 70/207/52 72/208/52
f 73/209/53 71/210/53 67/211/53 69/212/53
usemtl piston
f 77/213/54 75/214/54 74/215/54 76/216/54
f 80/217/55 78/218/55 79/219/55 1/220/55
f 74/221/56 75/222/56 79/223/56 78/224/56
f 77/225/57 76/226/57 80/227/57 1/228/57
f 76/229/58 74/230/58 78/231/58 80/232/58
f 1/233/59 79/234/59 75/235/59 77/236/59
f 84/237/60 82/238/60 81/239/60 83/240/60
f 87/241/61 85/242/61 86/243/61 88/244/61
f 81/245/62 82/246/62 86/247/62 85/248/62
f 84/249/63 83/250/63 87/251/63 88/252/63
f 83/253/64 81/254/64 85/255/64 87/256/64
f 88/257/65 86/258/65 82/259/65 84/260/65
usemtl frame
f 92/261/66 90/262/66 89/263/66 91/264/66
f 95/265/67 93/266/67 94/267/67 96/268/67
f 89/269/68 90/270/68 94/271/68 93/272/68
f 92/273/69 91/274/69 95/275/69 96/276/69
f 91/277/70 89/278/70 93/279/70 95/280/70
f 96/281/71 94/282/71 90/283/71 92/284/71
f 100/285/72 98/286/72 97/287/72 99/288/72
f 103/289/73 101/290/73 102/291/73 104/292/73
f 97/293/74 98/294/74 102/295/74 101/296/74
f 100/297/75 99/298/75 103/299/75 104/300/75
f 99/301/76 97/302/76 101/303/76 103/304/76
f 104/305/77 102/306/77 98/307/77 100/308/77
f 108/309/78 106/310/78 105/311/78 107/312/78
f 111/313/79 109/314/79 110/315/79 112/316/79
f 105/317/80 106/318/80 110/319/80 109/320/80
f 108/321/81 107/322/81 111/323/81 112/324/81
f 107/325/82 105/326/82 109/327/82 111/328/82
f 112/329/83 110/330/83 106/331/83 108/332/83
f 116/333/84 114/334/84 113/335/84 115/336/84
f 119/337/85 117/338/85 118/339/85 120/340/85
f 113/341/86 114/342/86 118/343/86 117/344/86
f 116/345/87 115/346/87 119/347/87 120/348/87
f 115/349/88 113/350/88 117/351/88 119/352/88
f 120/353/89 118/354/89 114/355/89 116/356/89
f 124/357/90 122/358/90 121/359/90 123/360/90
f 127/361/91 125/362/91 126/363/91 128/364/91
f 121/365/92 122/366/92 126/367/92 125/368/92
f 124/369/93 123/370/93 127/371/93 128/372/93
f 123/373/94 121/374/94 125/375/94 127/376/94
f 128/377/95 126/378/95 122/379/95 124/380/95
f 132/381/96 130/382/96 129/383/96 131/384/96
f 135/385/97 133/386/97 134/387/97 136/388/97
f 129/389/98 130/390/98 134/391/98 133/392/98
f 132/393/99 131/394/99 135/395/99 136/396/99
f 131/397/100 129/398/100 133/399/100 135/400/100
f 136/401/101 134/402/101 130/403/101 132/404/101
usemtl piston
f 140/405/102 138/406/102 137/407/102 139/408/102
f 143/409/103 141/410/103 142/411/103 144/412/103
f 137/413/104 138/414/104 142/415/104 141/416/104
f 140/417/105 139/418/105 143/419/105 144/420/105
f 139/421/106 137/422/106 141/423/106 143/424/106
f 144/425/107 142/426/107 138/427/107 140/428/107
f 148/429/108 146/430/108 145/431/108 147/432/108
f 151/433/109 149/434/109 150/435/109 152/436/109
f 145/437/110 146/438/110 150/439/110 149/440/110
f 148/441/111 147/442/111 151/443/111 152/444/111
f 147/445/112 145/446/112 149/447/112 151/448/112
f 152/449/113 150/450/113 146/451/113 148/452/113
usemtl frame
f 156/453/114 154/454/114 153/455/114 155/456/114
f 159/457/115 157/458/115 158/459/115 160/460/115
f 153/461/116 154/462/116 158/463/116 157/464/116
f 156/465/117 155/466/117 159/467/117 160/468/117
f 155/469/118 153/470/118 157/471/118 159/472/118
f 160/473/119 158/474/119 154/475/119 156/476/119
f 164/477/120 162/478/120 161/479/120 163/480/120
f 167/481/121 165/482/121 166/483/121 168/484/121
f 161/485/122 162/486/122 166/487/122 165/488/122
f 164/489/123 163/490/123 167/491/123 168/492/123
f 163/493/124 161/494/124 165/495/124 167/496/124
f 168/497/125 166/498/125 162/499/125 164/500/125
f 172/501/126 170/502/126 169/503/126 171/504/126
f 175/505/127 173/506/127 174/507/127 176/508/127
f 169/509/128 170/510/128 174/511/128 173/512/128
f 172/513/129 171/514/129 175/515/129 176/516/129
f 171/517/130 169/518/130 173/519/130 175/520/130
f 176/521/131 174/522/131 170/523/131 172/524/131
f 180/525/132 178/526/132 177/527/132 179/528/132
f 183/529/133 181/530/133 182/531/133 184/532/133
f 177/533/134 178/534/134 182/535/134 181/536/134
f 180/537/135 179/538/135 183/539/135 184/540/135
f 179/541/136 177/542/136 181/543/136 183/544/136
f 184/545/137 182/546/137 178/547/137 180/548/137
f 188/549/138 186/550/138 185/551/138 187/552/138
f 191/553/139 189/554/139 190/555/139 192/556/139
f 185/557/140 186/558/140 190/559/140 189/560/140
f 188/561/141 187/562/141 191/563/141 192/564/141
f 187/565/142 185/566/142 189/567/142 191/568/142
f 192/569/143 190/570/143 186/571/143 188/572/143
f 196/573/144 194/574/144 193/575/144 195/576/144
f 199/577/145 197/578/145 198/579/145 200/580/145
f 193/581/146 194/582/146 198/583/146 197/584/146
f 196/585/147 195/586/147 199/587/147 200/588/147
f 195/589/148 193/590/148 197/591/148 199/592/148
f 200/593/149 198/594/149 194/595/149 196/596/149
f 204/597/150 202/598/150 201/599/150 203/600/150
f 207/601/151 205/602/151 206/603/151 208/604/151
f 201/605/152 202/606/152 206/607/152 205/608/152
f 204/609/153 203/610/153 207/611/153 208/612/153
f 203/613/154 201/614/154 205/615/154 207/616/154
f 208/617/155 206/618/155 202/619/155 204/620/155
f 212/621/156 210/622/156 209/623/156 211/624/156
f 215/625/157 213/626/157 214/627/157 216/628/157
f 209/629/158 210/630/158 214/631/158 213/632/158
f 212/633/159 211/634/159 215/635/159 216/636/159
f 211/637/160 209/638/160 213/639/160 215/640/160
f 216/641/161 214/642/161 210/643/161 212/644/161
usemtl piston
f 220/645/162 218/646/162 217/647/162 219/648/162
f 223/649/163 221/650/163 222/651/163 224/652/163
f 217/653/164 218/654/164 222/655/164 221/656/164
f 220/657/165 219/658/165 223/659/165 224/660/165
f 219/661/166 217/662/166 221/663/166 223/664/166
f 224/665/167 222/666/167 218/667/167 220/668/167
f 228/669/168 226/670/168 225/671/168 227/672/168
f 231/673/169 229/674/169 230/675/169 232/676/169
f 225/677/170 226/678/170 230/679/170 229/680/170
f 228/681/171 227/682/171 231/683/171 232/684/171
f 227/685/172 225/686/172 229/687/172 231/688/172
f 232/689/173 230/690/173 226/691/173 228/692/173
usemtl frame
f 236/693/174 234/694/174 233/695/174 235/696/174
f 239/697/175 237/698/175 238/699/175 240/700/175
f 233/701/176 234/702/176 238/703/176 237/704/176
f 236/705/177 235/706/177 239/707/177 240/708/177
f 235/709/178 233/710/178 237/711/178 239/712/178
f 240/713/179 238/714/179 234/715/179 236/716/179
f 244/717/180 242/718/180 241/719/180 243/720/180
f 247/721/181 245/722/181 246/723/181 248/724/181
f 241/725/182 242/726/182 246/727/182 245/728/182
f 244/729/183 243/730/183 247/731/183 248/732/183
f 243/733/184 241/734/184 245/735/184 247/736/184
f 248/737/185 246/738/185 242/739/185 244/740/185
f 252/741/186 250/742/186 249/743/186 251/744/186
f 255/745/187 253/746/187 254/747/187 256/748/187
f 249/749/188 250/750/188 254/751/188 253/752/188
f 252/753/189 251/754/189 255/755/189 256/756/189
f 251/757/190 249/758/190 253/759/190 255/760/190
f 256/761/191 254/762/191 250/763/191 252/764/191
f 260/765/192 258/766/192 257/767/192 259/768/192
f 263/769/193 261/770/193 262/771/193 264/772/193
f 257/773/194 258/774/194 262/775/194 261/776/194
f 260/777/195 259/778/195 263/779/195 264/780/195
f 259/781/196 257/782/196 261/783/196 263/784/196
f 264/785/197 262/786/197 258/787/197 260/788/197
usemtl extras
f 268/789/198 266/790/198 265/791/198 267/792/198
f 271/793/199 269/794/199 270/795/199 272/796/199
f 267/797/200 265/798/200 269/799/200 271/800/200
f 272/801/201 270/802/201 266/803/201 268/804/201
f 276/805/202 274/806/202 273/807/202 275/808/202
f 279/809/203 277/810/203 278/811/203 280/812/203
f 273/813/204 274/814/204 278/815/204 277/816/204
f 276/817/205 275/818/205 279/819/205 280/820/205
f 275/821/206 273/822/206 277/823/206 279/824/206
f 280/825/207 278/826/207 274/827/207 276/828/207
f 284/829/208 282/830/208 281/831/208 283/832/208
f 287/833/209 285/834/209 286/835/209 288/836/209
f 281/837/210 282/838/210 286/839/210 285/840/210
f 284/841/211 283/842/211 287/843/211 288/844/211
f 283/845/212 281/846/212 285/847/212 287/848/212
f 288/849/213 286/850/213 282/851/213 284/852/213
f 292/853/214 290/854/214 289/855/214 291/856/214
f 295/857/215 293/858/215 294/859/215 296/860/215
f 291/861/216 289/862/216 293/863/216 295/864/216
f 296/865/217 294/866/217 290/867/217 292/868/217
f 300/869/218 298/870/218 297/871/218 299/872/218
f 303/873/219 301/874/219 302/875/219 304/876/219
f 297/877/220 298/878/220 302/879/220 301/880/220
f 300/881/221 299/882/221 303/883/221 304/884/221
f 299/885/222 297/886/222 301/887/222 303/888/222
f 304/889/223 302/890/223 298/891/223 300/892/223
f 308/893/224 306/894/224 305/895/224 307/896/224
f 311/897/225 309/898/225 310/899/225 312/900/225
f 305/901/226 306/902/226 310/903/226 309/904/226
f 308/905/227 307/906/227 311/907/227 312/908/227
f 307/909/228 305/910/228 309/911/228 311/912/228
f 312/913/229 310/914/229 306/915/229 308/916/229
usemtl trailing_bogey_base
f 316/917/230 314/918/230 313/919/230 315/920/230
f 319/921/231 317/922/231 318/923/231 320/924/231
f 315/925/232 313/926/232 317/927/232 319/928/232
f 320/929/233 318/930/233 314/931/233 316/932/233
usemtl xl_textures
f 324/933/234 322/934/234 321/935/234 323/936/234
f 327/937/235 325/938/235 326/939/235 328/940/235
f 321/941/236 322/942/236 326/943/236 325/944/236
f 324/945/237 323/946/237 327/947/237 328/948/237
f 323/949/238 321/950/238 325/951/238 327/952/238
f 332/953/239 330/954/239 329/955/239 331/956/239
f 335/957/240 333/958/240 334/959/240 336/960/240
f 329/961/241 330/962/241 334/963/241 333/964/241
f 332/965/242 331/966/242 335/967/242 336/968/242
f 331/969/243 329/970/243 333/971/243 335/972/243
f 336/973/244 334/974/244 330/975/244 332/976/244
f 340/977/245 338/978/245 337/979/245 339/980/245
f 343/981/246 341/982/246 342/983/246 344/984/246
f 337/985/247 338/986/247 342/987/247 341/988/247
f 340/989/248 339/990/248 343/991/248 344/992/248
f 344/993/249 342/994/249 338/995/249 340/996/249
f 348/997/250 346/998/250 345/999/250 347/1000/250
f 351/1001/251 349/1002/251 350/1003/251 352/1004/251
f 345/1005/252 346/1006/252 350/1007/252 349/1008/252
f 348/1009/253 347/1010/253 351/1011/253 352/1012/253
f 347/1013/254 345/1014/254 349/1015/254 351/1016/254
f 356/1017/255 354/1018/255 353/1019/255 355/1020/255
f 359/1021/256 357/1022/256 358/1023/256 360/1024/256
f 353/1025/257 354/1026/257 358/1027/257 357/1028/257
f 356/1029/258 355/1030/258 359/1031/258 360/1032/258
f 355/1033/259 353/1034/259 357/1035/259 359/1036/259
f 360/1037/260 358/1038/260 354/1039/260 356/1040/260
f 364/1041/261 362/1042/261 361/1043/261 363/1044/261
f 367/1045/262 365/1046/262 366/1047/262 368/1048/262
f 361/1049/263 362/1050/263 366/1051/263 365/1052/263
f 364/1053/264 363/1054/264 367/1055/264 368/1056/264
f 368/1057/265 366/1058/265 362/1059/265 364/1060/265
f 372/1061/266 370/1062/266 369/1063/266 371/1064/266
f 375/1065/267 373/1066/267 374/1067/267 376/1068/267
f 369/1069/268 370/1070/268 374/1071/268 373/1072/268
f 372/1073/269 371/1074/269 375/1075/269 376/1076/269
f 371/1077/270 369/1078/270 373/1079/270 375/1080/270
f 376/1081/271 374/1082/271 370/1083/271 372/1084/271
f 380/1085/272 378/1086/272 377/1087/272 379/1088/272
f 383/1089/273 381/1090/273 382/1091/273 384/1092/273
f 377/1093/274 378/1094/274 382/1095/274 381/1096/274
f 380/1097/275 379/1098/275 383/1099/275 384/1100/275
f 379/1101/276 377/1102/276 381/1103/276 383/1104/276
f 384/1105/277 382/1106/277 378/1107/277 380/1108/277
f 388/1109/278 386/1110/278 385/1111/278 387/1112/278
f 391/1113/279 389/1114/279 390/1115/279 392/1116/279
f 385/1117/280 386/1118/280 390/1119/280 389/1120/280
f 388/1121/281 387/1122/281 391/1123/281 392/1124/281
f 387/1125/282 385/1126/282 389/1127/282 391/1128/282
f 392/1129/283 390/1130/283 386/1131/283 388/1132/283
f 396/1133/284 394/1134/284 393/1135/284 395/1136/284
f 399/1137/285 397/1138/285 398/1139/285 400/1140/285
f 393/1141/286 394/1142/286 398/1143/286 397/1144/286
f 396/1145/287 395/1146/287 399/1147/287 400/1148/287
f 395/1149/288 393/1150/288 397/1151/288 399/1152/288
f 400/1153/289 398/1154/289 394/1155/289 396/1156/289