# Made in Blockbench 4.12.6
mtllib frame.mtl

o cube
v 0.09375 1.25 -0.78125
v 0.09375 1.25 -0.96875
v 0.09375 1.0625 -0.78125
v 0.09375 1.0625 -0.96875
v -0.09375 1.25 -0.78125
v -0.09375 1.25 -0.96875
v -0.09375 1.0625 -0.78125
v -0.09375 1.0625 -0.96875
v 0.09375 1.25 0.96875
v 0.09375 1.25 0.78125
v 0.09375 1.0625 0.96875
v 0.09375 1.0625 0.78125
v -0.09375 1.25 0.96875
v -0.09375 1.25 0.78125
v -0.09375 1.0625 0.96875
v -0.09375 1.0625 0.78125
v -1.25 0.875 0.125
v -1.25 0.875 -0.125
v -1.25 0.625 0.125
v -1.25 0.625 -0.125
v -1.375 0.875 0.125
v -1.375 0.875 -0.125
v -1.375 0.625 0.125
v -1.375 0.625 -0.125
v 1.375 0.875 0.125
v 1.375 0.875 -0.125
v 1.375 0.625 0.125
v 1.375 0.625 -0.125
v 1.25 0.875 0.125
v 1.25 0.875 -0.125
v 1.25 0.625 0.125
v 1.25 0.625 -0.125
v -0.5 0.9375 0.75
v -0.5 0.9375 0.5625
v -0.5 0.625 0.75
v -0.5 0.625 0.5625
v -1.25 0.9375 0.75
v -1.25 0.9375 0.5625
v -1.25 0.625 0.75
v -1.25 0.625 0.5625
v -0.375 0.9375 0.75
v -0.375 0.9375 0.5625
v -0.375 0.625 0.75
v -0.375 0.625 0.5625
v -0.5 0.9375 0.75
v -0.5 0.9375 0.5625
v -0.5 0.625 0.75
v -0.5 0.625 0.5625
v -0.375 0.9375 0.5625
v -0.375 0.9375 0.375
v -0.375 0.625 0.5625
v -0.375 0.625 0.375
v -0.5 0.9375 0.5625
v -0.5 0.9375 0.375
v -0.5 0.625 0.5625
v -0.5 0.625 0.375
v -0.375 0.75 0.375
v -0.375 0.75 0.25
v -0.375 0.625 0.375
v -0.375 0.625 0.25
v -0.5 0.75 0.375
v -0.5 0.75 0.25
v -0.5 0.625 0.375
v -0.5 0.625 0.25
v -0.375 0.9375 -0.375
v -0.375 0.9375 -0.5625
v -0.375 0.625 -0.375
v -0.375 0.625 -0.5625
v -0.5 0.9375 -0.375
v -0.5 0.9375 -0.5625
v -0.5 0.625 -0.375
v -0.5 0.625 -0.5625
v -0.375 0.75 -0.25
v -0.375 0.75 -0.375
v -0.375 0.625 -0.25
v -0.375 0.625 -0.375
v -0.5 0.75 -0.25
v -0.5 0.75 -0.375
v -0.5 0.625 -0.25
v -0.5 0.625 -0.375
v -0.375 0.9375 -0.5625
v -0.375 0.9375 -0.75
v -0.375 0.625 -0.5625
v -0.375 0.625 -0.75
v -0.5 0.9375 -0.5625
v -0.5 0.9375 -0.75
v -0.5 0.625 -0.5625
v -0.5 0.625 -0.75
v -0.5 0.9375 -0.5625
v -0.5 0.9375 -0.75
v -0.5 0.625 -0.5625
v -0.5 0.625 -0.75
v -1.25 0.9375 -0.5625
v -1.25 0.9375 -0.75
v -1.25 0.625 -0.5625
v -1.25 0.625 -0.75
v -1.0625 0.875 0.5625
v -1.0625 0.875 -0.5625
v -1.0625 0.4375 0.5625
v -1.0625 0.4375 -0.5625
v -1.25 0.875 0.5625
v -1.25 0.875 -0.5625
v -1.25 0.4375 0.5625
v -1.25 0.4375 -0.5625
v -1.0625 1 0.5625
v -1.0625 1 0.25
v -1.0625 0.875 0.5625
v -1.0625 0.875 0.25
v -1.25 1 0.5625
v -1.25 1 0.25
v -1.25 0.875 0.5625
v -1.25 0.875 0.25
v -1.0625 1 -0.25
v -1.0625 1 -0.5625
v -1.0625 0.875 -0.25
v -1.0625 0.875 -0.5625
v -1.25 1 -0.25
v -1.25 1 -0.5625
v -1.25 0.875 -0.25
v -1.25 0.875 -0.5625
v -1.0625 1.1875 0.5625
v -1.0625 1.1875 -0.5625
v -1.0625 1 0.5625
v -1.0625 1 -0.5625
v -1.25 1.1875 0.5625
v -1.25 1.1875 -0.5625
v -1.25 1 0.5625
v -1.25 1 -0.5625
v 0.5 0.9375 -0.375
v 0.5 0.9375 -0.5625
v 0.5 0.625 -0.375
v 0.5 0.625 -0.5625
v 0.375 0.9375 -0.375
v 0.375 0.9375 -0.5625
v 0.375 0.625 -0.375
v 0.375 0.625 -0.5625
v 1.25 0.9375 -0.5625
v 1.25 0.9375 -0.75
v 1.25 0.625 -0.5625
v 1.25 0.625 -0.75
v 0.5 0.9375 -0.5625
v 0.5 0.9375 -0.75
v 0.5 0.625 -0.5625
v 0.5 0.625 -0.75
v -0.5 0.9375 -0.5625
v -0.5 0.9375 -0.75
v -0.5 0.625 -0.5625
v -0.5 0.625 -0.75
v -1.25 0.9375 -0.5625
v -1.25 0.9375 -0.75
v -1.25 0.625 -0.5625
v -1.25 0.625 -0.75
v -0.5 0.9375 0.75
v -0.5 0.9375 0.5625
v -0.5 0.625 0.75
v -0.5 0.625 0.5625
v -1.25 0.9375 0.75
v -1.25 0.9375 0.5625
v -1.25 0.625 0.75
v -1.25 0.625 0.5625
v 1.25 0.9375 0.75
v 1.25 0.9375 0.5625
v 1.25 0.625 0.75
v 1.25 0.625 0.5625
v 0.5 0.9375 0.75
v 0.5 0.9375 0.5625
v 0.5 0.625 0.75
v 0.5 0.625 0.5625
v 1.25 1.1875 0.5625
v 1.25 1.1875 -0.5625
v 1.25 1 0.5625
v 1.25 1 -0.5625
v 1.0625 1.1875 0.5625
v 1.0625 1.1875 -0.5625
v 1.0625 1 0.5625
v 1.0625 1 -0.5625
v 1.25 1 -0.25
v 1.25 1 -0.5625
v 1.25 0.875 -0.25
v 1.25 0.875 -0.5625
v 1.0625 1 -0.25
v 1.0625 1 -0.5625
v 1.0625 0.875 -0.25
v 1.0625 0.875 -0.5625
v 1.25 0.875 0.5625
v 1.25 0.875 -0.5625
v 1.25 0.4375 0.5625
v 1.25 0.4375 -0.5625
v 1.0625 0.875 0.5625
v 1.0625 0.875 -0.5625
v 1.0625 0.4375 0.5625
v 1.0625 0.4375 -0.5625
v 1.25 1 0.5625
v 1.25 1 0.25
v 1.25 0.875 0.5625
v 1.25 0.875 0.25
v 1.0625 1 0.5625
v 1.0625 1 0.25
v 1.0625 0.875 0.5625
v 1.0625 0.875 0.25
v 1.25 0.9375 0.75
v 1.25 0.9375 0.5625
v 1.25 0.625 0.75
v 1.25 0.625 0.5625
v 0.5 0.9375 0.75
v 0.5 0.9375 0.5625
v 0.5 0.625 0.75
v 0.5 0.625 0.5625
v 0.5 0.9375 0.75
v 0.5 0.9375 0.5625
v 0.5 0.625 0.75
v 0.5 0.625 0.5625
v 0.375 0.9375 0.75
v 0.375 0.9375 0.5625
v 0.375 0.625 0.75
v 0.375 0.625 0.5625
v 0.5 0.9375 0.5625
v 0.5 0.9375 0.375
v 0.5 0.625 0.5625
v 0.5 0.625 0.375
v 0.375 0.9375 0.5625
v 0.375 0.9375 0.375
v 0.375 0.625 0.5625
v 0.375 0.625 0.375
v 0.5 0.75 0.375
v 0.5 0.75 0.25
v 0.5 0.625 0.375
v 0.5 0.625 0.25
v 0.375 0.75 0.375
v 0.375 0.75 0.25
v 0.375 0.625 0.375
v 0.375 0.625 0.25
v 0.5 0.75 -0.25
v 0.5 0.75 -0.375
v 0.5 0.625 -0.25
v 0.5 0.625 -0.375
v 0.375 0.75 -0.25
v 0.375 0.75 -0.375
v 0.375 0.625 -0.25
v 0.375 0.625 -0.375
v 0.5 0.9375 -0.5625
v 0.5 0.9375 -0.75
v 0.5 0.625 -0.5625
v 0.5 0.625 -0.75
v 0.375 0.9375 -0.5625
v 0.375 0.9375 -0.75
v 0.375 0.625 -0.5625
v 0.375 0.625 -0.75
v 0.3125 1.0625 0.5
v 0.3125 1.0625 0
v 0.3125 0.4375 0.5
v 0.3125 0.4375 0
v -0.3125 1.0625 0.5
v -0.3125 1.0625 0
v -0.3125 0.4375 0.5
v -0.3125 0.4375 0
v 0.3125 1.0625 0
v 0.3125 1.0625 -0.5
v 0.3125 0.4375 0
v 0.3125 0.4375 -0.5
v -0.3125 1.0625 0
v -0.3125 1.0625 -0.5
v -0.3125 0.4375 0
v -0.3125 0.4375 -0.5
v 0 1.25 0.375
v 0 1.25 0
v 0 0.75 0.375
v 0 0.75 0
v -0.5 1.25 0.375
v -0.5 1.25 0
v -0.5 0.75 0.375
v -0.5 0.75 0
v 0.5 1.25 0.375
v 0.5 1.25 0
v 0.5 0.75 0.375
v 0.5 0.75 0
v 0 1.25 0.375
v 0 1.25 0
v 0 0.75 0.375
v 0 0.75 0
v 0 1.25 0
v 0 1.25 -0.375
v 0 0.75 0
v 0 0.75 -0.375
v -0.5 1.25 0
v -0.5 1.25 -0.375
v -0.5 0.75 0
v -0.5 0.75 -0.375
v 0.5 1.25 0
v 0.5 1.25 -0.375
v 0.5 0.75 0
v 0.5 0.75 -0.375
v 0 1.25 0
v 0 1.25 -0.375
v 0 0.75 0
v 0 0.75 -0.375
v 0.25 1.5 0.25
v 0.25 1.5 -0.25
v 0.25 1.25 0.25
v 0.25 1.25 -0.25
v -0.25 1.5 0.25
v -0.25 1.5 -0.25
v -0.25 1.25 0.25
v -0.25 1.25 -0.25
v -0.375 1 0.25
v -0.375 1 -0.25
v -0.375 0.5 0.25
v -0.375 0.5 -0.25
v -0.75 1 0.25
v -0.75 1 -0.25
v -0.75 0.5 0.25
v -0.75 0.5 -0.25
v 0.75 1 0.25
v 0.75 1 -0.25
v 0.75 0.5 0.25
v 0.75 0.5 -0.25
v 0.375 1 0.25
v 0.375 1 -0.25
v 0.375 0.5 0.25
v 0.375 0.5 -0.25
v 0.3125 1.0625 -0.5625
v 0.3125 1.0625 -1.1875
v 0.3125 0.4375 -0.5625
v 0.3125 0.4375 -1.1875
v -0.3125 1.0625 -0.5625
v -0.3125 1.0625 -1.1875
v -0.3125 0.4375 -0.5625
v -0.3125 0.4375 -1.1875
v 0.3125 1.0625 1.1875
v 0.3125 1.0625 0.5625
v 0.3125 0.4375 1.1875
v 0.3125 0.4375 0.5625
v -0.3125 1.0625 1.1875
v -0.3125 1.0625 0.5625
v -0.3125 0.4375 1.1875
v -0.3125 0.4375 0.5625
vt 0.625 0.375
vt 0.625 0.46875
vt 0.71875 0.46875
vt 0.71875 0.375
vt 0.625 0.375
vt 0.625 0.46875
vt 0.71875 0.46875
vt 0.71875 0.375
vt 0.8125 0.46875
vt 0.8125 0.375
vt 0.71875 0.375
vt 0.71875 0.46875
vt 0.625 0.375
vt 0.625 0.46875
vt 0.71875 0.46875
vt 0.71875 0.375
vt 0.625 0.375
vt 0.625 0.46875
vt 0.71875 0.46875
vt 0.71875 0.375
vt 0.625 0.375
vt 0.625 0.46875
vt 0.71875 0.46875
vt 0.71875 0.375
vt 0.625 0.375
vt 0.625 0.46875
vt 0.71875 0.46875
vt 0.71875 0.375
vt 0.8125 0.46875
vt 0.8125 0.375
vt 0.71875 0.375
vt 0.71875 0.46875
vt 0.625 0.375
vt 0.625 0.46875
vt 0.71875 0.46875
vt 0.71875 0.375
vt 0.625 0.375
vt 0.625 0.46875
vt 0.71875 0.46875
vt 0.71875 0.375
vt 0.0625 0.9375
vt 0.0625 1
vt 0.125 1
vt 0.125 0.9375
vt 0 0.734375
vt 0 0.796875
vt 0.0625 0.796875
vt 0.0625 0.734375
vt 0.09375 0.796875
vt 0.09375 0.734375
vt 0.0625 0.734375
vt 0.0625 0.796875
vt 0.09375 0.796875
vt 0.09375 0.734375
vt 0.0625 0.734375
vt 0.0625 0.796875
vt 0.09375 0.734375
vt 0.09375 0.796875
vt 0.0625 0.796875
vt 0.0625 0.734375
vt 0.0625 0.734375
vt 0.0625 0.796875
vt 0.09375 0.796875
vt 0.09375 0.734375
vt 0.0625 0.734375
vt 0.0625 0.796875
vt 0 0.796875
vt 0 0.734375
vt 0.125 0.9375
vt 0.125 1
vt 0.0625 1
vt 0.0625 0.9375
vt 0.0625 0.796875
vt 0.0625 0.734375
vt 0.09375 0.734375
vt 0.09375 0.796875
vt 0.0625 0.796875
vt 0.0625 0.734375
vt 0.09375 0.734375
vt 0.09375 0.796875
vt 0.0625 0.734375
vt 0.0625 0.796875
vt 0.09375 0.796875
vt 0.09375 0.734375
vt 0.09375 0.734375
vt 0.09375 0.796875
vt 0.0625 0.796875
vt 0.0625 0.734375
vt 0.671875 0.578125
vt 0.671875 0.65625
vt 0.625 0.65625
vt 0.625 0.578125
vt 0.671875 0.578125
vt 0.671875 0.65625
vt 0.625 0.65625
vt 0.625 0.578125
vt 0.1875 0.671875
vt 0.1875 0.71875
vt 0 0.71875
vt 0 0.671875
vt 0.1875 0.671875
vt 0.1875 0.71875
vt 0 0.71875
vt 0 0.671875
vt 0.1875 0.59375
vt 0.1875 0.671875
vt 0 0.671875
vt 0 0.59375
vt 0.625 0.59375
vt 0.625 0.671875
vt 0.4375 0.671875
vt 0.4375 0.59375
vt 0.671875 0.578125
vt 0.671875 0.65625
vt 0.625 0.65625
vt 0.625 0.578125
vt 0.609375 0.59375
vt 0.609375 0.671875
vt 0.5625 0.671875
vt 0.5625 0.59375
vt 0.625 0.71875
vt 0.625 0.671875
vt 0.59375 0.671875
vt 0.59375 0.71875
vt 0.625 0.671875
vt 0.625 0.71875
vt 0.59375 0.71875
vt 0.59375 0.671875
vt 0.625 0.59375
vt 0.625 0.671875
vt 0.59375 0.671875
vt 0.59375 0.59375
vt 0.59375 0.59375
vt 0.59375 0.671875
vt 0.625 0.671875
vt 0.625 0.59375
vt 0.578125 0.59375
vt 0.578125 0.671875
vt 0.53125 0.671875
vt 0.53125 0.59375
vt 0.578125 0.59375
vt 0.578125 0.671875
vt 0.53125 0.671875
vt 0.53125 0.59375
vt 0.53125 0.640625
vt 0.578125 0.640625
vt 0.578125 0.671875
vt 0.53125 0.671875
vt 0.578125 0.640625
vt 0.53125 0.640625
vt 0.53125 0.671875
vt 0.578125 0.671875
vt 0.625 0.59375
vt 0.625 0.671875
vt 0.59375 0.671875
vt 0.59375 0.59375
vt 0.59375 0.59375
vt 0.59375 0.671875
vt 0.625 0.671875
vt 0.625 0.59375
vt 0.5625 0.59375
vt 0.5625 0.625
vt 0.53125 0.625
vt 0.53125 0.59375
vt 0.5625 0.59375
vt 0.5625 0.625
vt 0.53125 0.625
vt 0.53125 0.59375
vt 0.5625 0.640625
vt 0.53125 0.640625
vt 0.53125 0.671875
vt 0.5625 0.671875
vt 0.53125 0.59375
vt 0.53125 0.671875
vt 0.578125 0.671875
vt 0.578125 0.59375
vt 0.53125 0.59375
vt 0.53125 0.671875
vt 0.578125 0.671875
vt 0.578125 0.59375
vt 0.578125 0.640625
vt 0.53125 0.640625
vt 0.53125 0.671875
vt 0.578125 0.671875
vt 0.53125 0.640625
vt 0.578125 0.640625
vt 0.578125 0.671875
vt 0.53125 0.671875
vt 0.625 0.59375
vt 0.625 0.671875
vt 0.59375 0.671875
vt 0.59375 0.59375
vt 0.59375 0.59375
vt 0.59375 0.671875
vt 0.625 0.671875
vt 0.625 0.59375
vt 0.53125 0.59375
vt 0.53125 0.625
vt 0.5625 0.625
vt 0.5625 0.59375
vt 0.53125 0.59375
vt 0.53125 0.625
vt 0.5625 0.625
vt 0.5625 0.59375
vt 0.53125 0.640625
vt 0.5625 0.640625
vt 0.5625 0.671875
vt 0.53125 0.671875
vt 0.578125 0.59375
vt 0.578125 0.671875
vt 0.625 0.671875
vt 0.625 0.59375
vt 0.5625 0.59375
vt 0.5625 0.671875
vt 0.609375 0.671875
vt 0.609375 0.59375
vt 0.625 0.671875
vt 0.625 0.71875
vt 0.59375 0.71875
vt 0.59375 0.671875
vt 0.625 0.71875
vt 0.625 0.671875
vt 0.59375 0.671875
vt 0.59375 0.71875
vt 0.625 0.59375
vt 0.625 0.671875
vt 0.59375 0.671875
vt 0.59375 0.59375
vt 0.59375 0.59375
vt 0.59375 0.671875
vt 0.625 0.671875
vt 0.625 0.59375
vt 0.625 0.578125
vt 0.625 0.65625
vt 0.671875 0.65625
vt 0.671875 0.578125
vt 0.625 0.578125
vt 0.625 0.65625
vt 0.671875 0.65625
vt 0.671875 0.578125
vt 0.4375 0.71875
vt 0.4375 0.671875
vt 0.625 0.671875
vt 0.625 0.71875
vt 0.4375 0.71875
vt 0.4375 0.671875
vt 0.625 0.671875
vt 0.625 0.71875
vt 0.4375 0.59375
vt 0.4375 0.671875
vt 0.625 0.671875
vt 0.625 0.59375
vt 0.625 0.59375
vt 0.625 0.671875
vt 0.4375 0.671875
vt 0.4375 0.59375
vt 0.375 0.8125
vt 0.375 0.921875
vt 0.09375 0.921875
vt 0.09375 0.8125
vt 0.375 0.8125
vt 0.375 0.921875
vt 0.09375 0.921875
vt 0.09375 0.8125
vt 0.421875 0.921875
vt 0.140625 0.921875
vt 0.140625 0.875
vt 0.421875 0.875
vt 0.09375 0.859375
vt 0.375 0.859375
vt 0.375 0.8125
vt 0.09375 0.8125
vt 0.328125 0.8125
vt 0.328125 0.921875
vt 0.375 0.921875
vt 0.375 0.8125
vt 0.09375 0.8125
vt 0.09375 0.921875
vt 0.140625 0.921875
vt 0.140625 0.8125
vt 0.171875 0.90625
vt 0.171875 0.9375
vt 0.09375 0.9375
vt 0.09375 0.90625
vt 0.171875 0.90625
vt 0.171875 0.9375
vt 0.09375 0.9375
vt 0.09375 0.90625
vt 0.046875 0.921875
vt 0.046875 1
vt 0 1
vt 0 0.921875
vt 0.046875 0.921875
vt 0.046875 1
vt 0 1
vt 0 0.921875
vt 0.09375 0.921875
vt 0.09375 0.953125
vt 0.046875 0.953125
vt 0.046875 0.921875
vt 0.375 0.875
vt 0.375 0.90625
vt 0.421875 0.90625
vt 0.421875 0.875
vt 0.296875 0.90625
vt 0.296875 0.9375
vt 0.34375 0.9375
vt 0.34375 0.90625
vt 0.296875 0.90625
vt 0.296875 0.9375
vt 0.375 0.9375
vt 0.375 0.90625
vt 0.046875 0.953125
vt 0.046875 1
vt 0 1
vt 0 0.953125
vt 0.046875 0.953125
vt 0.046875 1
vt 0 1
vt 0 0.953125
vt 0.421875 0.875
vt 0.421875 0.90625
vt 0.375 0.90625
vt 0.375 0.875
vt 0.046875 0.96875
vt 0.046875 1
vt 0 1
vt 0 0.96875
vt 0.15625 0.9375
vt 0.15625 0.984375
vt 0.375 0.984375
vt 0.375 0.9375
vt 0.375 0.9375
vt 0.375 0.984375
vt 0.09375 0.984375
vt 0.09375 0.9375
vt 0.375 0.78125
vt 0.09375 0.78125
vt 0.09375 0.734375
vt 0.375 0.734375
vt 0.046875 0.78125
vt 0.046875 1
vt 0 1
vt 0 0.78125
vt 0.09375 0.953125
vt 0.09375 1
vt 0.046875 1
vt 0.046875 0.953125
vt 0.046875 0.953125
vt 0.046875 1
vt 0 1
vt 0 0.953125
vt 0.578125 0.59375
vt 0.578125 0.671875
vt 0.53125 0.671875
vt 0.53125 0.59375
vt 0.578125 0.59375
vt 0.578125 0.671875
vt 0.53125 0.671875
vt 0.53125 0.59375
vt 0.578125 0.671875
vt 0.53125 0.671875
vt 0.53125 0.640625
vt 0.578125 0.640625
vt 0.53125 0.671875
vt 0.578125 0.671875
vt 0.578125 0.640625
vt 0.53125 0.640625
vt 0.671875 0.578125
vt 0.671875 0.65625
vt 0.625 0.65625
vt 0.625 0.578125
vt 0.625 0.71875
vt 0.625 0.671875
vt 0.4375 0.671875
vt 0.4375 0.71875
vt 0.625 0.71875
vt 0.625 0.671875
vt 0.4375 0.671875
vt 0.4375 0.71875
vt 0.625 0.59375
vt 0.625 0.671875
vt 0.4375 0.671875
vt 0.4375 0.59375
vt 0.4375 0.59375
vt 0.4375 0.671875
vt 0.625 0.671875
vt 0.625 0.59375
vt 0.625 0.578125
vt 0.625 0.65625
vt 0.671875 0.65625
vt 0.671875 0.578125
vt 0.4375 0.71875
vt 0.4375 0.671875
vt 0.625 0.671875
vt 0.625 0.71875
vt 0.4375 0.71875
vt 0.4375 0.671875
vt 0.625 0.671875
vt 0.625 0.71875
vt 0.4375 0.59375
vt 0.4375 0.671875
vt 0.625 0.671875
vt 0.625 0.59375
vt 0.625 0.59375
vt 0.625 0.671875
vt 0.4375 0.671875
vt 0.4375 0.59375
vt 0.671875 0.578125
vt 0.671875 0.65625
vt 0.625 0.65625
vt 0.625 0.578125
vt 0.4375 0.671875
vt 0.4375 0.71875
vt 0.625 0.71875
vt 0.625 0.671875
vt 0.4375 0.671875
vt 0.4375 0.71875
vt 0.625 0.71875
vt 0.625 0.671875
vt 0.4375 0.59375
vt 0.4375 0.671875
vt 0.625 0.671875
vt 0.625 0.59375
vt 0.625 0.59375
vt 0.625 0.671875
vt 0.4375 0.671875
vt 0.4375 0.59375
vt 0.625 0.578125
vt 0.625 0.65625
vt 0.671875 0.65625
vt 0.671875 0.578125
vt 0.625 0.671875
vt 0.625 0.71875
vt 0.4375 0.71875
vt 0.4375 0.671875
vt 0.625 0.671875
vt 0.625 0.71875
vt 0.4375 0.71875
vt 0.4375 0.671875
vt 0.625 0.59375
vt 0.625 0.671875
vt 0.4375 0.671875
vt 0.4375 0.59375
vt 0.4375 0.59375
vt 0.4375 0.671875
vt 0.625 0.671875
vt 0.625 0.59375
vt 0.09375 0.9375
vt 0.09375 0.984375
vt 0.375 0.984375
vt 0.375 0.9375
vt 0.375 0.9375
vt 0.375 0.984375
vt 0.15625 0.984375
vt 0.15625 0.9375
vt 0.375 0.734375
vt 0.09375 0.734375
vt 0.09375 0.78125
vt 0.375 0.78125
vt 0 0.78125
vt 0 1
vt 0.046875 1
vt 0.046875 0.78125
vt 0.046875 0.953125
vt 0.046875 1
vt 0.09375 1
vt 0.09375 0.953125
vt 0 0.953125
vt 0 1
vt 0.046875 1
vt 0.046875 0.953125
vt 0.375 0.90625
vt 0.375 0.9375
vt 0.296875 0.9375
vt 0.296875 0.90625
vt 0.34375 0.90625
vt 0.34375 0.9375
vt 0.296875 0.9375
vt 0.296875 0.90625
vt 0 0.953125
vt 0 1
vt 0.046875 1
vt 0.046875 0.953125
vt 0 0.953125
vt 0 1
vt 0.046875 1
vt 0.046875 0.953125
vt 0.375 0.875
vt 0.375 0.90625
vt 0.421875 0.90625
vt 0.421875 0.875
vt 0 0.96875
vt 0 1
vt 0.046875 1
vt 0.046875 0.96875
vt 0.09375 0.8125
vt 0.09375 0.921875
vt 0.375 0.921875
vt 0.375 0.8125
vt 0.09375 0.8125
vt 0.09375 0.921875
vt 0.375 0.921875
vt 0.375 0.8125
vt 0.421875 0.875
vt 0.140625 0.875
vt 0.140625 0.921875
vt 0.421875 0.921875
vt 0.09375 0.8125
vt 0.375 0.8125
vt 0.375 0.859375
vt 0.09375 0.859375
vt 0.375 0.8125
vt 0.375 0.921875
vt 0.328125 0.921875
vt 0.328125 0.8125
vt 0.140625 0.8125
vt 0.140625 0.921875
vt 0.09375 0.921875
vt 0.09375 0.8125
vt 0.09375 0.90625
vt 0.09375 0.9375
vt 0.171875 0.9375
vt 0.171875 0.90625
vt 0.09375 0.90625
vt 0.09375 0.9375
vt 0.171875 0.9375
vt 0.171875 0.90625
vt 0 0.921875
vt 0 1
vt 0.046875 1
vt 0.046875 0.921875
vt 0 0.921875
vt 0 1
vt 0.046875 1
vt 0.046875 0.921875
vt 0.046875 0.921875
vt 0.046875 0.953125
vt 0.09375 0.953125
vt 0.09375 0.921875
vt 0.421875 0.875
vt 0.421875 0.90625
vt 0.375 0.90625
vt 0.375 0.875
vt 0.625 0.578125
vt 0.625 0.65625
vt 0.671875 0.65625
vt 0.671875 0.578125
vt 0.625 0.578125
vt 0.625 0.65625
vt 0.671875 0.65625
vt 0.671875 0.578125
vt 0 0.671875
vt 0 0.71875
vt 0.1875 0.71875
vt 0.1875 0.671875
vt 0 0.671875
vt 0 0.71875
vt 0.1875 0.71875
vt 0.1875 0.671875
vt 0 0.59375
vt 0 0.671875
vt 0.1875 0.671875
vt 0.1875 0.59375
vt 0.4375 0.59375
vt 0.4375 0.671875
vt 0.625 0.671875
vt 0.625 0.59375
vt 0.5625 0.59375
vt 0.5625 0.671875
vt 0.609375 0.671875
vt 0.609375 0.59375
vt 0.625 0.578125
vt 0.625 0.65625
vt 0.671875 0.65625
vt 0.671875 0.578125
vt 0.59375 0.71875
vt 0.59375 0.671875
vt 0.625 0.671875
vt 0.625 0.71875
vt 0.59375 0.671875
vt 0.59375 0.71875
vt 0.625 0.71875
vt 0.625 0.671875
vt 0.59375 0.59375
vt 0.59375 0.671875
vt 0.625 0.671875
vt 0.625 0.59375
vt 0.625 0.59375
vt 0.625 0.671875
vt 0.59375 0.671875
vt 0.59375 0.59375
vt 0.53125 0.59375
vt 0.53125 0.671875
vt 0.578125 0.671875
vt 0.578125 0.59375
vt 0.53125 0.59375
vt 0.53125 0.671875
vt 0.578125 0.671875
vt 0.578125 0.59375
vt 0.53125 0.671875
vt 0.578125 0.671875
vt 0.578125 0.640625
vt 0.53125 0.640625
vt 0.578125 0.671875
vt 0.53125 0.671875
vt 0.53125 0.640625
vt 0.578125 0.640625
vt 0.59375 0.59375
vt 0.59375 0.671875
vt 0.625 0.671875
vt 0.625 0.59375
vt 0.625 0.59375
vt 0.625 0.671875
vt 0.59375 0.671875
vt 0.59375 0.59375
vt 0.53125 0.59375
vt 0.53125 0.625
vt 0.5625 0.625
vt 0.5625 0.59375
vt 0.53125 0.59375
vt 0.53125 0.625
vt 0.5625 0.625
vt 0.5625 0.59375
vt 0.5625 0.671875
vt 0.53125 0.671875
vt 0.53125 0.640625
vt 0.5625 0.640625
vt 0.5625 0.59375
vt 0.5625 0.625
vt 0.53125 0.625
vt 0.53125 0.59375
vt 0.5625 0.59375
vt 0.5625 0.625
vt 0.53125 0.625
vt 0.53125 0.59375
vt 0.53125 0.671875
vt 0.5625 0.671875
vt 0.5625 0.640625
vt 0.53125 0.640625
vt 0.609375 0.59375
vt 0.609375 0.671875
vt 0.5625 0.671875
vt 0.5625 0.59375
vt 0.625 0.59375
vt 0.625 0.671875
vt 0.578125 0.671875
vt 0.578125 0.59375
vt 0.59375 0.671875
vt 0.59375 0.71875
vt 0.625 0.71875
vt 0.625 0.671875
vt 0.59375 0.71875
vt 0.59375 0.671875
vt 0.625 0.671875
vt 0.625 0.71875
vt 0.625 0.59375
vt 0.625 0.671875
vt 0.59375 0.671875
vt 0.59375 0.59375
vt 0.3125 0.25
vt 0 0.25
vt 0 0
vt 0.3125 0
vt 0.3125 0
vt 0 0
vt 0 0.25
vt 0.3125 0.25
vt 0.3125 0
vt 0.3125 0.25
vt 0 0.25
vt 0 0
vt 0.3125 0.25
vt 0.3125 0
vt 0 0
vt 0 0.25
vt 0.6666666666666666 0
vt 0.6666666666666666 0.20833333333333337
vt 0.4583333333333333 0.20833333333333337
vt 0.4583333333333333 0
vt 0.3125 0.5625
vt 0 0.5625
vt 0 0.3125
vt 0.3125 0.3125
vt 0.3125 0.3125
vt 0 0.3125
vt 0 0.5625
vt 0.3125 0.5625
vt 0.3125 0.3125
vt 0.3125 0.5625
vt 0 0.5625
vt 0 0.3125
vt 0.3125 0.5625
vt 0.3125 0.3125
vt 0 0.3125
vt 0 0.5625
vt 1 0.6875
vt 1 1
vt 0.6875 1
vt 0.6875 0.6875
vt 0.6875 0.5625
vt 0.4375 0.5625
vt 0.4375 0.75
vt 0.6875 0.75
vt 0.25 0.5625
vt 0.25 0.75
vt 0 0.75
vt 0 0.5625
vt 0.25 0.75
vt 0.25 0.5625
vt 0 0.5625
vt 0 0.75
vt 0.5625 0.3125
vt 0.5625 0.5625
vt 0.3125 0.5625
vt 0.3125 0.3125
vt 0.6875 0.75
vt 0.4375 0.75
vt 0.4375 0.5625
vt 0.6875 0.5625
vt 0.4375 0.5625
vt 0.4375 0.75
vt 0.1875 0.75
vt 0.1875 0.5625
vt 0.4375 0.75
vt 0.4375 0.5625
vt 0.1875 0.5625
vt 0.1875 0.75
vt 0.75 0.3125
vt 0.75 0.5625
vt 0.5 0.5625
vt 0.5 0.3125
vt 0.6875 0.8125
vt 0.4375 0.8125
vt 0.4375 1
vt 0.6875 1
vt 0.25 0.8125
vt 0.25 1
vt 0 1
vt 0 0.8125
vt 0.25 1
vt 0.25 0.8125
vt 0 0.8125
vt 0 1
vt 0.3125 0.3125
vt 0.3125 0.5625
vt 0.5625 0.5625
vt 0.5625 0.3125
vt 0.6875 1
vt 0.4375 1
vt 0.4375 0.8125
vt 0.6875 0.8125
vt 0.4375 0.8125
vt 0.4375 1
vt 0.1875 1
vt 0.1875 0.8125
vt 0.4375 1
vt 0.4375 0.8125
vt 0.1875 0.8125
vt 0.1875 1
vt 0.5 0.3125
vt 0.5 0.5625
vt 0.75 0.5625
vt 0.75 0.3125
vt 0.2916666666666667 0.33333333333333337
vt 0.2916666666666667 0.41666666666666663
vt 0.125 0.41666666666666663
vt 0.125 0.33333333333333337
vt 0.2916666666666667 0.33333333333333337
vt 0.2916666666666667 0.41666666666666663
vt 0.125 0.41666666666666663
vt 0.125 0.33333333333333337
vt 0.2916666666666667 0.33333333333333337
vt 0.2916666666666667 0.41666666666666663
vt 0.125 0.41666666666666663
vt 0.125 0.33333333333333337
vt 0.2916666666666667 0.33333333333333337
vt 0.2916666666666667 0.41666666666666663
vt 0.125 0.41666666666666663
vt 0.125 0.33333333333333337
vt 0 0.25
vt 0 0.5
vt 0.25 0.5
vt 0.25 0.25
vt 0 0.25
vt 0 0.5
vt 0.25 0.5
vt 0.25 0.25
vt 0.21875 0.25
vt 0.21875 0
vt 0.03125 0
vt 0.03125 0.25
vt 0.21875 0.25
vt 0.21875 0
vt 0.03125 0
vt 0.03125 0.25
vt 0.21875 0.25
vt 0.21875 0
vt 0.03125 0
vt 0.03125 0.25
vt 0.21875 0.25
vt 0.21875 0
vt 0.03125 0
vt 0.03125 0.25
vt 0.25 0.25
vt 0.25 0.5
vt 0 0.5
vt 0 0.25
vt 0.25 0.25
vt 0.25 0.5
vt 0 0.5
vt 0 0.25
vt 0.03125 0.25
vt 0.03125 0
vt 0.21875 0
vt 0.21875 0.25
vt 0.03125 0.25
vt 0.03125 0
vt 0.21875 0
vt 0.21875 0.25
vt 0.03125 0.25
vt 0.03125 0
vt 0.21875 0
vt 0.21875 0.25
vt 0.03125 0.25
vt 0.03125 0
vt 0.21875 0
vt 0.21875 0.25
vt 0.9375 0
vt 0.9375 0.3125
vt 0.625 0.3125
vt 0.625 0
vt 0.9375 0
vt 0.9375 0.3125
vt 0.625 0.3125
vt 0.625 0
vt 0.9375 0.3125
vt 0.9375 0
vt 0.625 0
vt 0.625 0.3125
vt 0.9375 0.3125
vt 0.9375 0
vt 0.625 0
vt 0.625 0.3125
vt 0.625 0
vt 0.625 0.3125
vt 0.3125 0.3125
vt 0.3125 0
vt 0.9375 0
vt 0.9375 0.3125
vt 0.625 0.3125
vt 0.625 0
vt 0.9375 0
vt 0.9375 0.3125
vt 0.625 0.3125
vt 0.625 0
vt 0.9375 0
vt 0.9375 0.3125
vt 0.625 0.3125
vt 0.625 0
vt 0.9375 0.3125
vt 0.9375 0
vt 0.625 0
vt 0.625 0.3125
vt 0.9375 0.3125
vt 0.9375 0
vt 0.625 0
vt 0.625 0.3125
vt 0.9375 0
vt 0.9375 0.3125
vt 0.625 0.3125
vt 0.625 0
vt 0.625 0
vt 0.625 0.3125
vt 0.3125 0.3125
vt 0.3125 0
vn 1 0 0
vn -1 0 0
vn 0 1 0
vn 0 0 1
vn 0 0 -1
vn 1 0 0
vn -1 0 0
vn 0 1 0
vn 0 0 1
vn 0 0 -1
vn 1 0 0
vn -1 0 0
vn 0 1 0
vn 0 -1 0
vn 0 0 1
vn 0 0 -1
vn 1 0 0
vn -1 0 0
vn 0 1 0
vn 0 -1 0
vn 0 0 1
vn 0 0 -1
vn 1 0 0
vn -1 0 0
vn 0 1 0
vn 0 -1 0
vn 0 0 1
vn 0 0 -1
vn 1 0 0
vn -1 0 0
vn 0 1 0
vn 0 -1 0
vn 0 0 1
vn 0 0 -1
vn 1 0 0
vn -1 0 0
vn 0 1 0
vn 0 -1 0
vn 0 0 1
vn 0 0 -1
vn 1 0 0
vn -1 0 0
vn 0 -1 0
vn 1 0 0
vn -1 0 0
vn 0 1 0
vn 0 -1 0
vn 0 0 1
vn 0 0 -1
vn 1 0 0
vn -1 0 0
vn 0 -1 0
vn 1 0 0
vn -1 0 0
vn 0 1 0
vn 0 -1 0
vn 0 0 1
vn 0 0 -1
vn 1 0 0
vn -1 0 0
vn 0 1 0
vn 0 -1 0
vn 0 0 1
vn 0 0 -1
vn 1 0 0
vn -1 0 0
vn 0 1 0
vn 0 -1 0
vn 0 0 1
vn 0 0 -1
vn 1 0 0
vn -1 0 0
vn 0 1 0
vn 0 -1 0
vn 0 0 1
vn 0 0 -1
vn 1 0 0
vn -1 0 0
vn 0 1 0
vn 0 -1 0
vn 0 0 1
vn 0 0 -1
vn 1 0 0
vn -1 0 0
vn 0 1 0
vn 0 -1 0
vn 0 0 1
vn 0 0 -1
vn 1 0 0
vn -1 0 0
vn 0 1 0
vn 0 -1 0
vn 1 0 0
vn 0 1 0
vn 0 -1 0
vn 0 0 1
vn 0 0 -1
vn -1 0 0
vn 0 1 0
vn 0 -1 0
vn 0 0 1
vn 0 0 -1
vn -1 0 0
vn 0 1 0
vn 0 -1 0
vn 0 0 1
vn 0 0 -1
vn 1 0 0
vn 0 1 0
vn 0 -1 0
vn 0 0 1
vn 0 0 -1
vn 1 0 0
vn -1 0 0
vn 0 1 0
vn 0 -1 0
vn 0 0 1
vn 0 0 -1
vn 1 0 0
vn -1 0 0
vn 0 1 0
vn 0 -1 0
vn 0 0 1
vn 0 0 -1
vn 1 0 0
vn -1 0 0
vn 0 1 0
vn 0 -1 0
vn 0 0 1
vn 0 0 -1
vn 1 0 0
vn -1 0 0
vn 0 1 0
vn 0 -1 0
vn 0 0 1
vn 0 0 -1
vn 1 0 0
vn -1 0 0
vn 0 1 0
vn 0 -1 0
vn 0 0 1
vn 0 0 -1
vn 1 0 0
vn -1 0 0
vn 0 1 0
vn 0 -1 0
vn 0 0 1
vn 0 0 -1
vn 1 0 0
vn -1 0 0
vn 0 1 0
vn 0 -1 0
vn 0 0 1
vn 0 0 -1
vn 1 0 0
vn -1 0 0
vn 0 -1 0
vn 1 0 0
vn -1 0 0
vn 0 -1 0
vn 1 0 0
vn -1 0 0
vn 0 1 0
vn 0 -1 0
vn 0 0 -1
vn 1 0 0
vn -1 0 0
vn 0 1 0
vn 0 -1 0
vn 0 0 1
vn 1 0 0
vn -1 0 0
vn 0 1 0
vn 0 -1 0
vn 0 0 -1
vn -1 0 0
vn 0 1 0
vn 0 -1 0
vn 0 0 1
vn 1 0 0
vn 0 1 0
vn 0 -1 0
vn 0 0 1
vn -1 0 0
vn 0 1 0
vn 0 -1 0
vn 0 0 -1
vn 1 0 0
vn 0 1 0
vn 0 -1 0
vn 0 0 -1
vn 1 0 0
vn -1 0 0
vn 0 0 1
vn 0 0 -1
vn 1 0 0
vn -1 0 0
vn 0 1 0
vn 0 -1 0
vn 0 0 1
vn 0 0 -1
vn 1 0 0
vn -1 0 0
vn 0 1 0
vn 0 -1 0
vn 0 0 1
vn 0 0 -1
vn 1 0 0
vn -1 0 0
vn 0 1 0
vn 0 -1 0
vn 0 0 1
vn 0 0 -1
vn 1 0 0
vn -1 0 0
vn 0 1 0
vn 0 -1 0
vn 0 0 1
vn 0 0 -1
usemtl wheels
f 4/1/1 2/2/1 1/3/1 3/4/1
f 7/5/2 5/6/2 6/7/2 8/8/2
f 1/9/3 2/10/3 6/11/3 5/12/3
f 3/13/4 1/14/4 5/15/4 7/16/4
f 8/17/5 6/18/5 2/19/5 4/20/5
f 12/21/6 10/22/6 9/23/6 11/24/6
f 15/25/7 13/26/7 14/27/7 16/28/7
f 9/29/8 10/30/8 14/31/8 13/32/8
f 11/33/9 9/34/9 13/35/9 15/36/9
f 16/37/10 14/38/10 10/39/10 12/40/10
usemtl small_trailing_bogey_outer
f 20/41/11 18/42/11 17/43/11 19/44/11
f 23/45/12 21/46/12 22/47/12 24/48/12
f 17/49/13 18/50/13 22/51/13 21/52/13
f 20/53/14 19/54/14 23/55/14 24/56/14
f 19/57/15 17/58/15 21/59/15 23/60/15
f 24/61/16 22/62/16 18/63/16 20/64/16
f 28/65/17 26/66/17 25/67/17 27/68/17
f 31/69/18 29/70/18 30/71/18 32/72/18
f 25/73/19 26/74/19 30/75/19 29/76/19
f 28/77/20 27/78/20 31/79/20 32/80/20
f 27/81/21 25/82/21 29/83/21 31/84/21
f 32/85/22 30/86/22 26/87/22 28/88/22
f 36/89/23 34/90/23 33/91/23 35/92/23
f 39/93/24 37/94/24 38/95/24 40/96/24
f 33/97/25 34/98/25 38/99/25 37/100/25
f 36/101/26 35/102/26 39/103/26 40/104/26
f 35/105/27 33/106/27 37/107/27 39/108/27
f 40/109/28 38/110/28 34/111/28 36/112/28
f 44/113/29 42/114/29 41/115/29 43/116/29
f 47/117/30 45/118/30 46/119/30 48/120/30
f 41/121/31 42/122/31 46/123/31 45/124/31
f 44/125/32 43/126/32 47/127/32 48/128/32
f 43/129/33 41/130/33 45/131/33 47/132/33
f 48/133/34 46/134/34 42/135/34 44/136/34
f 52/137/35 50/138/35 49/139/35 51/140/35
f 55/141/36 53/142/36 54/143/36 56/144/36
f 49/145/37 50/146/37 54/147/37 53/148/37
f 52/149/38 51/150/38 55/151/38 56/152/38
f 51/153/39 49/154/39 53/155/39 55/156/39
f 56/157/40 54/158/40 50/159/40 52/160/40
f 60/161/41 58/162/41 57/163/41 59/164/41
f 63/165/42 61/166/42 62/167/42 64/168/42
f 60/169/43 59/170/43 63/171/43 64/172/43
f 68/173/44 66/174/44 65/175/44 67/176/44
f 71/177/45 69/178/45 70/179/45 72/180/45
f 65/181/46 66/182/46 70/183/46 69/184/46
f 68/185/47 67/186/47 71/187/47 72/188/47
f 67/189/48 65/190/48 69/191/48 71/192/48
f 72/193/49 70/194/49 66/195/49 68/196/49
f 76/197/50 74/198/50 73/199/50 75/200/50
f 79/201/51 77/202/51 78/203/51 80/204/51
f 76/205/52 75/206/52 79/207/52 80/208/52
f 84/209/53 82/210/53 81/211/53 83/212/53
f 87/213/54 85/214/54 86/215/54 88/216/54
f 81/217/55 82/218/55 86/219/55 85/220/55
f 84/221/56 83/222/56 87/223/56 88/224/56
f 83/225/57 81/226/57 85/227/57 87/228/57
f 88/229/58 86/230/58 82/231/58 84/232/58
f 92/233/59 90/234/59 89/235/59 91/236/59
f 95/237/60 93/238/60 94/239/60 96/240/60
f 89/241/61 90/242/61 94/243/61 93/244/61
f 92/245/62 91/246/62 95/247/62 96/248/62
f 91/249/63 89/250/63 93/251/63 95/252/63
f 96/253/64 94/254/64 90/255/64 92/256/64
f 100/257/65 98/258/65 97/259/65 99/260/65
f 103/261/66 101/262/66 102/263/66 104/264/66
f 97/265/67 98/266/67 102/267/67 101/268/67
f 100/269/68 99/270/68 103/271/68 104/272/68
f 99/273/69 97/274/69 101/275/69 103/276/69
f 104/277/70 102/278/70 98/279/70 100/280/70
f 108/281/71 106/282/71 105/283/71 107/284/71
f 111/285/72 109/286/72 110/287/72 112/288/72
f 105/289/73 106/290/73 110/291/73 109/292/73
f 108/293/74 107/294/74 111/295/74 112/296/74
f 107/297/75 105/298/75 109/299/75 111/300/75
f 112/301/76 110/302/76 106/303/76 108/304/76
f 116/305/77 114/306/77 113/307/77 115/308/77
f 119/309/78 117/310/78 118/311/78 120/312/78
f 113/313/79 114/314/79 118/315/79 117/316/79
f 116/317/80 115/318/80 119/319/80 120/320/80
f 115/321/81 113/322/81 117/323/81 119/324/81
f 120/325/82 118/326/82 114/327/82 116/328/82
f 124/329/83 122/330/83 121/331/83 123/332/83
f 127/333/84 125/334/84 126/335/84 128/336/84
f 121/337/85 122/338/85 126/339/85 125/340/85
f 124/341/86 123/342/86 127/343/86 128/344/86
f 123/345/87 121/346/87 125/347/87 127/348/87
f 128/349/88 126/350/88 122/351/88 124/352/88
f 132/353/89 130/354/89 129/355/89 131/356/89
f 135/357/90 133/358/90 134/359/90 136/360/90
f 129/361/91 130/362/91 134/363/91 133/364/91
f 132/365/92 131/366/92 135/367/92 136/368/92
f 140/369/93 138/370/93 137/371/93 139/372/93
f 137/373/94 138/374/94 142/375/94 141/376/94
f 140/377/95 139/378/95 143/379/95 144/380/95
f 139/381/96 137/382/96 141/383/96 143/384/96
f 144/385/97 142/386/97 138/387/97 140/388/97
f 151/389/98 149/390/98 150/391/98 152/392/98
f 145/393/99 146/394/99 150/395/99 149/396/99
f 148/397/100 147/398/100 151/399/100 152/400/100
f 147/401/101 145/402/101 149/403/101 151/404/101
f 152/405/102 150/406/102 146/407/102 148/408/102
f 159/409/103 157/410/103 158/411/103 160/412/103
f 153/413/104 154/414/104 158/415/104 157/416/104
f 156/417/105 155/418/105 159/419/105 160/420/105
f 155/421/106 153/422/106 157/423/106 159/424/106
f 160/425/107 158/426/107 154/427/107 156/428/107
f 164/429/108 162/430/108 161/431/108 163/432/108
f 161/433/109 162/434/109 166/435/109 165/436/109
f 164/437/110 163/438/110 167/439/110 168/440/110
f 163/441/111 161/442/111 165/443/111 167/444/111
f 168/445/112 166/446/112 162/447/112 164/448/112
f 172/449/113 170/450/113 169/451/113 171/452/113
f 175/453/114 173/454/114 174/455/114 176/456/114
f 169/457/115 170/458/115 174/459/115 173/460/115
f 172/461/116 171/462/116 175/463/116 176/464/116
f 171/465/117 169/466/117 173/467/117 175/468/117
f 176/469/118 174/470/118 170/471/118 172/472/118
f 180/473/119 178/474/119 177/475/119 179/476/119
f 183/477/120 181/478/120 182/479/120 184/480/120
f 177/481/121 178/482/121 182/483/121 181/484/121
f 180/485/122 179/486/122 183/487/122 184/488/122
f 179/489/123 177/490/123 181/491/123 183/492/123
f 184/493/124 182/494/124 178/495/124 180/496/124
f 188/497/125 186/498/125 185/499/125 187/500/125
f 191/501/126 189/502/126 190/503/126 192/504/126
f 185/505/127 186/506/127 190/507/127 189/508/127
f 188/509/128 187/510/128 191/511/128 192/512/128
f 187/513/129 185/514/129 189/515/129 191/516/129
f 192/517/130 190/518/130 186/519/130 188/520/130
f 196/521/131 194/522/131 193/523/131 195/524/131
f 199/525/132 197/526/132 198/527/132 200/528/132
f 193/529/133 194/530/133 198/531/133 197/532/133
f 196/533/134 195/534/134 199/535/134 200/536/134
f 195/537/135 193/538/135 197/539/135 199/540/135
f 200/541/136 198/542/136 194/543/136 196/544/136
f 204/545/137 202/546/137 201/547/137 203/548/137
f 207/549/138 205/550/138 206/551/138 208/552/138
f 201/553/139 202/554/139 206/555/139 205/556/139
f 204/557/140 203/558/140 207/559/140 208/560/140
f 203/561/141 201/562/141 205/563/141 207/564/141
f 208/565/142 206/566/142 202/567/142 204/568/142
f 212/569/143 210/570/143 209/571/143 211/572/143
f 215/573/144 213/574/144 214/575/144 216/576/144
f 209/577/145 210/578/145 214/579/145 213/580/145
f 212/581/146 211/582/146 215/583/146 216/584/146
f 211/585/147 209/586/147 213/587/147 215/588/147
f 216/589/148 214/590/148 210/591/148 212/592/148
f 220/593/149 218/594/149 217/595/149 219/596/149
f 223/597/150 221/598/150 222/599/150 224/600/150
f 217/601/151 218/602/151 222/603/151 221/604/151
f 220/605/152 219/606/152 223/607/152 224/608/152
f 219/609/153 217/610/153 221/611/153 223/612/153
f 224/613/154 222/614/154 218/615/154 220/616/154
f 228/617/155 226/618/155 225/619/155 227/620/155
f 231/621/156 229/622/156 230/623/156 232/624/156
f 228/625/157 227/626/157 231/627/157 232/628/157
f 236/629/158 234/630/158 233/631/158 235/632/158
f 239/633/159 237/634/159 238/635/159 240/636/159
f 236/637/160 235/638/160 239/639/160 240/640/160
f 244/641/161 242/642/161 241/643/161 243/644/161
f 247/645/162 245/646/162 246/647/162 248/648/162
f 241/649/163 242/650/163 246/651/163 245/652/163
f 244/653/164 243/654/164 247/655/164 248/656/164
f 248/657/165 246/658/165 242/659/165 244/660/165
usemtl frame
f 252/661/166 250/662/166 249/663/166 251/664/166
f 255/665/167 253/666/167 254/667/167 256/668/167
f 249/669/168 250/670/168 254/671/168 253/672/168
f 252/673/169 251/674/169 255/675/169 256/676/169
usemtl trailing_bogey_base
f 251/677/170 249/678/170 253/679/170 255/680/170
usemtl frame
f 260/681/171 258/682/171 257/683/171 259/684/171
f 263/685/172 261/686/172 262/687/172 264/688/172
f 257/689/173 258/690/173 262/691/173 261/692/173
f 260/693/174 259/694/174 263/695/174 264/696/174
f 264/697/175 262/698/175 258/699/175 260/700/175
f 271/701/176 269/702/176 270/703/176 272/704/176
f 265/705/177 266/706/177 270/707/177 269/708/177
f 268/709/178 267/710/178 271/711/178 272/712/178
f 267/713/179 265/714/179 269/715/179 271/716/179
f 276/717/180 274/718/180 273/719/180 275/720/180
f 273/721/181 274/722/181 278/723/181 277/724/181
f 276/725/182 275/726/182 279/727/182 280/728/182
f 275/729/183 273/730/183 277/731/183 279/732/183
f 287/733/184 285/734/184 286/735/184 288/736/184
f 281/737/185 282/738/185 286/739/185 285/740/185
f 284/741/186 283/742/186 287/743/186 288/744/186
f 288/745/187 286/746/187 282/747/187 284/748/187
f 292/749/188 290/750/188 289/751/188 291/752/188
f 289/753/189 290/754/189 294/755/189 293/756/189
f 292/757/190 291/758/190 295/759/190 296/760/190
f 296/761/191 294/762/191 290/763/191 292/764/191
usemtl trailing_bogey_base
f 300/765/192 298/766/192 297/767/192 299/768/192
f 303/769/193 301/770/193 302/771/193 304/772/193
f 299/773/194 297/774/194 301/775/194 303/776/194
f 304/777/195 302/778/195 298/779/195 300/780/195
usemtl frame2
f 308/781/196 306/782/196 305/783/196 307/784/196
f 311/785/197 309/786/197 310/787/197 312/788/197
f 305/789/198 306/790/198 310/791/198 309/792/198
f 308/793/199 307/794/199 311/795/199 312/796/199
f 307/797/200 305/798/200 309/799/200 311/800/200
f 312/801/201 310/802/201 306/803/201 308/804/201
f 316/805/202 314/806/202 313/807/202 315/808/202
f 319/809/203 317/810/203 318/811/203 320/812/203
f 313/813/204 314/814/204 318/815/204 317/816/204
f 316/817/205 315/818/205 319/819/205 320/820/205
f 315/821/206 313/822/206 317/823/206 319/824/206
f 320/825/207 318/826/207 314/827/207 316/828/207
usemtl frame
f 324/829/208 322/830/208 321/831/208 323/832/208
f 327/833/209 325/834/209 326/835/209 328/836/209
f 321/837/210 322/838/210 326/839/210 325/840/210
f 324/841/211 323/842/211 327/843/211 328/844/211
f 323/845/212 321/846/212 325/847/212 327/848/212
f 328/849/213 326/850/213 322/851/213 324/852/213
f 332/853/214 330/854/214 329/855/214 331/856/214
f 335/857/215 333/858/215 334/859/215 336/860/215
f 329/861/216 330/862/216 334/863/216 333/864/216
f 332/865/217 331/866/217 335/867/217 336/868/217
f 331/869/218 329/870/218 333/871/218 335/872/218
f 336/873/219 334/874/219 330/875/219 332/876/219